SplineFontDB: 3.0
FontName: Sansita-Italic
FullName: Sansita-Italic
FamilyName: Sansita
Weight: Regular
Copyright: Copyright (c) 2011-2013, Omnibus-Type (www.omnibus-type.com omnibus.type@gmail.com) with Reserved Font Name 'Sansita'
Version: 001.004
ItalicAngle: -11
UnderlinePosition: -102.4
UnderlineWidth: 102.4
Ascent: 1638
Descent: 410
sfntRevision: 0x00010106
LayerCount: 2
Layer: 0 1 "Back"  1
Layer: 1 1 "Fore"  0
XUID: [1021 809 -2065993493 12435139]
FSType: 8
OS2Version: 3
OS2_WeightWidthSlopeOnly: 0
OS2_UseTypoMetrics: 1
CreationTime: 1387883418
ModificationTime: 1388173066
PfmFamily: 81
TTFWeight: 400
TTFWidth: 5
LineGap: 0
VLineGap: 0
Panose: 0 0 5 0 0 0 0 0 0 0
OS2TypoAscent: 1434
OS2TypoAOffset: 0
OS2TypoDescent: -369
OS2TypoDOffset: 0
OS2TypoLinegap: 655
OS2WinAscent: 2089
OS2WinAOffset: 0
OS2WinDescent: 369
OS2WinDOffset: 0
HheadAscent: 2089
HheadAOffset: 0
HheadDescent: -369
HheadDOffset: 0
OS2SubXSize: 1331
OS2SubYSize: 1229
OS2SubXOff: -31
OS2SubYOff: 154
OS2SupXSize: 1331
OS2SupYSize: 1229
OS2SupXOff: 139
OS2SupYOff: 717
OS2StrikeYSize: 102
OS2StrikeYPos: 627
OS2Vendor: 'UKWN'
OS2CodePages: 20000093.00000000
OS2UnicodeRanges: 00000007.00000000.00000000.00000000
Lookup: 1 0 0 "'aalt' Access All Alternates lookup 0"  {"'aalt' Access All Alternates lookup 0 subtable"  } ['aalt' ('DFLT' <'dflt' > 'grek' <'dflt' > 'latn' <'AZE ' 'CAT ' 'CRT ' 'ESP ' 'KAZ ' 'MOL ' 'NLD ' 'PLK ' 'ROM ' 'TAT ' 'TRK ' 'dflt' > ) ]
Lookup: 3 0 0 "'aalt' Access All Alternates lookup 1"  {"'aalt' Access All Alternates lookup 1 subtable"  } ['aalt' ('DFLT' <'dflt' > 'grek' <'dflt' > 'latn' <'AZE ' 'CAT ' 'CRT ' 'ESP ' 'KAZ ' 'MOL ' 'NLD ' 'PLK ' 'ROM ' 'TAT ' 'TRK ' 'dflt' > ) ]

StartChar: .notdef
Encoding: 65536 -1 0
Width: 1052
Flags: MW
HStem: 0 102<100 797 100 940> 1331 102<336 1032 336 336>
VStem: -84 1303
LayerCount: 2
Fore
SplineSet
797 102 m 1,0,-1
 547 625 l 1,1,-1
 100 102 l 1,2,-1
 797 102 l 1,0,-1
872 195 m 1,3,-1
 1077 1239 l 1,4,-1
 629 717 l 1,5,-1
 872 195 l 1,3,-1
53 195 m 1,6,-1
 506 717 l 1,7,-1
 258 1239 l 1,8,-1
 53 195 l 1,6,-1
1032 1331 m 1,9,-1
 336 1331 l 1,10,-1
 586 809 l 1,11,-1
 1032 1331 l 1,9,-1
195 1434 m 1,12,-1
 1219 1434 l 1,13,-1
 940 0 l 1,14,-1
 -84 0 l 1,15,-1
 195 1434 l 1,12,-1
EndSplineSet
Validated: 1
EndChar

StartChar: A
Encoding: 65 65 1
Width: 1097
Flags: MW
HStem: 344 145<379 692 379 705 322 692> 1184 168<653 653> 1311 41G<555 854 854 854>
VStem: -55 1083
LayerCount: 2
Fore
SplineSet
653 1184 m 1,0,1
 588 1021 588 1021 500 796 c 128,-1,2
 412 571 412 571 379 489 c 1,3,-1
 692 489 l 1,4,-1
 653 1184 l 1,0,1
948 252 m 2,5,6
 961 105 961 105 1028 61 c 1,7,8
 1016 13 1016 13 976 -14 c 128,-1,9
 936 -41 936 -41 883 -41 c 0,10,11
 840 -41 840 -41 809.5 -22 c 128,-1,12
 779 -3 779 -3 762 32.5 c 128,-1,13
 745 68 745 68 736 104 c 128,-1,14
 727 140 727 140 721 190 c 0,15,16
 709 284 709 284 705 344 c 1,17,-1
 322 344 l 1,18,19
 287 260 287 260 180 0 c 1,20,-1
 -55 0 l 1,21,-1
 555 1352 l 1,22,-1
 854 1352 l 1,23,-1
 948 252 l 2,5,6
EndSplineSet
Validated: 8388609
Substitution2: "Single Substitution lookup 21 subtable" ordfeminine
Substitution2: "'aalt' Access All Alternates lookup 0 subtable" ordfeminine
Position2: "'cpsp' Capital Spacing lookup 3 subtable" dx=10 dy=0 dh=20 dv=0
EndChar

StartChar: Aacute
Encoding: 193 193 2
Width: 1097
Flags: MW
HStem: 344 145<379 692 379 705 322 692> 1184 168<653 653> 1311 41G<555 854 854 854>
VStem: -55 1122
LayerCount: 2
Fore
SplineSet
653 1184 m 1,0,1
 588 1021 588 1021 500 796 c 128,-1,2
 412 571 412 571 379 489 c 1,3,-1
 692 489 l 1,4,-1
 653 1184 l 1,0,1
948 252 m 2,5,6
 961 105 961 105 1028 61 c 1,7,8
 1016 13 1016 13 976 -14 c 128,-1,9
 936 -41 936 -41 883 -41 c 0,10,11
 840 -41 840 -41 809.5 -22 c 128,-1,12
 779 -3 779 -3 762 32.5 c 128,-1,13
 745 68 745 68 736 104 c 128,-1,14
 727 140 727 140 721 190 c 0,15,16
 709 284 709 284 705 344 c 1,17,-1
 322 344 l 1,18,19
 287 260 287 260 180 0 c 1,20,-1
 -55 0 l 1,21,-1
 555 1352 l 1,22,-1
 854 1352 l 1,23,-1
 948 252 l 2,5,6
543 1548 m 1,24,-1
 1022 1731 l 1,25,26
 1067 1702 1067 1702 1067 1638 c 0,27,28
 1067 1598 1067 1598 1050 1568 c 128,-1,29
 1033 1538 1033 1538 1007.5 1521.5 c 128,-1,30
 982 1505 982 1505 943 1494 c 128,-1,31
 904 1483 904 1483 871.5 1479 c 128,-1,32
 839 1475 839 1475 795 1473 c 2,33,-1
 559 1460 l 1,34,-1
 543 1548 l 1,24,-1
EndSplineSet
Validated: 8388609
Position2: "'cpsp' Capital Spacing lookup 3 subtable" dx=10 dy=0 dh=20 dv=0
EndChar

StartChar: Abreve
Encoding: 258 258 3
Width: 1097
Flags: MW
HStem: 344 145<379 692 379 705 322 692> 1184 168<653 653> 1311 41G<555 854 854 854> 1432 100<696 776 696 807>
VStem: 451 176<1611 1653 1611 1657>
LayerCount: 2
Fore
SplineSet
653 1184 m 1,0,1
 588 1021 588 1021 500 796 c 128,-1,2
 412 571 412 571 379 489 c 1,3,-1
 692 489 l 1,4,-1
 653 1184 l 1,0,1
948 252 m 2,5,6
 961 105 961 105 1028 61 c 1,7,8
 1016 13 1016 13 976 -14 c 128,-1,9
 936 -41 936 -41 883 -41 c 0,10,11
 840 -41 840 -41 809.5 -22 c 128,-1,12
 779 -3 779 -3 762 32.5 c 128,-1,13
 745 68 745 68 736 104 c 128,-1,14
 727 140 727 140 721 190 c 0,15,16
 709 284 709 284 705 344 c 1,17,-1
 322 344 l 1,18,19
 287 260 287 260 180 0 c 1,20,-1
 -55 0 l 1,21,-1
 555 1352 l 1,22,-1
 854 1352 l 1,23,-1
 948 252 l 2,5,6
635 1704 m 1,24,25
 627 1665 627 1665 627 1645 c 0,26,27
 627 1593 627 1593 653.5 1562.5 c 128,-1,28
 680 1532 680 1532 729 1532 c 0,29,30
 795 1532 795 1532 845 1586 c 128,-1,31
 895 1640 895 1640 907 1704 c 1,32,-1
 1071 1704 l 1,33,34
 1048 1578 1048 1578 951.5 1505 c 128,-1,35
 855 1432 855 1432 709 1432 c 0,36,37
 582 1432 582 1432 516.5 1488.5 c 128,-1,38
 451 1545 451 1545 451 1647 c 0,39,40
 451 1674 451 1674 457 1704 c 1,41,-1
 635 1704 l 1,24,25
EndSplineSet
Validated: 8388609
Position2: "'cpsp' Capital Spacing lookup 3 subtable" dx=10 dy=0 dh=20 dv=0
EndChar

StartChar: Acircumflex
Encoding: 194 194 4
Width: 1097
Flags: MW
HStem: 344 145<379 692 379 705 322 692> 1184 168<653 653> 1311 41G<555 854 854 854>
VStem: -55 1083
LayerCount: 2
Fore
SplineSet
653 1184 m 1,0,1
 588 1021 588 1021 500 796 c 128,-1,2
 412 571 412 571 379 489 c 1,3,-1
 692 489 l 1,4,-1
 653 1184 l 1,0,1
948 252 m 2,5,6
 961 105 961 105 1028 61 c 1,7,8
 1016 13 1016 13 976 -14 c 128,-1,9
 936 -41 936 -41 883 -41 c 0,10,11
 840 -41 840 -41 809.5 -22 c 128,-1,12
 779 -3 779 -3 762 32.5 c 128,-1,13
 745 68 745 68 736 104 c 128,-1,14
 727 140 727 140 721 190 c 0,15,16
 709 284 709 284 705 344 c 1,17,-1
 322 344 l 1,18,19
 287 260 287 260 180 0 c 1,20,-1
 -55 0 l 1,21,-1
 555 1352 l 1,22,-1
 854 1352 l 1,23,-1
 948 252 l 2,5,6
915 1380 m 1,24,-1
 700 1528 l 1,25,-1
 434 1380 l 1,26,-1
 379 1481 l 1,27,-1
 713 1718 l 1,28,-1
 727 1718 l 1,29,-1
 997 1479 l 1,30,-1
 915 1380 l 1,24,-1
EndSplineSet
Validated: 8388609
Position2: "'cpsp' Capital Spacing lookup 3 subtable" dx=10 dy=0 dh=20 dv=0
EndChar

StartChar: Adieresis
Encoding: 196 196 5
Width: 1097
Flags: MW
HStem: 344 145<379 692 379 705 322 692> 1184 168<653 653> 1311 41G<555 854 854 854> 1489 258<463 543 891 971>
VStem: 350 307<1576 1660> 778 307<1576 1660>
LayerCount: 2
Fore
SplineSet
653 1184 m 1,0,1
 588 1021 588 1021 500 796 c 128,-1,2
 412 571 412 571 379 489 c 1,3,-1
 692 489 l 1,4,-1
 653 1184 l 1,0,1
948 252 m 2,5,6
 961 105 961 105 1028 61 c 1,7,8
 1016 13 1016 13 976 -14 c 128,-1,9
 936 -41 936 -41 883 -41 c 0,10,11
 840 -41 840 -41 809.5 -22 c 128,-1,12
 779 -3 779 -3 762 32.5 c 128,-1,13
 745 68 745 68 736 104 c 128,-1,14
 727 140 727 140 721 190 c 0,15,16
 709 284 709 284 705 344 c 1,17,-1
 322 344 l 1,18,19
 287 260 287 260 180 0 c 1,20,-1
 -55 0 l 1,21,-1
 555 1352 l 1,22,-1
 854 1352 l 1,23,-1
 948 252 l 2,5,6
934 1747 m 0,24,25
 1001 1747 1001 1747 1043 1714 c 128,-1,26
 1085 1681 1085 1681 1085 1620 c 0,27,28
 1085 1557 1085 1557 1040.5 1523 c 128,-1,29
 996 1489 996 1489 928 1489 c 0,30,31
 861 1489 861 1489 819.5 1522 c 128,-1,32
 778 1555 778 1555 778 1616 c 0,33,34
 778 1679 778 1679 822 1713 c 128,-1,35
 866 1747 866 1747 934 1747 c 0,24,25
506 1747 m 0,36,37
 573 1747 573 1747 615 1714 c 128,-1,38
 657 1681 657 1681 657 1620 c 0,39,40
 657 1557 657 1557 612.5 1523 c 128,-1,41
 568 1489 568 1489 500 1489 c 0,42,43
 433 1489 433 1489 391.5 1522 c 128,-1,44
 350 1555 350 1555 350 1616 c 0,45,46
 350 1679 350 1679 394 1713 c 128,-1,47
 438 1747 438 1747 506 1747 c 0,36,37
EndSplineSet
Validated: 8388609
Position2: "'cpsp' Capital Spacing lookup 3 subtable" dx=10 dy=0 dh=20 dv=0
EndChar

StartChar: Agrave
Encoding: 192 192 6
Width: 1097
Flags: MW
HStem: 344 145<379 692 379 705 322 692> 1184 168<653 653> 1311 41G<555 854 854 854>
VStem: -55 1083
LayerCount: 2
Fore
SplineSet
653 1184 m 1,0,1
 588 1021 588 1021 500 796 c 128,-1,2
 412 571 412 571 379 489 c 1,3,-1
 692 489 l 1,4,-1
 653 1184 l 1,0,1
948 252 m 2,5,6
 961 105 961 105 1028 61 c 1,7,8
 1016 13 1016 13 976 -14 c 128,-1,9
 936 -41 936 -41 883 -41 c 0,10,11
 840 -41 840 -41 809.5 -22 c 128,-1,12
 779 -3 779 -3 762 32.5 c 128,-1,13
 745 68 745 68 736 104 c 128,-1,14
 727 140 727 140 721 190 c 0,15,16
 709 284 709 284 705 344 c 1,17,-1
 322 344 l 1,18,19
 287 260 287 260 180 0 c 1,20,-1
 -55 0 l 1,21,-1
 555 1352 l 1,22,-1
 854 1352 l 1,23,-1
 948 252 l 2,5,6
868 1460 m 1,24,-1
 633 1473 l 2,25,26
 589 1475 589 1475 556.5 1479 c 128,-1,27
 524 1483 524 1483 484.5 1494 c 128,-1,28
 445 1505 445 1505 420 1521.5 c 128,-1,29
 395 1538 395 1538 377.5 1568 c 128,-1,30
 360 1598 360 1598 360 1638 c 0,31,32
 360 1701 360 1701 406 1731 c 1,33,-1
 885 1548 l 1,34,-1
 868 1460 l 1,24,-1
EndSplineSet
Validated: 8388609
Position2: "'cpsp' Capital Spacing lookup 3 subtable" dx=10 dy=0 dh=20 dv=0
EndChar

StartChar: Amacron
Encoding: 256 256 7
Width: 1097
Flags: MW
HStem: 344 145<379 692 379 705 322 692> 1184 168<653 653> 1311 41G<555 854 854 854> 1503 168<551 862 430 995>
VStem: -55 1083
LayerCount: 2
Fore
SplineSet
653 1184 m 1,0,1
 588 1021 588 1021 500 796 c 128,-1,2
 412 571 412 571 379 489 c 1,3,-1
 692 489 l 1,4,-1
 653 1184 l 1,0,1
948 252 m 2,5,6
 961 105 961 105 1028 61 c 1,7,8
 1016 13 1016 13 976 -14 c 128,-1,9
 936 -41 936 -41 883 -41 c 0,10,11
 840 -41 840 -41 809.5 -22 c 128,-1,12
 779 -3 779 -3 762 32.5 c 128,-1,13
 745 68 745 68 736 104 c 128,-1,14
 727 140 727 140 721 190 c 0,15,16
 709 284 709 284 705 344 c 1,17,-1
 322 344 l 1,18,19
 287 260 287 260 180 0 c 1,20,-1
 -55 0 l 1,21,-1
 555 1352 l 1,22,-1
 854 1352 l 1,23,-1
 948 252 l 2,5,6
995 1671 m 1,24,25
 1001 1650 1001 1650 1001 1622 c 0,26,27
 1001 1568 1001 1568 965.5 1535.5 c 128,-1,28
 930 1503 930 1503 862 1503 c 2,29,-1
 430 1503 l 1,30,31
 426 1519 426 1519 426 1552 c 0,32,33
 427 1607 427 1607 461 1639 c 128,-1,34
 495 1671 495 1671 551 1671 c 2,35,-1
 995 1671 l 1,24,25
EndSplineSet
Validated: 8388609
Position2: "'cpsp' Capital Spacing lookup 3 subtable" dx=10 dy=0 dh=20 dv=0
EndChar

StartChar: Aogonek
Encoding: 260 260 8
Width: 1097
Flags: MW
HStem: -528 127<904 965> -72 41G 20 14<1018 1024> 344 145<379 692 379 705 322 692> 1184 168<653 653> 1311 41G<555 854 854 854>
VStem: 678 150<-322 -249>
LayerCount: 2
Fore
SplineSet
692 489 m 1,0,-1
 653 1184 l 1,1,2
 588 1021 588 1021 500 796 c 128,-1,3
 412 571 412 571 379 489 c 1,4,-1
 692 489 l 1,0,-1
1024 20 m 1,5,-1
 993 2 l 1,6,7
 977 -14 977 -14 967 -20 c 1,8,9
 902 -71 902 -71 864.5 -141 c 128,-1,10
 827 -211 827 -211 827 -281 c 0,11,12
 827 -344 827 -344 855 -372.5 c 128,-1,13
 883 -401 883 -401 948 -401 c 0,14,15
 1021 -401 1021 -401 1055 -350 c 1,16,17
 1087 -375 1087 -375 1087 -410 c 0,18,19
 1087 -460 1087 -460 1038 -494 c 128,-1,20
 989 -528 989 -528 913 -528 c 0,21,22
 806 -528 806 -528 742 -469.5 c 128,-1,23
 678 -411 678 -411 678 -307 c 0,24,25
 678 -224 678 -224 718.5 -153 c 128,-1,26
 759 -82 759 -82 825 -31 c 1,27,28
 776 -9 776 -9 754 47.5 c 128,-1,29
 732 104 732 104 721 190 c 0,30,31
 709 284 709 284 705 344 c 1,32,-1
 322 344 l 1,33,34
 287 260 287 260 180 0 c 1,35,-1
 -55 0 l 1,36,-1
 555 1352 l 1,37,-1
 854 1352 l 1,38,-1
 948 252 l 2,39,40
 961 105 961 105 1028 61 c 1,41,42
 1025 49 1025 49 1018 35 c 1,43,-1
 1024 35 l 1,44,-1
 1024 20 l 1,5,-1
EndSplineSet
Validated: 8388609
Position2: "'cpsp' Capital Spacing lookup 3 subtable" dx=10 dy=0 dh=20 dv=0
EndChar

StartChar: Aring
Encoding: 197 197 9
Width: 1097
Flags: MW
HStem: 344 145<379 692 379 705 322 692> 1184 168<653 653> 1311 41G<555 854 854 854> 1413 66<683 734 683 755> 1679 72<710 762>
VStem: 518 119<1529 1587 1529 1615> 815 123<1571 1628>
LayerCount: 2
Fore
SplineSet
653 1184 m 1,0,1
 588 1021 588 1021 500 796 c 128,-1,2
 412 571 412 571 379 489 c 1,3,-1
 692 489 l 1,4,-1
 653 1184 l 1,0,1
948 252 m 2,5,6
 961 105 961 105 1028 61 c 1,7,8
 1016 13 1016 13 976 -14 c 128,-1,9
 936 -41 936 -41 883 -41 c 0,10,11
 840 -41 840 -41 809.5 -22 c 128,-1,12
 779 -3 779 -3 762 32.5 c 128,-1,13
 745 68 745 68 736 104 c 128,-1,14
 727 140 727 140 721 190 c 0,15,16
 709 284 709 284 705 344 c 1,17,-1
 322 344 l 1,18,19
 287 260 287 260 180 0 c 1,20,-1
 -55 0 l 1,21,-1
 555 1352 l 1,22,-1
 854 1352 l 1,23,-1
 948 252 l 2,5,6
815 1606 m 0,24,25
 815 1640 815 1640 794.5 1659.5 c 128,-1,26
 774 1679 774 1679 735 1679 c 128,-1,27
 696 1679 696 1679 666.5 1641.5 c 128,-1,28
 637 1604 637 1604 637 1550 c 0,29,30
 637 1479 637 1479 709 1479 c 0,31,32
 749 1479 749 1479 782 1517 c 128,-1,33
 815 1555 815 1555 815 1606 c 0,24,25
938 1612 m 0,34,35
 938 1523 938 1523 864 1468 c 128,-1,36
 790 1413 790 1413 696 1413 c 0,37,38
 612 1413 612 1413 565 1449 c 128,-1,39
 518 1485 518 1485 518 1552 c 0,40,41
 518 1641 518 1641 590 1696 c 128,-1,42
 662 1751 662 1751 756 1751 c 0,43,44
 839 1751 839 1751 888.5 1714.5 c 128,-1,45
 938 1678 938 1678 938 1612 c 0,34,35
EndSplineSet
Validated: 8388609
Position2: "'cpsp' Capital Spacing lookup 3 subtable" dx=10 dy=0 dh=20 dv=0
EndChar

StartChar: Aringacute
Encoding: 506 506 10
Width: 1097
Flags: MW
HStem: 344 145<379 692 379 705 322 692> 1311 41G<689 740> 1552 72<716 768>
VStem: 524 119<1409 1460 1402 1488> 821 123<1451 1501>
LayerCount: 2
Fore
SplineSet
692 489 m 1,0,-1
 653 1184 l 1,1,2
 588 1021 588 1021 500 796 c 128,-1,3
 412 571 412 571 379 489 c 1,4,-1
 692 489 l 1,0,-1
741 1552 m 128,-1,6
 702 1552 702 1552 672.5 1514.5 c 128,-1,7
 643 1477 643 1477 643 1423 c 0,8,9
 643 1352 643 1352 715 1352 c 0,10,11
 755 1352 755 1352 788 1390 c 128,-1,12
 821 1428 821 1428 821 1479 c 0,13,14
 821 1513 821 1513 800.5 1532.5 c 128,-1,5
 780 1552 780 1552 741 1552 c 128,-1,6
948 252 m 2,15,16
 961 105 961 105 1028 61 c 1,17,18
 1016 13 1016 13 976 -14 c 128,-1,19
 936 -41 936 -41 883 -41 c 0,20,21
 840 -41 840 -41 809.5 -22 c 128,-1,22
 779 -3 779 -3 762 32.5 c 128,-1,23
 745 68 745 68 736 104 c 128,-1,24
 727 140 727 140 721 190 c 0,25,26
 709 284 709 284 705 344 c 1,27,-1
 322 344 l 1,28,29
 287 260 287 260 180 0 c 1,30,-1
 -55 0 l 1,31,-1
 551 1343 l 1,32,33
 524 1377 524 1377 524 1425 c 0,34,35
 524 1514 524 1514 596 1569 c 128,-1,36
 668 1624 668 1624 762 1624 c 0,37,38
 845 1624 845 1624 894.5 1587.5 c 128,-1,39
 944 1551 944 1551 944 1485 c 0,40,41
 944 1388 944 1388 856 1331 c 1,42,-1
 948 252 l 2,15,16
1083 1901 m 1,43,44
 1128 1872 1128 1872 1128 1808 c 0,45,46
 1128 1768 1128 1768 1111 1738 c 128,-1,47
 1094 1708 1094 1708 1068.5 1691 c 128,-1,48
 1043 1674 1043 1674 1004 1663 c 128,-1,49
 965 1652 965 1652 932 1648 c 128,-1,50
 899 1644 899 1644 856 1642 c 2,51,-1
 621 1630 l 1,52,-1
 604 1718 l 1,53,-1
 1083 1901 l 1,43,44
EndSplineSet
Validated: 1
Position2: "'cpsp' Capital Spacing lookup 3 subtable" dx=10 dy=0 dh=20 dv=0
EndChar

StartChar: Atilde
Encoding: 195 195 11
Width: 1097
Flags: MW
HStem: 344 145<379 692 379 705 322 692> 1184 168<653 653> 1311 41G<555 854 854 854> 1485 174<874 943 874 944> 1518 174<530 598>
VStem: -55 1110
LayerCount: 2
Fore
SplineSet
653 1184 m 1,0,1
 588 1021 588 1021 500 796 c 128,-1,2
 412 571 412 571 379 489 c 1,3,-1
 692 489 l 1,4,-1
 653 1184 l 1,0,1
948 252 m 2,5,6
 961 105 961 105 1028 61 c 1,7,8
 1016 13 1016 13 976 -14 c 128,-1,9
 936 -41 936 -41 883 -41 c 0,10,11
 840 -41 840 -41 809.5 -22 c 128,-1,12
 779 -3 779 -3 762 32.5 c 128,-1,13
 745 68 745 68 736 104 c 128,-1,14
 727 140 727 140 721 190 c 0,15,16
 709 284 709 284 705 344 c 1,17,-1
 322 344 l 1,18,19
 287 260 287 260 180 0 c 1,20,-1
 -55 0 l 1,21,-1
 555 1352 l 1,22,-1
 854 1352 l 1,23,-1
 948 252 l 2,5,6
1022 1692 m 1,24,25
 1055 1654 1055 1654 1055 1608 c 0,26,27
 1055 1549 1055 1549 1012 1517 c 128,-1,28
 969 1485 969 1485 897 1485 c 0,29,30
 855 1485 855 1485 726.5 1501.5 c 128,-1,31
 598 1518 598 1518 557 1518 c 0,32,33
 481 1518 481 1518 442 1487 c 1,34,35
 408 1536 408 1536 408 1581 c 0,36,37
 408 1634 408 1634 450.5 1663 c 128,-1,38
 493 1692 493 1692 571 1692 c 0,39,40
 618 1692 618 1692 747 1675.5 c 128,-1,41
 876 1659 876 1659 920 1659 c 0,42,43
 998 1659 998 1659 1022 1692 c 1,24,25
EndSplineSet
Validated: 8388609
Position2: "'cpsp' Capital Spacing lookup 3 subtable" dx=10 dy=0 dh=20 dv=0
EndChar

StartChar: AE
Encoding: 198 198 12
Width: 1370
Flags: MW
HStem: -41 178<957 983> 362 158<274 612 354 590> 604 168<996 1087> 1157 195<1124 1230> 1212 139<889 889>
VStem: 584 229<254 270>
LayerCount: 2
Fore
SplineSet
612 520 m 1,0,1
 622 624 622 624 649 856.5 c 128,-1,2
 676 1089 676 1089 684 1165 c 1,3,-1
 354 520 l 1,4,-1
 612 520 l 1,0,1
274 362 m 1,5,6
 274 361 274 361 183 181 c 128,-1,7
 92 1 92 1 92 0 c 1,8,-1
 -145 0 l 1,9,-1
 588 1352 l 1,10,-1
 1386 1352 l 1,11,12
 1386 1256 1386 1256 1326 1206.5 c 128,-1,13
 1266 1157 1266 1157 1165 1157 c 0,14,15
 1104 1157 1104 1157 1025 1173 c 128,-1,16
 946 1189 946 1189 889 1212 c 1,17,-1
 850 772 l 1,18,-1
 1229 772 l 1,19,20
 1229 604 1229 604 1030 604 c 0,21,22
 924 604 924 604 838 643 c 1,23,24
 813 379 813 379 813 328 c 0,25,26
 813 223 813 223 866 180 c 128,-1,27
 919 137 919 137 1022 137 c 0,28,29
 1112 137 1112 137 1194 166 c 1,30,31
 1206 142 1206 142 1206 106 c 0,32,33
 1206 64 1206 64 1179 34 c 128,-1,34
 1152 4 1152 4 1108 -11.5 c 128,-1,35
 1064 -27 1064 -27 1019 -34 c 128,-1,36
 974 -41 974 -41 926 -41 c 0,37,38
 767 -41 767 -41 675.5 36 c 128,-1,39
 584 113 584 113 584 258 c 0,40,41
 584 312 584 312 590 362 c 1,42,-1
 274 362 l 1,5,6
EndSplineSet
Validated: 8388609
Position2: "'cpsp' Capital Spacing lookup 3 subtable" dx=10 dy=0 dh=20 dv=0
EndChar

StartChar: AEacute
Encoding: 508 508 13
Width: 1370
Flags: MW
HStem: -41 178<957 983> 362 158<274 612 354 590> 604 168<996 1087> 1157 195<1124 1230> 1212 139<889 889>
VStem: 584 229<254 270>
LayerCount: 2
Fore
SplineSet
612 520 m 1,0,1
 622 624 622 624 649 856.5 c 128,-1,2
 676 1089 676 1089 684 1165 c 1,3,-1
 354 520 l 1,4,-1
 612 520 l 1,0,1
274 362 m 1,5,6
 274 361 274 361 183 181 c 128,-1,7
 92 1 92 1 92 0 c 1,8,-1
 -145 0 l 1,9,-1
 588 1352 l 1,10,-1
 1386 1352 l 1,11,12
 1386 1256 1386 1256 1326 1206.5 c 128,-1,13
 1266 1157 1266 1157 1165 1157 c 0,14,15
 1104 1157 1104 1157 1025 1173 c 128,-1,16
 946 1189 946 1189 889 1212 c 1,17,-1
 850 772 l 1,18,-1
 1229 772 l 1,19,20
 1229 604 1229 604 1030 604 c 0,21,22
 924 604 924 604 838 643 c 1,23,24
 813 379 813 379 813 328 c 0,25,26
 813 223 813 223 866 180 c 128,-1,27
 919 137 919 137 1022 137 c 0,28,29
 1112 137 1112 137 1194 166 c 1,30,31
 1206 142 1206 142 1206 106 c 0,32,33
 1206 64 1206 64 1179 34 c 128,-1,34
 1152 4 1152 4 1108 -11.5 c 128,-1,35
 1064 -27 1064 -27 1019 -34 c 128,-1,36
 974 -41 974 -41 926 -41 c 0,37,38
 767 -41 767 -41 675.5 36 c 128,-1,39
 584 113 584 113 584 258 c 0,40,41
 584 312 584 312 590 362 c 1,42,-1
 274 362 l 1,5,6
657 1548 m 1,43,-1
 1137 1731 l 1,44,45
 1182 1702 1182 1702 1182 1638 c 0,46,47
 1182 1598 1182 1598 1164.5 1568 c 128,-1,48
 1147 1538 1147 1538 1122 1521.5 c 128,-1,49
 1097 1505 1097 1505 1057.5 1494 c 128,-1,50
 1018 1483 1018 1483 985.5 1479 c 128,-1,51
 953 1475 953 1475 909 1473 c 2,52,-1
 674 1460 l 1,53,-1
 657 1548 l 1,43,-1
EndSplineSet
Validated: 8388609
Position2: "'cpsp' Capital Spacing lookup 3 subtable" dx=10 dy=0 dh=20 dv=0
EndChar

StartChar: B
Encoding: 66 66 14
Width: 1118
Flags: MW
HStem: -41 41G<47 47> -18 141<427 554 427 569> 649 139<412 622> 1235 135<615 697>
VStem: 791 258<335 535 305 537> 809 256<1013 1123>
LayerCount: 2
Fore
SplineSet
311 137 m 1,0,1
 376 123 376 123 451 123 c 0,2,3
 607 123 607 123 699 205.5 c 128,-1,4
 791 288 791 288 791 430 c 0,5,6
 791 469 791 469 784 500.5 c 128,-1,7
 777 532 777 532 761.5 554.5 c 128,-1,8
 746 577 746 577 729 593 c 128,-1,9
 712 609 712 609 682.5 619.5 c 128,-1,10
 653 630 653 630 628 636 c 128,-1,11
 603 642 603 642 562 645 c 128,-1,12
 521 648 521 648 491 648.5 c 128,-1,13
 461 649 461 649 412 649 c 1,14,-1
 311 137 l 1,0,1
440 795 m 1,15,16
 491 788 491 788 535 788 c 0,17,18
 665 788 665 788 737 861.5 c 128,-1,19
 809 935 809 935 809 1063 c 0,20,21
 809 1154 809 1154 768.5 1194.5 c 128,-1,22
 728 1235 728 1235 637 1235 c 0,23,24
 585 1235 585 1235 524 1221 c 1,25,-1
 440 795 l 1,15,16
305 1352 m 1,26,27
 498 1370 498 1370 651 1370 c 0,28,29
 711 1370 711 1370 759 1366 c 128,-1,30
 807 1362 807 1362 856 1351.5 c 128,-1,31
 905 1341 905 1341 941 1321 c 128,-1,32
 977 1301 977 1301 1006 1271.5 c 128,-1,33
 1035 1242 1035 1242 1050 1197 c 128,-1,34
 1065 1152 1065 1152 1065 1094 c 0,35,36
 1065 869 1065 869 840 756 c 1,37,38
 1049 693 1049 693 1049 465 c 0,39,40
 1049 372 1049 372 1014.5 293 c 128,-1,41
 980 214 980 214 919.5 157 c 128,-1,42
 859 100 859 100 776 60.5 c 128,-1,43
 693 21 693 21 596 1.5 c 128,-1,44
 499 -18 499 -18 393 -18 c 0,45,46
 258 -18 258 -18 47 0 c 1,47,-1
 305 1352 l 1,26,27
EndSplineSet
Validated: 8388609
Position2: "'cpsp' Capital Spacing lookup 3 subtable" dx=10 dy=0 dh=20 dv=0
EndChar

StartChar: C
Encoding: 67 67 15
Width: 1048
Flags: MW
HStem: -41 199<449 582> 1247 145<566 749>
VStem: 55 258<386 609 386 667> 842 252<1083 1147>
LayerCount: 2
Fore
SplineSet
756 1393 m 0,0,1
 910 1393 910 1393 1002 1321.5 c 128,-1,2
 1094 1250 1094 1250 1094 1122 c 0,3,4
 1094 1025 1094 1025 1042.5 972.5 c 128,-1,5
 991 920 991 920 913 920 c 0,6,7
 841 920 841 920 813 952 c 1,8,9
 842 1034 842 1034 842 1104 c 0,10,11
 842 1170 842 1170 806 1208.5 c 128,-1,12
 770 1247 770 1247 702 1247 c 0,13,14
 624 1247 624 1247 557.5 1192.5 c 128,-1,15
 491 1138 491 1138 447 1053 c 128,-1,16
 403 968 403 968 372 863 c 128,-1,17
 341 758 341 758 327 658.5 c 128,-1,18
 313 559 313 559 313 473 c 0,19,20
 313 158 313 158 537 158 c 0,21,22
 643 158 643 158 718 220 c 128,-1,23
 793 282 793 282 854 393 c 1,24,25
 889 374 889 374 904.5 348.5 c 128,-1,26
 920 323 920 323 920 281 c 0,27,28
 920 188 920 188 854 113 c 128,-1,29
 788 38 788 38 685 -1.5 c 128,-1,30
 582 -41 582 -41 467 -41 c 0,31,32
 267 -41 267 -41 161 86.5 c 128,-1,33
 55 214 55 214 55 459 c 0,34,35
 55 565 55 565 74.5 673 c 128,-1,36
 94 781 94 781 131.5 886 c 128,-1,37
 169 991 169 991 229 1082.5 c 128,-1,38
 289 1174 289 1174 364.5 1243.5 c 128,-1,39
 440 1313 440 1313 541 1353 c 128,-1,40
 642 1393 642 1393 756 1393 c 0,0,1
EndSplineSet
Validated: 1
Position2: "'cpsp' Capital Spacing lookup 3 subtable" dx=10 dy=0 dh=20 dv=0
EndChar

StartChar: Cacute
Encoding: 262 262 16
Width: 1048
Flags: MW
HStem: -41 199<449 582> 1247 145<566 749>
VStem: 55 258<386 609 386 667> 842 252<1083 1147>
LayerCount: 2
Fore
SplineSet
756 1393 m 0,0,1
 910 1393 910 1393 1002 1321.5 c 128,-1,2
 1094 1250 1094 1250 1094 1122 c 0,3,4
 1094 1025 1094 1025 1042.5 972.5 c 128,-1,5
 991 920 991 920 913 920 c 0,6,7
 841 920 841 920 813 952 c 1,8,9
 842 1034 842 1034 842 1104 c 0,10,11
 842 1170 842 1170 806 1208.5 c 128,-1,12
 770 1247 770 1247 702 1247 c 0,13,14
 624 1247 624 1247 557.5 1192.5 c 128,-1,15
 491 1138 491 1138 447 1053 c 128,-1,16
 403 968 403 968 372 863 c 128,-1,17
 341 758 341 758 327 658.5 c 128,-1,18
 313 559 313 559 313 473 c 0,19,20
 313 158 313 158 537 158 c 0,21,22
 643 158 643 158 718 220 c 128,-1,23
 793 282 793 282 854 393 c 1,24,25
 889 374 889 374 904.5 348.5 c 128,-1,26
 920 323 920 323 920 281 c 0,27,28
 920 188 920 188 854 113 c 128,-1,29
 788 38 788 38 685 -1.5 c 128,-1,30
 582 -41 582 -41 467 -41 c 0,31,32
 267 -41 267 -41 161 86.5 c 128,-1,33
 55 214 55 214 55 459 c 0,34,35
 55 565 55 565 74.5 673 c 128,-1,36
 94 781 94 781 131.5 886 c 128,-1,37
 169 991 169 991 229 1082.5 c 128,-1,38
 289 1174 289 1174 364.5 1243.5 c 128,-1,39
 440 1313 440 1313 541 1353 c 128,-1,40
 642 1393 642 1393 756 1393 c 0,0,1
596 1548 m 1,41,-1
 1075 1731 l 1,42,43
 1120 1702 1120 1702 1120 1638 c 0,44,45
 1120 1598 1120 1598 1103 1568 c 128,-1,46
 1086 1538 1086 1538 1060.5 1521.5 c 128,-1,47
 1035 1505 1035 1505 996 1494 c 128,-1,48
 957 1483 957 1483 924.5 1479 c 128,-1,49
 892 1475 892 1475 848 1473 c 2,50,-1
 612 1460 l 1,51,-1
 596 1548 l 1,41,-1
EndSplineSet
Validated: 1
Substitution2: "'locl' Localized Forms in Latin lookup 13 subtable" Cacute.loclPLK
Substitution2: "'aalt' Access All Alternates lookup 0 subtable" Cacute.loclPLK
Position2: "'cpsp' Capital Spacing lookup 3 subtable" dx=10 dy=0 dh=20 dv=0
EndChar

StartChar: Ccaron
Encoding: 268 268 17
Width: 1048
Flags: MW
HStem: -41 199<449 582> 1247 145<566 749>
VStem: 55 258<386 609 386 667> 842 252<1083 1147>
LayerCount: 2
Fore
SplineSet
756 1393 m 0,0,1
 910 1393 910 1393 1002 1321.5 c 128,-1,2
 1094 1250 1094 1250 1094 1122 c 0,3,4
 1094 1025 1094 1025 1042.5 972.5 c 128,-1,5
 991 920 991 920 913 920 c 0,6,7
 841 920 841 920 813 952 c 1,8,9
 842 1034 842 1034 842 1104 c 0,10,11
 842 1170 842 1170 806 1208.5 c 128,-1,12
 770 1247 770 1247 702 1247 c 0,13,14
 624 1247 624 1247 557.5 1192.5 c 128,-1,15
 491 1138 491 1138 447 1053 c 128,-1,16
 403 968 403 968 372 863 c 128,-1,17
 341 758 341 758 327 658.5 c 128,-1,18
 313 559 313 559 313 473 c 0,19,20
 313 158 313 158 537 158 c 0,21,22
 643 158 643 158 718 220 c 128,-1,23
 793 282 793 282 854 393 c 1,24,25
 889 374 889 374 904.5 348.5 c 128,-1,26
 920 323 920 323 920 281 c 0,27,28
 920 188 920 188 854 113 c 128,-1,29
 788 38 788 38 685 -1.5 c 128,-1,30
 582 -41 582 -41 467 -41 c 0,31,32
 267 -41 267 -41 161 86.5 c 128,-1,33
 55 214 55 214 55 459 c 0,34,35
 55 565 55 565 74.5 673 c 128,-1,36
 94 781 94 781 131.5 886 c 128,-1,37
 169 991 169 991 229 1082.5 c 128,-1,38
 289 1174 289 1174 364.5 1243.5 c 128,-1,39
 440 1313 440 1313 541 1353 c 128,-1,40
 642 1393 642 1393 756 1393 c 0,0,1
569 1714 m 1,41,-1
 782 1608 l 1,42,-1
 1049 1714 l 1,43,-1
 1104 1634 l 1,44,-1
 770 1417 l 1,45,-1
 758 1417 l 1,46,-1
 487 1636 l 1,47,-1
 569 1714 l 1,41,-1
EndSplineSet
Validated: 1
Position2: "'cpsp' Capital Spacing lookup 3 subtable" dx=10 dy=0 dh=20 dv=0
EndChar

StartChar: Ccedilla
Encoding: 199 199 18
Width: 1048
Flags: MW
HStem: -518 109<444 508 444 577> -227 96<452 652> -41 199<446 612> 1247 145<566 749>
VStem: 55 258<386 609> 627 170<-351 -278> 842 252<1083 1147>
LayerCount: 2
Fore
SplineSet
446 -41 m 1,0,1
 255 -33 255 -33 155 94 c 128,-1,2
 55 221 55 221 55 459 c 0,3,4
 55 565 55 565 74.5 673 c 128,-1,5
 94 781 94 781 131.5 886 c 128,-1,6
 169 991 169 991 229 1082.5 c 128,-1,7
 289 1174 289 1174 364.5 1243.5 c 128,-1,8
 440 1313 440 1313 541 1353 c 128,-1,9
 642 1393 642 1393 756 1393 c 0,10,11
 910 1393 910 1393 1002 1321.5 c 128,-1,12
 1094 1250 1094 1250 1094 1122 c 0,13,14
 1094 1025 1094 1025 1042.5 972.5 c 128,-1,15
 991 920 991 920 913 920 c 0,16,17
 841 920 841 920 813 952 c 1,18,19
 842 1034 842 1034 842 1104 c 0,20,21
 842 1170 842 1170 806 1208.5 c 128,-1,22
 770 1247 770 1247 702 1247 c 0,23,24
 624 1247 624 1247 557.5 1192.5 c 128,-1,25
 491 1138 491 1138 447 1053 c 128,-1,26
 403 968 403 968 372 863 c 128,-1,27
 341 758 341 758 327 658.5 c 128,-1,28
 313 559 313 559 313 473 c 0,29,30
 313 158 313 158 537 158 c 0,31,32
 643 158 643 158 718 220 c 128,-1,33
 793 282 793 282 854 393 c 1,34,35
 889 374 889 374 904.5 348.5 c 128,-1,36
 920 323 920 323 920 281 c 0,37,38
 920 158 920 158 810.5 71 c 128,-1,39
 701 -16 701 -16 543 -37 c 1,40,-1
 514 -135 l 1,41,42
 554 -131 554 -131 596 -131 c 0,43,44
 687 -131 687 -131 742 -169.5 c 128,-1,45
 797 -208 797 -208 797 -287 c 0,46,47
 797 -387 797 -387 709 -452.5 c 128,-1,48
 621 -518 621 -518 489 -518 c 0,49,50
 409 -518 409 -518 361 -492 c 128,-1,51
 313 -466 313 -466 313 -420 c 0,52,53
 313 -375 313 -375 346 -352 c 1,54,55
 382 -410 382 -410 475 -410 c 0,56,57
 536 -410 536 -410 581.5 -387.5 c 128,-1,58
 627 -365 627 -365 627 -311 c 0,59,60
 627 -227 627 -227 465 -227 c 0,61,62
 443 -227 443 -227 389 -231 c 1,63,-1
 446 -41 l 1,0,1
EndSplineSet
Validated: 1
Position2: "'cpsp' Capital Spacing lookup 3 subtable" dx=10 dy=0 dh=20 dv=0
EndChar

StartChar: Ccircumflex
Encoding: 264 264 19
Width: 1048
Flags: MW
HStem: -41 199<449 582> 1247 145<566 749>
VStem: 55 258<386 609 386 667> 842 252<1083 1147>
LayerCount: 2
Fore
SplineSet
756 1393 m 0,0,1
 910 1393 910 1393 1002 1321.5 c 128,-1,2
 1094 1250 1094 1250 1094 1122 c 0,3,4
 1094 1025 1094 1025 1042.5 972.5 c 128,-1,5
 991 920 991 920 913 920 c 0,6,7
 841 920 841 920 813 952 c 1,8,9
 842 1034 842 1034 842 1104 c 0,10,11
 842 1170 842 1170 806 1208.5 c 128,-1,12
 770 1247 770 1247 702 1247 c 0,13,14
 624 1247 624 1247 557.5 1192.5 c 128,-1,15
 491 1138 491 1138 447 1053 c 128,-1,16
 403 968 403 968 372 863 c 128,-1,17
 341 758 341 758 327 658.5 c 128,-1,18
 313 559 313 559 313 473 c 0,19,20
 313 158 313 158 537 158 c 0,21,22
 643 158 643 158 718 220 c 128,-1,23
 793 282 793 282 854 393 c 1,24,25
 889 374 889 374 904.5 348.5 c 128,-1,26
 920 323 920 323 920 281 c 0,27,28
 920 188 920 188 854 113 c 128,-1,29
 788 38 788 38 685 -1.5 c 128,-1,30
 582 -41 582 -41 467 -41 c 0,31,32
 267 -41 267 -41 161 86.5 c 128,-1,33
 55 214 55 214 55 459 c 0,34,35
 55 565 55 565 74.5 673 c 128,-1,36
 94 781 94 781 131.5 886 c 128,-1,37
 169 991 169 991 229 1082.5 c 128,-1,38
 289 1174 289 1174 364.5 1243.5 c 128,-1,39
 440 1313 440 1313 541 1353 c 128,-1,40
 642 1393 642 1393 756 1393 c 0,0,1
969 1380 m 1,41,-1
 754 1528 l 1,42,-1
 487 1380 l 1,43,-1
 432 1481 l 1,44,-1
 766 1718 l 1,45,-1
 780 1718 l 1,46,-1
 1051 1479 l 1,47,-1
 969 1380 l 1,41,-1
EndSplineSet
Validated: 1
Position2: "'cpsp' Capital Spacing lookup 3 subtable" dx=10 dy=0 dh=20 dv=0
EndChar

StartChar: Cdotaccent
Encoding: 266 266 20
Width: 1048
Flags: MW
HStem: -41 199<449 582> 1247 145<566 749> 1489 258<723 803>
VStem: 55 258<386 609 386 667> 610 307<1576 1660> 842 252<1083 1147>
LayerCount: 2
Fore
SplineSet
756 1393 m 0,0,1
 910 1393 910 1393 1002 1321.5 c 128,-1,2
 1094 1250 1094 1250 1094 1122 c 0,3,4
 1094 1025 1094 1025 1042.5 972.5 c 128,-1,5
 991 920 991 920 913 920 c 0,6,7
 841 920 841 920 813 952 c 1,8,9
 842 1034 842 1034 842 1104 c 0,10,11
 842 1170 842 1170 806 1208.5 c 128,-1,12
 770 1247 770 1247 702 1247 c 0,13,14
 624 1247 624 1247 557.5 1192.5 c 128,-1,15
 491 1138 491 1138 447 1053 c 128,-1,16
 403 968 403 968 372 863 c 128,-1,17
 341 758 341 758 327 658.5 c 128,-1,18
 313 559 313 559 313 473 c 0,19,20
 313 158 313 158 537 158 c 0,21,22
 643 158 643 158 718 220 c 128,-1,23
 793 282 793 282 854 393 c 1,24,25
 889 374 889 374 904.5 348.5 c 128,-1,26
 920 323 920 323 920 281 c 0,27,28
 920 188 920 188 854 113 c 128,-1,29
 788 38 788 38 685 -1.5 c 128,-1,30
 582 -41 582 -41 467 -41 c 0,31,32
 267 -41 267 -41 161 86.5 c 128,-1,33
 55 214 55 214 55 459 c 0,34,35
 55 565 55 565 74.5 673 c 128,-1,36
 94 781 94 781 131.5 886 c 128,-1,37
 169 991 169 991 229 1082.5 c 128,-1,38
 289 1174 289 1174 364.5 1243.5 c 128,-1,39
 440 1313 440 1313 541 1353 c 128,-1,40
 642 1393 642 1393 756 1393 c 0,0,1
766 1747 m 0,41,42
 833 1747 833 1747 875.5 1714 c 128,-1,43
 918 1681 918 1681 918 1620 c 0,44,45
 918 1557 918 1557 873 1523 c 128,-1,46
 828 1489 828 1489 760 1489 c 0,47,48
 693 1489 693 1489 651.5 1522 c 128,-1,49
 610 1555 610 1555 610 1616 c 0,50,51
 610 1679 610 1679 654 1713 c 128,-1,52
 698 1747 698 1747 766 1747 c 0,41,42
EndSplineSet
Validated: 8388609
Position2: "'cpsp' Capital Spacing lookup 3 subtable" dx=10 dy=0 dh=20 dv=0
EndChar

StartChar: D
Encoding: 68 68 21
Width: 1224
Flags: MW
HStem: -41 41G<43 43> -18 141<455 585 455 675> 1227 143<646 756>
VStem: 909 258<885 1039>
LayerCount: 2
Fore
SplineSet
309 137 m 1,0,1
 391 123 391 123 475 123 c 0,2,3
 554 123 554 123 617.5 155 c 128,-1,4
 681 187 681 187 725 246.5 c 128,-1,5
 769 306 769 306 798.5 375.5 c 128,-1,6
 828 445 828 445 850 535 c 0,7,8
 873 625 873 625 891 742.5 c 128,-1,9
 909 860 909 860 909 948 c 0,10,11
 909 1089 909 1089 853 1158 c 128,-1,12
 797 1227 797 1227 666 1227 c 0,13,14
 608 1227 608 1227 520 1212 c 1,15,-1
 309 137 l 1,0,1
305 1352 m 1,16,17
 535 1370 535 1370 692 1370 c 0,18,19
 826 1370 826 1370 918 1341.5 c 128,-1,20
 1010 1313 1010 1313 1065 1252 c 128,-1,21
 1120 1191 1120 1191 1143.5 1104 c 128,-1,22
 1167 1017 1167 1017 1167 893 c 0,23,24
 1167 752 1167 752 1139.5 621.5 c 128,-1,25
 1112 491 1112 491 1052 374 c 128,-1,26
 992 257 992 257 905.5 170.5 c 128,-1,27
 819 84 819 84 692 33 c 128,-1,28
 565 -18 565 -18 412 -18 c 0,29,30
 264 -18 264 -18 43 0 c 1,31,-1
 305 1352 l 1,16,17
EndSplineSet
Validated: 8388609
Position2: "'cpsp' Capital Spacing lookup 3 subtable" dx=10 dy=0 dh=20 dv=0
EndChar

StartChar: DZ
Encoding: 497 497 22
Width: 2144
Flags: MW
HStem: -41 41G<43 43> -31 209<1751 1862 1748 1892> -18 141<455 585 455 675> 1174 209<1544 1653 1512 1658> 1227 143<646 756> 1311 41G<305 305>
VStem: 909 258<885 1039>
LayerCount: 2
Fore
SplineSet
309 137 m 1,0,1
 391 123 391 123 475 123 c 0,2,3
 554 123 554 123 617.5 155 c 128,-1,4
 681 187 681 187 725 246.5 c 128,-1,5
 769 306 769 306 798.5 375.5 c 128,-1,6
 828 445 828 445 850 535 c 0,7,8
 873 625 873 625 891 742.5 c 128,-1,9
 909 860 909 860 909 948 c 0,10,11
 909 1089 909 1089 853 1158 c 128,-1,12
 797 1227 797 1227 666 1227 c 0,13,14
 608 1227 608 1227 520 1212 c 1,15,-1
 309 137 l 1,0,1
305 1352 m 1,16,17
 535 1370 535 1370 692 1370 c 0,18,19
 826 1370 826 1370 918 1341.5 c 128,-1,20
 1010 1313 1010 1313 1065 1252 c 128,-1,21
 1120 1191 1120 1191 1143.5 1104 c 128,-1,22
 1167 1017 1167 1017 1167 893 c 0,23,24
 1167 752 1167 752 1139.5 621.5 c 128,-1,25
 1112 491 1112 491 1052 374 c 128,-1,26
 992 257 992 257 905.5 170.5 c 128,-1,27
 819 84 819 84 692 33 c 128,-1,28
 565 -18 565 -18 412 -18 c 0,29,30
 264 -18 264 -18 43 0 c 1,31,-1
 305 1352 l 1,16,17
1931 1137 m 1,32,33
 1738 1174 1738 1174 1595 1174 c 0,34,35
 1451 1174 1451 1174 1374 1128 c 1,36,37
 1348 1175 1348 1175 1348 1233 c 0,38,39
 1348 1382 1348 1382 1573 1382 c 0,40,41
 1655 1382 1655 1382 1809 1354.5 c 128,-1,42
 1963 1327 1963 1327 2032 1327 c 0,43,44
 2114 1327 2114 1327 2177 1352 c 1,45,46
 2199 1333 2199 1333 2213.5 1301 c 128,-1,47
 2228 1269 2228 1269 2228 1237 c 0,48,49
 2228 1186 2228 1186 2200 1155 c 1,50,-1
 1458 215 l 1,51,52
 1647 178 1647 178 1810 178 c 0,53,54
 1957 178 1957 178 2032 223 c 1,55,56
 2058 176 2058 176 2058 121 c 0,57,58
 2058 -31 2058 -31 1831 -31 c 0,59,60
 1749 -31 1749 -31 1585 -3 c 128,-1,61
 1421 25 1421 25 1352 25 c 0,62,63
 1270 25 1270 25 1208 0 c 1,64,65
 1186 19 1186 19 1171.5 51.5 c 128,-1,66
 1157 84 1157 84 1157 117 c 0,67,68
 1157 169 1157 169 1192 207 c 1,69,-1
 1931 1137 l 1,32,33
EndSplineSet
Validated: 8388609
Position2: "'cpsp' Capital Spacing lookup 3 subtable" dx=10 dy=0 dh=20 dv=0
EndChar

StartChar: DZcaron
Encoding: 452 452 23
Width: 2144
Flags: MW
HStem: -41 41G<43 43> -31 209<1751 1862 1748 1892> -18 141<455 585 455 675> 1174 209<1544 1653 1512 1658> 1227 143<646 756> 1311 41G<305 305>
VStem: 909 258<885 1039>
LayerCount: 2
Fore
SplineSet
309 137 m 1,0,1
 391 123 391 123 475 123 c 0,2,3
 554 123 554 123 617.5 155 c 128,-1,4
 681 187 681 187 725 246.5 c 128,-1,5
 769 306 769 306 798.5 375.5 c 128,-1,6
 828 445 828 445 850 535 c 0,7,8
 873 625 873 625 891 742.5 c 128,-1,9
 909 860 909 860 909 948 c 0,10,11
 909 1089 909 1089 853 1158 c 128,-1,12
 797 1227 797 1227 666 1227 c 0,13,14
 608 1227 608 1227 520 1212 c 1,15,-1
 309 137 l 1,0,1
305 1352 m 1,16,17
 535 1370 535 1370 692 1370 c 0,18,19
 826 1370 826 1370 918 1341.5 c 128,-1,20
 1010 1313 1010 1313 1065 1252 c 128,-1,21
 1120 1191 1120 1191 1143.5 1104 c 128,-1,22
 1167 1017 1167 1017 1167 893 c 0,23,24
 1167 752 1167 752 1139.5 621.5 c 128,-1,25
 1112 491 1112 491 1052 374 c 128,-1,26
 992 257 992 257 905.5 170.5 c 128,-1,27
 819 84 819 84 692 33 c 128,-1,28
 565 -18 565 -18 412 -18 c 0,29,30
 264 -18 264 -18 43 0 c 1,31,-1
 305 1352 l 1,16,17
1931 1137 m 1,32,33
 1738 1174 1738 1174 1595 1174 c 0,34,35
 1451 1174 1451 1174 1374 1128 c 1,36,37
 1348 1175 1348 1175 1348 1233 c 0,38,39
 1348 1382 1348 1382 1573 1382 c 0,40,41
 1655 1382 1655 1382 1809 1354.5 c 128,-1,42
 1963 1327 1963 1327 2032 1327 c 0,43,44
 2114 1327 2114 1327 2177 1352 c 1,45,46
 2199 1333 2199 1333 2213.5 1301 c 128,-1,47
 2228 1269 2228 1269 2228 1237 c 0,48,49
 2228 1186 2228 1186 2200 1155 c 1,50,-1
 1458 215 l 1,51,52
 1647 178 1647 178 1810 178 c 0,53,54
 1957 178 1957 178 2032 223 c 1,55,56
 2058 176 2058 176 2058 121 c 0,57,58
 2058 -31 2058 -31 1831 -31 c 0,59,60
 1749 -31 1749 -31 1585 -3 c 128,-1,61
 1421 25 1421 25 1352 25 c 0,62,63
 1270 25 1270 25 1208 0 c 1,64,65
 1186 19 1186 19 1171.5 51.5 c 128,-1,66
 1157 84 1157 84 1157 117 c 0,67,68
 1157 169 1157 169 1192 207 c 1,69,-1
 1931 1137 l 1,32,33
1614 1714 m 1,70,-1
 1827 1608 l 1,71,-1
 2093 1714 l 1,72,-1
 2148 1634 l 1,73,-1
 1815 1417 l 1,74,-1
 1802 1417 l 1,75,-1
 1532 1636 l 1,76,-1
 1614 1714 l 1,70,-1
EndSplineSet
Validated: 8388609
Position2: "'cpsp' Capital Spacing lookup 3 subtable" dx=10 dy=0 dh=20 dv=0
EndChar

StartChar: Eth
Encoding: 208 208 24
Width: 1224
Flags: MW
HStem: -41 41G<43 43> -18 141<455 585 455 675> 604 147<121 160 10 188 430 616> 1227 143<646 756>
VStem: 909 258<885 1039>
LayerCount: 2
Fore
SplineSet
309 137 m 1,0,1
 391 123 391 123 475 123 c 0,2,3
 554 123 554 123 617.5 155 c 128,-1,4
 681 187 681 187 725 246.5 c 128,-1,5
 769 306 769 306 798.5 375.5 c 128,-1,6
 828 445 828 445 850 535 c 0,7,8
 873 625 873 625 891 742.5 c 128,-1,9
 909 860 909 860 909 948 c 0,10,11
 909 1089 909 1089 853 1158 c 128,-1,12
 797 1227 797 1227 666 1227 c 0,13,14
 608 1227 608 1227 520 1212 c 1,15,-1
 430 752 l 1,16,-1
 739 752 l 1,17,18
 745 731 745 731 745 702 c 0,19,20
 745 604 745 604 616 604 c 2,21,-1
 401 604 l 1,22,-1
 309 137 l 1,0,1
305 1352 m 1,23,24
 535 1370 535 1370 692 1370 c 0,25,26
 826 1370 826 1370 918 1341.5 c 128,-1,27
 1010 1313 1010 1313 1065 1252 c 128,-1,28
 1120 1191 1120 1191 1143.5 1104 c 128,-1,29
 1167 1017 1167 1017 1167 893 c 0,30,31
 1167 752 1167 752 1139.5 621.5 c 128,-1,32
 1112 491 1112 491 1052 374 c 128,-1,33
 992 257 992 257 905.5 170.5 c 128,-1,34
 819 84 819 84 692 33 c 128,-1,35
 565 -18 565 -18 412 -18 c 0,36,37
 264 -18 264 -18 43 0 c 1,38,-1
 160 604 l 1,39,-1
 10 604 l 1,40,41
 6 620 6 620 6 653 c 1,42,43
 8 701 8 701 37 726.5 c 128,-1,44
 66 752 66 752 121 752 c 2,45,-1
 188 752 l 1,46,-1
 305 1352 l 1,23,24
EndSplineSet
Validated: 8388609
Position2: "'cpsp' Capital Spacing lookup 3 subtable" dx=10 dy=0 dh=20 dv=0
EndChar

StartChar: Dcaron
Encoding: 270 270 25
Width: 1224
Flags: MW
HStem: -41 41G<43 43> -18 141<455 585 455 675> 1227 143<646 756>
VStem: 909 258<885 1039>
LayerCount: 2
Fore
SplineSet
309 137 m 1,0,1
 391 123 391 123 475 123 c 0,2,3
 554 123 554 123 617.5 155 c 128,-1,4
 681 187 681 187 725 246.5 c 128,-1,5
 769 306 769 306 798.5 375.5 c 128,-1,6
 828 445 828 445 850 535 c 0,7,8
 873 625 873 625 891 742.5 c 128,-1,9
 909 860 909 860 909 948 c 0,10,11
 909 1089 909 1089 853 1158 c 128,-1,12
 797 1227 797 1227 666 1227 c 0,13,14
 608 1227 608 1227 520 1212 c 1,15,-1
 309 137 l 1,0,1
305 1352 m 1,16,17
 535 1370 535 1370 692 1370 c 0,18,19
 826 1370 826 1370 918 1341.5 c 128,-1,20
 1010 1313 1010 1313 1065 1252 c 128,-1,21
 1120 1191 1120 1191 1143.5 1104 c 128,-1,22
 1167 1017 1167 1017 1167 893 c 0,23,24
 1167 752 1167 752 1139.5 621.5 c 128,-1,25
 1112 491 1112 491 1052 374 c 128,-1,26
 992 257 992 257 905.5 170.5 c 128,-1,27
 819 84 819 84 692 33 c 128,-1,28
 565 -18 565 -18 412 -18 c 0,29,30
 264 -18 264 -18 43 0 c 1,31,-1
 305 1352 l 1,16,17
549 1714 m 1,32,-1
 762 1608 l 1,33,-1
 1028 1714 l 1,34,-1
 1083 1634 l 1,35,-1
 750 1417 l 1,36,-1
 737 1417 l 1,37,-1
 467 1636 l 1,38,-1
 549 1714 l 1,32,-1
EndSplineSet
Validated: 8388609
Position2: "'cpsp' Capital Spacing lookup 3 subtable" dx=10 dy=0 dh=20 dv=0
EndChar

StartChar: Dcroat
Encoding: 272 272 26
Width: 1224
Flags: MW
HStem: -41 41G<43 43> -18 141<455 585 455 675> 604 147<121 160 10 188 430 616> 1227 143<646 756>
VStem: 909 258<885 1039>
LayerCount: 2
Fore
SplineSet
309 137 m 1,0,1
 391 123 391 123 475 123 c 0,2,3
 554 123 554 123 617.5 155 c 128,-1,4
 681 187 681 187 725 246.5 c 128,-1,5
 769 306 769 306 798.5 375.5 c 128,-1,6
 828 445 828 445 850 535 c 0,7,8
 873 625 873 625 891 742.5 c 128,-1,9
 909 860 909 860 909 948 c 0,10,11
 909 1089 909 1089 853 1158 c 128,-1,12
 797 1227 797 1227 666 1227 c 0,13,14
 608 1227 608 1227 520 1212 c 1,15,-1
 430 752 l 1,16,-1
 739 752 l 1,17,18
 745 731 745 731 745 702 c 0,19,20
 745 604 745 604 616 604 c 2,21,-1
 401 604 l 1,22,-1
 309 137 l 1,0,1
305 1352 m 1,23,24
 535 1370 535 1370 692 1370 c 0,25,26
 826 1370 826 1370 918 1341.5 c 128,-1,27
 1010 1313 1010 1313 1065 1252 c 128,-1,28
 1120 1191 1120 1191 1143.5 1104 c 128,-1,29
 1167 1017 1167 1017 1167 893 c 0,30,31
 1167 752 1167 752 1139.5 621.5 c 128,-1,32
 1112 491 1112 491 1052 374 c 128,-1,33
 992 257 992 257 905.5 170.5 c 128,-1,34
 819 84 819 84 692 33 c 128,-1,35
 565 -18 565 -18 412 -18 c 0,36,37
 264 -18 264 -18 43 0 c 1,38,-1
 160 604 l 1,39,-1
 10 604 l 1,40,41
 6 620 6 620 6 653 c 1,42,43
 8 701 8 701 37 726.5 c 128,-1,44
 66 752 66 752 121 752 c 2,45,-1
 188 752 l 1,46,-1
 305 1352 l 1,23,24
EndSplineSet
Validated: 8388609
Position2: "'cpsp' Capital Spacing lookup 3 subtable" dx=10 dy=0 dh=20 dv=0
EndChar

StartChar: Ddotbelow
Encoding: 7692 7692 27
Width: 1224
Flags: MW
HStem: -369 258<371 451> -41 41G<43 43> -18 141<455 585 455 675> 1227 143<646 756>
VStem: 258 305<-282 -198> 909 258<885 1039>
LayerCount: 2
Fore
SplineSet
414 -111 m 0,0,1
 481 -111 481 -111 522 -144 c 128,-1,2
 563 -177 563 -177 563 -238 c 0,3,4
 563 -301 563 -301 519.5 -335 c 128,-1,5
 476 -369 476 -369 408 -369 c 0,6,7
 341 -369 341 -369 299.5 -336 c 128,-1,8
 258 -303 258 -303 258 -242 c 0,9,10
 258 -179 258 -179 302 -145 c 128,-1,11
 346 -111 346 -111 414 -111 c 0,0,1
309 137 m 1,12,13
 391 123 391 123 475 123 c 0,14,15
 554 123 554 123 617.5 155 c 128,-1,16
 681 187 681 187 725 246.5 c 128,-1,17
 769 306 769 306 798.5 375.5 c 128,-1,18
 828 445 828 445 850 535 c 0,19,20
 873 625 873 625 891 742.5 c 128,-1,21
 909 860 909 860 909 948 c 0,22,23
 909 1089 909 1089 853 1158 c 128,-1,24
 797 1227 797 1227 666 1227 c 0,25,26
 608 1227 608 1227 520 1212 c 1,27,-1
 309 137 l 1,12,13
305 1352 m 1,28,29
 535 1370 535 1370 692 1370 c 0,30,31
 826 1370 826 1370 918 1341.5 c 128,-1,32
 1010 1313 1010 1313 1065 1252 c 128,-1,33
 1120 1191 1120 1191 1143.5 1104 c 128,-1,34
 1167 1017 1167 1017 1167 893 c 0,35,36
 1167 752 1167 752 1139.5 621.5 c 128,-1,37
 1112 491 1112 491 1052 374 c 128,-1,38
 992 257 992 257 905.5 170.5 c 128,-1,39
 819 84 819 84 692 33 c 128,-1,40
 565 -18 565 -18 412 -18 c 0,41,42
 264 -18 264 -18 43 0 c 1,43,-1
 305 1352 l 1,28,29
EndSplineSet
Validated: 8388609
Position2: "'cpsp' Capital Spacing lookup 3 subtable" dx=10 dy=0 dh=20 dv=0
EndChar

StartChar: Dz
Encoding: 498 498 28
Width: 2035
Flags: MW
HStem: -41 41G<43 43> -33 197<1727 1793 1727 1815> -18 141<455 585 455 675> 887 197<1493 1556> 1016 41G 1227 143<646 756>
VStem: 909 258<885 1039>
LayerCount: 2
Fore
SplineSet
1821 856 m 1,0,1
 1760 869 1760 869 1668.5 878 c 128,-1,2
 1577 887 1577 887 1524 887 c 0,3,4
 1420 887 1420 887 1366 831 c 1,5,6
 1329 881 1329 881 1329 944 c 0,7,8
 1329 1017 1329 1017 1384.5 1050 c 128,-1,9
 1440 1083 1440 1083 1530 1083 c 0,10,11
 1592 1083 1592 1083 1725.5 1059.5 c 128,-1,12
 1859 1036 1859 1036 1923 1036 c 0,13,14
 1993.5 1036 1993.5 1036 2034 1057 c 1,15,16
 2071 1020 2071 1020 2071 967 c 0,17,18
 2071 890 2071 890 2009 821 c 2,19,-1
 1450 197 l 1,20,21
 1511 184 1511 184 1608.5 174 c 128,-1,22
 1706 164 1706 164 1763 164 c 0,23,24
 1878 164 1878 164 1931 219 c 1,25,26
 1968 169 1968 169 1968 109 c 0,27,28
 1968 -33 1968 -33 1759 -33 c 0,29,30
 1691 -33 1691 -33 1557.5 -8.5 c 128,-1,31
 1424 16 1424 16 1364 16 c 0,32,33
 1293 16 1293 16 1251 -6 c 1,34,35
 1230 6 1230 6 1216 39.5 c 128,-1,36
 1202 73 1202 73 1202 111 c 0,37,38
 1202 198 1202 198 1278 281 c 1,39,-1
 1821 856 l 1,0,1
309 137 m 1,40,41
 391 123 391 123 475 123 c 0,42,43
 554 123 554 123 617.5 155 c 128,-1,44
 681 187 681 187 725 246.5 c 128,-1,45
 769 306 769 306 798.5 375.5 c 128,-1,46
 828 445 828 445 850 535 c 0,47,48
 873 625 873 625 891 742.5 c 128,-1,49
 909 860 909 860 909 948 c 0,50,51
 909 1089 909 1089 853 1158 c 128,-1,52
 797 1227 797 1227 666 1227 c 0,53,54
 608 1227 608 1227 520 1212 c 1,55,-1
 309 137 l 1,40,41
305 1352 m 1,56,57
 535 1370 535 1370 692 1370 c 0,58,59
 826 1370 826 1370 918 1341.5 c 128,-1,60
 1010 1313 1010 1313 1065 1252 c 128,-1,61
 1120 1191 1120 1191 1143.5 1104 c 128,-1,62
 1167 1017 1167 1017 1167 893 c 0,63,64
 1167 752 1167 752 1139.5 621.5 c 128,-1,65
 1112 491 1112 491 1052 374 c 128,-1,66
 992 257 992 257 905.5 170.5 c 128,-1,67
 819 84 819 84 692 33 c 128,-1,68
 565 -18 565 -18 412 -18 c 0,69,70
 264 -18 264 -18 43 0 c 1,71,-1
 305 1352 l 1,56,57
EndSplineSet
Validated: 8912897
Position2: "'cpsp' Capital Spacing lookup 3 subtable" dx=10 dy=0 dh=20 dv=0
EndChar

StartChar: Dzcaron
Encoding: 453 453 29
Width: 2035
Flags: MW
HStem: -41 41G<43 43> -33 197<1727 1793 1727 1815> -18 141<455 585 455 675> 887 197<1493 1556> 1016 41G 1227 143<646 756> 1329 41
VStem: 909 258<885 1039>
LayerCount: 2
Fore
SplineSet
1821 856 m 1,0,1
 1760 869 1760 869 1668.5 878 c 128,-1,2
 1577 887 1577 887 1524 887 c 0,3,4
 1420 887 1420 887 1366 831 c 1,5,6
 1329 881 1329 881 1329 944 c 0,7,8
 1329 1017 1329 1017 1384.5 1050 c 128,-1,9
 1440 1083 1440 1083 1530 1083 c 0,10,11
 1592 1083 1592 1083 1725.5 1059.5 c 128,-1,12
 1859 1036 1859 1036 1923 1036 c 0,13,14
 1993.5 1036 1993.5 1036 2034 1057 c 1,15,16
 2071 1020 2071 1020 2071 967 c 0,17,18
 2071 890 2071 890 2009 821 c 2,19,-1
 1450 197 l 1,20,21
 1511 184 1511 184 1608.5 174 c 128,-1,22
 1706 164 1706 164 1763 164 c 0,23,24
 1878 164 1878 164 1931 219 c 1,25,26
 1968 169 1968 169 1968 109 c 0,27,28
 1968 -33 1968 -33 1759 -33 c 0,29,30
 1691 -33 1691 -33 1557.5 -8.5 c 128,-1,31
 1424 16 1424 16 1364 16 c 0,32,33
 1293 16 1293 16 1251 -6 c 1,34,35
 1230 6 1230 6 1216 39.5 c 128,-1,36
 1202 73 1202 73 1202 111 c 0,37,38
 1202 198 1202 198 1278 281 c 1,39,-1
 1821 856 l 1,0,1
309 137 m 1,40,41
 391 123 391 123 475 123 c 0,42,43
 554 123 554 123 617.5 155 c 128,-1,44
 681 187 681 187 725 246.5 c 128,-1,45
 769 306 769 306 798.5 375.5 c 128,-1,46
 828 445 828 445 850 535 c 0,47,48
 873 625 873 625 891 742.5 c 128,-1,49
 909 860 909 860 909 948 c 0,50,51
 909 1089 909 1089 853 1158 c 128,-1,52
 797 1227 797 1227 666 1227 c 0,53,54
 608 1227 608 1227 520 1212 c 1,55,-1
 309 137 l 1,40,41
305 1352 m 1,56,57
 535 1370 535 1370 692 1370 c 0,58,59
 826 1370 826 1370 918 1341.5 c 128,-1,60
 1010 1313 1010 1313 1065 1252 c 128,-1,61
 1120 1191 1120 1191 1143.5 1104 c 128,-1,62
 1167 1017 1167 1017 1167 893 c 0,63,64
 1167 752 1167 752 1139.5 621.5 c 128,-1,65
 1112 491 1112 491 1052 374 c 128,-1,66
 992 257 992 257 905.5 170.5 c 128,-1,67
 819 84 819 84 692 33 c 128,-1,68
 565 -18 565 -18 412 -18 c 0,69,70
 264 -18 264 -18 43 0 c 1,71,-1
 305 1352 l 1,56,57
1563 1407 m 1,72,-1
 1776 1300 l 1,73,-1
 2042 1407 l 1,74,-1
 2097 1327 l 1,75,-1
 1763 1110 l 1,76,-1
 1751 1110 l 1,77,-1
 1481 1329 l 1,78,-1
 1563 1407 l 1,72,-1
EndSplineSet
Validated: 8912897
Position2: "'cpsp' Capital Spacing lookup 3 subtable" dx=10 dy=0 dh=20 dv=0
EndChar

StartChar: E
Encoding: 69 69 30
Width: 903
Flags: MW
HStem: 0 182<326 553> 604 168<571 664> 1157 195<721 826> 1212 139<512 512>
VStem: 45 938
LayerCount: 2
Fore
SplineSet
983 1352 m 1,0,1
 983 1256 983 1256 923 1206.5 c 128,-1,2
 863 1157 863 1157 762 1157 c 0,3,4
 647 1157 647 1157 512 1212 c 1,5,-1
 436 772 l 1,6,-1
 805 772 l 1,7,8
 805 685 805 685 751.5 644.5 c 128,-1,9
 698 604 698 604 608 604 c 0,10,11
 506 604 506 604 410 651 c 1,12,-1
 326 182 l 1,13,-1
 573 182 l 2,14,15
 681 182 681 182 735 207 c 1,16,17
 764 165 764 165 764 115 c 0,18,19
 764 79 764 79 746 55 c 128,-1,20
 728 31 728 31 695 19.5 c 128,-1,21
 662 8 662 8 629 4 c 128,-1,22
 596 0 596 0 553 0 c 2,23,-1
 45 0 l 1,24,-1
 305 1352 l 1,25,-1
 983 1352 l 1,0,1
EndSplineSet
Validated: 8388609
Position2: "'cpsp' Capital Spacing lookup 3 subtable" dx=10 dy=0 dh=20 dv=0
EndChar

StartChar: Eacute
Encoding: 201 201 31
Width: 903
Flags: MW
HStem: 0 182<326 553> 604 168<571 664> 1157 195<721 826> 1212 139<512 512>
VStem: 45 973
LayerCount: 2
Fore
SplineSet
983 1352 m 1,0,1
 983 1256 983 1256 923 1206.5 c 128,-1,2
 863 1157 863 1157 762 1157 c 0,3,4
 647 1157 647 1157 512 1212 c 1,5,-1
 436 772 l 1,6,-1
 805 772 l 1,7,8
 805 685 805 685 751.5 644.5 c 128,-1,9
 698 604 698 604 608 604 c 0,10,11
 506 604 506 604 410 651 c 1,12,-1
 326 182 l 1,13,-1
 573 182 l 2,14,15
 681 182 681 182 735 207 c 1,16,17
 764 165 764 165 764 115 c 0,18,19
 764 79 764 79 746 55 c 128,-1,20
 728 31 728 31 695 19.5 c 128,-1,21
 662 8 662 8 629 4 c 128,-1,22
 596 0 596 0 553 0 c 2,23,-1
 45 0 l 1,24,-1
 305 1352 l 1,25,-1
 983 1352 l 1,0,1
494 1548 m 1,26,-1
 973 1731 l 1,27,28
 1018 1702 1018 1702 1018 1638 c 0,29,30
 1018 1598 1018 1598 1000.5 1568 c 128,-1,31
 983 1538 983 1538 958 1521.5 c 128,-1,32
 933 1505 933 1505 893.5 1494 c 128,-1,33
 854 1483 854 1483 821.5 1479 c 128,-1,34
 789 1475 789 1475 745 1473 c 2,35,-1
 510 1460 l 1,36,-1
 494 1548 l 1,26,-1
EndSplineSet
Validated: 8388609
Position2: "'cpsp' Capital Spacing lookup 3 subtable" dx=10 dy=0 dh=20 dv=0
EndChar

StartChar: Ebreve
Encoding: 276 276 32
Width: 903
Flags: MW
HStem: 0 182<326 553> 604 168<571 664> 1157 195<721 826> 1212 139<512 512> 1432 100<647 727 647 758>
VStem: 401 176<1611 1653 1611 1657>
LayerCount: 2
Fore
SplineSet
983 1352 m 1,0,1
 983 1256 983 1256 923 1206.5 c 128,-1,2
 863 1157 863 1157 762 1157 c 0,3,4
 647 1157 647 1157 512 1212 c 1,5,-1
 436 772 l 1,6,-1
 805 772 l 1,7,8
 805 685 805 685 751.5 644.5 c 128,-1,9
 698 604 698 604 608 604 c 0,10,11
 506 604 506 604 410 651 c 1,12,-1
 326 182 l 1,13,-1
 573 182 l 2,14,15
 681 182 681 182 735 207 c 1,16,17
 764 165 764 165 764 115 c 0,18,19
 764 79 764 79 746 55 c 128,-1,20
 728 31 728 31 695 19.5 c 128,-1,21
 662 8 662 8 629 4 c 128,-1,22
 596 0 596 0 553 0 c 2,23,-1
 45 0 l 1,24,-1
 305 1352 l 1,25,-1
 983 1352 l 1,0,1
586 1704 m 1,26,27
 578 1665 578 1665 578 1645 c 0,28,29
 578 1593 578 1593 604.5 1562.5 c 128,-1,30
 631 1532 631 1532 680 1532 c 0,31,32
 746 1532 746 1532 796 1586 c 128,-1,33
 846 1640 846 1640 858 1704 c 1,34,-1
 1022 1704 l 1,35,36
 999 1578 999 1578 902.5 1505 c 128,-1,37
 806 1432 806 1432 659 1432 c 0,38,39
 532 1432 532 1432 466.5 1488.5 c 128,-1,40
 401 1545 401 1545 401 1647 c 0,41,42
 401 1669 401 1669 408 1704 c 1,43,-1
 586 1704 l 1,26,27
EndSplineSet
Validated: 8388609
Position2: "'cpsp' Capital Spacing lookup 3 subtable" dx=10 dy=0 dh=20 dv=0
EndChar

StartChar: Ecaron
Encoding: 282 282 33
Width: 903
Flags: MW
HStem: 0 182<326 553> 604 168<571 664> 1157 195<721 826> 1212 139<512 512>
VStem: 45 956
LayerCount: 2
Fore
SplineSet
983 1352 m 1,0,1
 983 1256 983 1256 923 1206.5 c 128,-1,2
 863 1157 863 1157 762 1157 c 0,3,4
 647 1157 647 1157 512 1212 c 1,5,-1
 436 772 l 1,6,-1
 805 772 l 1,7,8
 805 685 805 685 751.5 644.5 c 128,-1,9
 698 604 698 604 608 604 c 0,10,11
 506 604 506 604 410 651 c 1,12,-1
 326 182 l 1,13,-1
 573 182 l 2,14,15
 681 182 681 182 735 207 c 1,16,17
 764 165 764 165 764 115 c 0,18,19
 764 79 764 79 746 55 c 128,-1,20
 728 31 728 31 695 19.5 c 128,-1,21
 662 8 662 8 629 4 c 128,-1,22
 596 0 596 0 553 0 c 2,23,-1
 45 0 l 1,24,-1
 305 1352 l 1,25,-1
 983 1352 l 1,0,1
467 1714 m 1,26,-1
 680 1608 l 1,27,-1
 946 1714 l 1,28,-1
 1001 1634 l 1,29,-1
 668 1417 l 1,30,-1
 655 1417 l 1,31,-1
 385 1636 l 1,32,-1
 467 1714 l 1,26,-1
EndSplineSet
Validated: 8388609
Position2: "'cpsp' Capital Spacing lookup 3 subtable" dx=10 dy=0 dh=20 dv=0
EndChar

StartChar: Ecircumflex
Encoding: 202 202 34
Width: 903
Flags: MW
HStem: 0 182<326 553> 604 168<571 664> 1157 195<721 826> 1212 139<512 512>
VStem: 45 938
LayerCount: 2
Fore
SplineSet
983 1352 m 1,0,1
 983 1256 983 1256 923 1206.5 c 128,-1,2
 863 1157 863 1157 762 1157 c 0,3,4
 647 1157 647 1157 512 1212 c 1,5,-1
 436 772 l 1,6,-1
 805 772 l 1,7,8
 805 685 805 685 751.5 644.5 c 128,-1,9
 698 604 698 604 608 604 c 0,10,11
 506 604 506 604 410 651 c 1,12,-1
 326 182 l 1,13,-1
 573 182 l 2,14,15
 681 182 681 182 735 207 c 1,16,17
 764 165 764 165 764 115 c 0,18,19
 764 79 764 79 746 55 c 128,-1,20
 728 31 728 31 695 19.5 c 128,-1,21
 662 8 662 8 629 4 c 128,-1,22
 596 0 596 0 553 0 c 2,23,-1
 45 0 l 1,24,-1
 305 1352 l 1,25,-1
 983 1352 l 1,0,1
866 1380 m 1,26,-1
 651 1528 l 1,27,-1
 385 1380 l 1,28,-1
 330 1481 l 1,29,-1
 664 1718 l 1,30,-1
 678 1718 l 1,31,-1
 948 1479 l 1,32,-1
 866 1380 l 1,26,-1
EndSplineSet
Validated: 8388609
Position2: "'cpsp' Capital Spacing lookup 3 subtable" dx=10 dy=0 dh=20 dv=0
EndChar

StartChar: Edieresis
Encoding: 203 203 35
Width: 903
Flags: MW
HStem: 0 182<326 553> 604 168<571 664> 1157 195<721 826> 1212 139<512 512> 1489 258<414 494 842 922>
VStem: 301 307<1576 1660> 729 307<1576 1660>
LayerCount: 2
Fore
SplineSet
983 1352 m 1,0,1
 983 1256 983 1256 923 1206.5 c 128,-1,2
 863 1157 863 1157 762 1157 c 0,3,4
 647 1157 647 1157 512 1212 c 1,5,-1
 436 772 l 1,6,-1
 805 772 l 1,7,8
 805 685 805 685 751.5 644.5 c 128,-1,9
 698 604 698 604 608 604 c 0,10,11
 506 604 506 604 410 651 c 1,12,-1
 326 182 l 1,13,-1
 573 182 l 2,14,15
 681 182 681 182 735 207 c 1,16,17
 764 165 764 165 764 115 c 0,18,19
 764 79 764 79 746 55 c 128,-1,20
 728 31 728 31 695 19.5 c 128,-1,21
 662 8 662 8 629 4 c 128,-1,22
 596 0 596 0 553 0 c 2,23,-1
 45 0 l 1,24,-1
 305 1352 l 1,25,-1
 983 1352 l 1,0,1
885 1747 m 0,26,27
 952 1747 952 1747 994 1714 c 128,-1,28
 1036 1681 1036 1681 1036 1620 c 0,29,30
 1036 1557 1036 1557 991.5 1523 c 128,-1,31
 947 1489 947 1489 879 1489 c 0,32,33
 812 1489 812 1489 770.5 1522 c 128,-1,34
 729 1555 729 1555 729 1616 c 0,35,36
 729 1679 729 1679 773 1713 c 128,-1,37
 817 1747 817 1747 885 1747 c 0,26,27
457 1747 m 0,38,39
 524 1747 524 1747 566 1714 c 128,-1,40
 608 1681 608 1681 608 1620 c 0,41,42
 608 1557 608 1557 563.5 1523 c 128,-1,43
 519 1489 519 1489 451 1489 c 0,44,45
 384 1489 384 1489 342.5 1522 c 128,-1,46
 301 1555 301 1555 301 1616 c 0,47,48
 301 1679 301 1679 345 1713 c 128,-1,49
 389 1747 389 1747 457 1747 c 0,38,39
EndSplineSet
Validated: 8388609
Position2: "'cpsp' Capital Spacing lookup 3 subtable" dx=10 dy=0 dh=20 dv=0
EndChar

StartChar: Edotaccent
Encoding: 278 278 36
Width: 903
Flags: MW
HStem: 0 182<326 553> 604 168<571 664> 1157 195<721 826> 1212 139<512 512> 1489 258<623 702>
VStem: 510 307<1576 1660>
LayerCount: 2
Fore
SplineSet
983 1352 m 1,0,1
 983 1256 983 1256 923 1206.5 c 128,-1,2
 863 1157 863 1157 762 1157 c 0,3,4
 647 1157 647 1157 512 1212 c 1,5,-1
 436 772 l 1,6,-1
 805 772 l 1,7,8
 805 685 805 685 751.5 644.5 c 128,-1,9
 698 604 698 604 608 604 c 0,10,11
 506 604 506 604 410 651 c 1,12,-1
 326 182 l 1,13,-1
 573 182 l 2,14,15
 681 182 681 182 735 207 c 1,16,17
 764 165 764 165 764 115 c 0,18,19
 764 79 764 79 746 55 c 128,-1,20
 728 31 728 31 695 19.5 c 128,-1,21
 662 8 662 8 629 4 c 128,-1,22
 596 0 596 0 553 0 c 2,23,-1
 45 0 l 1,24,-1
 305 1352 l 1,25,-1
 983 1352 l 1,0,1
666 1747 m 0,26,27
 733 1747 733 1747 775 1714 c 128,-1,28
 817 1681 817 1681 817 1620 c 0,29,30
 817 1557 817 1557 772 1523 c 128,-1,31
 727 1489 727 1489 659 1489 c 0,32,33
 592 1489 592 1489 551 1522 c 128,-1,34
 510 1555 510 1555 510 1616 c 0,35,36
 510 1679 510 1679 554 1713 c 128,-1,37
 598 1747 598 1747 666 1747 c 0,26,27
EndSplineSet
Validated: 8388609
Position2: "'cpsp' Capital Spacing lookup 3 subtable" dx=10 dy=0 dh=20 dv=0
EndChar

StartChar: Edotbelow
Encoding: 7864 7864 37
Width: 903
Flags: MW
HStem: -369 258<330 410> 0 182<326 553> 604 168<571 664> 1157 195<721 826> 1212 139<512 512>
VStem: 217 305<-282 -198>
LayerCount: 2
Fore
SplineSet
373 -111 m 0,0,1
 440 -111 440 -111 481 -144 c 128,-1,2
 522 -177 522 -177 522 -238 c 0,3,4
 522 -301 522 -301 478.5 -335 c 128,-1,5
 435 -369 435 -369 367 -369 c 0,6,7
 300 -369 300 -369 258.5 -336 c 128,-1,8
 217 -303 217 -303 217 -242 c 0,9,10
 217 -179 217 -179 261 -145 c 128,-1,11
 305 -111 305 -111 373 -111 c 0,0,1
983 1352 m 1,12,13
 983 1256 983 1256 923 1206.5 c 128,-1,14
 863 1157 863 1157 762 1157 c 0,15,16
 647 1157 647 1157 512 1212 c 1,17,-1
 436 772 l 1,18,-1
 805 772 l 1,19,20
 805 685 805 685 751.5 644.5 c 128,-1,21
 698 604 698 604 608 604 c 0,22,23
 506 604 506 604 410 651 c 1,24,-1
 326 182 l 1,25,-1
 573 182 l 2,26,27
 681 182 681 182 735 207 c 1,28,29
 764 165 764 165 764 115 c 0,30,31
 764 79 764 79 746 55 c 128,-1,32
 728 31 728 31 695 19.5 c 128,-1,33
 662 8 662 8 629 4 c 128,-1,34
 596 0 596 0 553 0 c 2,35,-1
 45 0 l 1,36,-1
 305 1352 l 1,37,-1
 983 1352 l 1,12,13
EndSplineSet
Validated: 8388609
Position2: "'cpsp' Capital Spacing lookup 3 subtable" dx=10 dy=0 dh=20 dv=0
EndChar

StartChar: Egrave
Encoding: 200 200 38
Width: 903
Flags: MW
HStem: 0 182<326 553> 604 168<571 664> 1157 195<721 826> 1212 139<512 512>
VStem: 45 938
LayerCount: 2
Fore
SplineSet
983 1352 m 1,0,1
 983 1256 983 1256 923 1206.5 c 128,-1,2
 863 1157 863 1157 762 1157 c 0,3,4
 647 1157 647 1157 512 1212 c 1,5,-1
 436 772 l 1,6,-1
 805 772 l 1,7,8
 805 685 805 685 751.5 644.5 c 128,-1,9
 698 604 698 604 608 604 c 0,10,11
 506 604 506 604 410 651 c 1,12,-1
 326 182 l 1,13,-1
 573 182 l 2,14,15
 681 182 681 182 735 207 c 1,16,17
 764 165 764 165 764 115 c 0,18,19
 764 79 764 79 746 55 c 128,-1,20
 728 31 728 31 695 19.5 c 128,-1,21
 662 8 662 8 629 4 c 128,-1,22
 596 0 596 0 553 0 c 2,23,-1
 45 0 l 1,24,-1
 305 1352 l 1,25,-1
 983 1352 l 1,0,1
819 1460 m 1,26,-1
 584 1473 l 2,27,28
 540 1475 540 1475 507.5 1479 c 128,-1,29
 475 1483 475 1483 435.5 1494 c 128,-1,30
 396 1505 396 1505 371 1521.5 c 128,-1,31
 346 1538 346 1538 328.5 1568 c 128,-1,32
 311 1598 311 1598 311 1638 c 0,33,34
 311 1702 311 1702 356 1731 c 1,35,-1
 836 1548 l 1,36,-1
 819 1460 l 1,26,-1
EndSplineSet
Validated: 8388609
Position2: "'cpsp' Capital Spacing lookup 3 subtable" dx=10 dy=0 dh=20 dv=0
EndChar

StartChar: Emacron
Encoding: 274 274 39
Width: 903
Flags: MW
HStem: 0 182<326 553> 604 168<571 664> 1157 195<721 826> 1212 139<512 512> 1503 168<502 813 381 946>
VStem: 45 938
LayerCount: 2
Fore
SplineSet
983 1352 m 1,0,1
 983 1256 983 1256 923 1206.5 c 128,-1,2
 863 1157 863 1157 762 1157 c 0,3,4
 647 1157 647 1157 512 1212 c 1,5,-1
 436 772 l 1,6,-1
 805 772 l 1,7,8
 805 685 805 685 751.5 644.5 c 128,-1,9
 698 604 698 604 608 604 c 0,10,11
 506 604 506 604 410 651 c 1,12,-1
 326 182 l 1,13,-1
 573 182 l 2,14,15
 681 182 681 182 735 207 c 1,16,17
 764 165 764 165 764 115 c 0,18,19
 764 79 764 79 746 55 c 128,-1,20
 728 31 728 31 695 19.5 c 128,-1,21
 662 8 662 8 629 4 c 128,-1,22
 596 0 596 0 553 0 c 2,23,-1
 45 0 l 1,24,-1
 305 1352 l 1,25,-1
 983 1352 l 1,0,1
946 1671 m 1,26,27
 952 1650 952 1650 952 1622 c 0,28,29
 952 1568 952 1568 916.5 1535.5 c 128,-1,30
 881 1503 881 1503 813 1503 c 2,31,-1
 381 1503 l 1,32,33
 377 1519 377 1519 377 1552 c 0,34,35
 378 1607 378 1607 412 1639 c 128,-1,36
 446 1671 446 1671 502 1671 c 2,37,-1
 946 1671 l 1,26,27
EndSplineSet
Validated: 8388609
Position2: "'cpsp' Capital Spacing lookup 3 subtable" dx=10 dy=0 dh=20 dv=0
EndChar

StartChar: Eogonek
Encoding: 280 280 40
Width: 903
Flags: MW
HStem: -528 127<577 637> 0 182<326 541> 604 168<571 664> 1157 195<721 826> 1212 139<512 512>
VStem: 350 150<-322 -239>
LayerCount: 2
Fore
SplineSet
983 1352 m 1,0,1
 983 1256 983 1256 923 1206.5 c 128,-1,2
 863 1157 863 1157 762 1157 c 0,3,4
 647 1157 647 1157 512 1212 c 1,5,-1
 436 772 l 1,6,-1
 805 772 l 1,7,8
 805 685 805 685 751.5 644.5 c 128,-1,9
 698 604 698 604 608 604 c 0,10,11
 506 604 506 604 410 651 c 1,12,-1
 326 182 l 1,13,-1
 573 182 l 2,14,15
 681 182 681 182 735 207 c 1,16,17
 764 165 764 165 764 115 c 0,18,19
 764 45 764 45 692 18 c 1,20,21
 605 -33 605 -33 552.5 -115 c 128,-1,22
 500 -197 500 -197 500 -281 c 0,23,24
 500 -344 500 -344 528 -372.5 c 128,-1,25
 556 -401 556 -401 621 -401 c 0,26,27
 693 -401 693 -401 727 -350 c 1,28,29
 760 -376 760 -376 760 -410 c 0,30,31
 760 -460 760 -460 711 -494 c 128,-1,32
 662 -528 662 -528 586 -528 c 0,33,34
 478 -528 478 -528 414 -469.5 c 128,-1,35
 350 -411 350 -411 350 -307 c 0,36,37
 350 -211 350 -211 404 -131.5 c 128,-1,38
 458 -52 458 -52 541 0 c 1,39,-1
 45 0 l 1,40,-1
 305 1352 l 1,41,-1
 983 1352 l 1,0,1
EndSplineSet
Validated: 8388609
Position2: "'cpsp' Capital Spacing lookup 3 subtable" dx=10 dy=0 dh=20 dv=0
EndChar

StartChar: Etilde
Encoding: 7868 7868 41
Width: 903
Flags: MW
HStem: 0 182<326 553> 604 168<571 664> 1157 195<721 826> 1212 139<512 512> 1485 174<825 894 825 895> 1518 174<481 549>
VStem: 45 961
LayerCount: 2
Fore
SplineSet
983 1352 m 1,0,1
 983 1256 983 1256 923 1206.5 c 128,-1,2
 863 1157 863 1157 762 1157 c 0,3,4
 647 1157 647 1157 512 1212 c 1,5,-1
 436 772 l 1,6,-1
 805 772 l 1,7,8
 805 685 805 685 751.5 644.5 c 128,-1,9
 698 604 698 604 608 604 c 0,10,11
 506 604 506 604 410 651 c 1,12,-1
 326 182 l 1,13,-1
 573 182 l 2,14,15
 681 182 681 182 735 207 c 1,16,17
 764 165 764 165 764 115 c 0,18,19
 764 79 764 79 746 55 c 128,-1,20
 728 31 728 31 695 19.5 c 128,-1,21
 662 8 662 8 629 4 c 128,-1,22
 596 0 596 0 553 0 c 2,23,-1
 45 0 l 1,24,-1
 305 1352 l 1,25,-1
 983 1352 l 1,0,1
973 1692 m 1,26,27
 1006 1654 1006 1654 1006 1608 c 0,28,29
 1006 1549 1006 1549 963 1517 c 128,-1,30
 920 1485 920 1485 848 1485 c 0,31,32
 806 1485 806 1485 677.5 1501.5 c 128,-1,33
 549 1518 549 1518 508 1518 c 0,34,35
 432 1518 432 1518 393 1487 c 1,36,37
 358 1538 358 1538 358 1581 c 0,38,39
 358 1634 358 1634 401 1663 c 128,-1,40
 444 1692 444 1692 522 1692 c 0,41,42
 570 1692 570 1692 698 1675.5 c 128,-1,43
 826 1659 826 1659 870 1659 c 0,44,45
 949 1659 949 1659 973 1692 c 1,26,27
EndSplineSet
Validated: 8388609
Position2: "'cpsp' Capital Spacing lookup 3 subtable" dx=10 dy=0 dh=20 dv=0
EndChar

StartChar: F
Encoding: 70 70 42
Width: 884
Flags: MW
HStem: 604 168<571 664> 1157 195<721 826> 1212 139<512 512>
VStem: 45 938
LayerCount: 2
Fore
SplineSet
983 1352 m 1,0,1
 983 1256 983 1256 923 1206.5 c 128,-1,2
 863 1157 863 1157 762 1157 c 0,3,4
 647 1157 647 1157 512 1212 c 1,5,-1
 436 772 l 1,6,-1
 805 772 l 1,7,8
 805 685 805 685 751.5 644.5 c 128,-1,9
 698 604 698 604 608 604 c 0,10,11
 506 604 506 604 410 651 c 1,12,-1
 293 0 l 1,13,-1
 45 0 l 1,14,-1
 305 1352 l 1,15,-1
 983 1352 l 1,0,1
EndSplineSet
Validated: 8388609
Position2: "'cpsp' Capital Spacing lookup 3 subtable" dx=10 dy=0 dh=20 dv=0
EndChar

StartChar: G
Encoding: 71 71 43
Width: 1081
Flags: MW
HStem: -41 197<450 479> 1247 145<564 746>
VStem: 53 258<381 607 381 665> 721 190 842 250<1083 1147>
LayerCount: 2
Fore
SplineSet
1038 668 m 1,0,1
 978 535 978 535 947 350 c 128,-1,2
 916 165 916 165 911 -8 c 1,3,4
 891 -41 891 -41 840 -41 c 0,5,6
 721 -41 721 -41 721 78 c 1,7,8
 573 -41 573 -41 410 -41 c 0,9,10
 236 -41 236 -41 144.5 89.5 c 128,-1,11
 53 220 53 220 53 453 c 0,12,13
 53 561 53 561 72.5 670 c 128,-1,14
 92 779 92 779 129.5 885 c 128,-1,15
 167 991 167 991 227 1082.5 c 128,-1,16
 287 1174 287 1174 362.5 1243.5 c 128,-1,17
 438 1313 438 1313 539 1353 c 128,-1,18
 640 1393 640 1393 754 1393 c 0,19,20
 908 1393 908 1393 1000 1321.5 c 128,-1,21
 1092 1250 1092 1250 1092 1122 c 0,22,23
 1092 1025 1092 1025 1040.5 972.5 c 128,-1,24
 989 920 989 920 911 920 c 0,25,26
 839 920 839 920 811 952 c 1,27,28
 842 1030 842 1030 842 1104 c 0,29,30
 842 1169 842 1169 804.5 1208 c 128,-1,31
 767 1247 767 1247 702 1247 c 0,32,33
 623 1247 623 1247 556 1192.5 c 128,-1,34
 489 1138 489 1138 445 1053 c 128,-1,35
 401 968 401 968 369.5 862 c 128,-1,36
 338 756 338 756 324.5 656 c 128,-1,37
 311 556 311 556 311 469 c 0,38,39
 311 399 311 399 321.5 345 c 128,-1,40
 332 291 332 291 357 247 c 128,-1,41
 382 203 382 203 428.5 179.5 c 128,-1,42
 475 156 475 156 541 156 c 0,43,44
 654 156 654 156 713 199 c 1,45,-1
 778 631 l 1,46,-1
 1038 668 l 1,0,1
EndSplineSet
Validated: 8388609
Position2: "'cpsp' Capital Spacing lookup 3 subtable" dx=10 dy=0 dh=20 dv=0
EndChar

StartChar: Gbreve
Encoding: 286 286 44
Width: 1081
Flags: MW
HStem: -41 197<450 479> 1247 145<564 746> 1432 100<760 840 760 870>
VStem: 53 258<381 607 381 665> 514 176<1611 1653 1611 1657> 721 190 842 250<1083 1147>
LayerCount: 2
Fore
SplineSet
1038 668 m 1,0,1
 978 535 978 535 947 350 c 128,-1,2
 916 165 916 165 911 -8 c 1,3,4
 891 -41 891 -41 840 -41 c 0,5,6
 721 -41 721 -41 721 78 c 1,7,8
 573 -41 573 -41 410 -41 c 0,9,10
 236 -41 236 -41 144.5 89.5 c 128,-1,11
 53 220 53 220 53 453 c 0,12,13
 53 561 53 561 72.5 670 c 128,-1,14
 92 779 92 779 129.5 885 c 128,-1,15
 167 991 167 991 227 1082.5 c 128,-1,16
 287 1174 287 1174 362.5 1243.5 c 128,-1,17
 438 1313 438 1313 539 1353 c 128,-1,18
 640 1393 640 1393 754 1393 c 0,19,20
 908 1393 908 1393 1000 1321.5 c 128,-1,21
 1092 1250 1092 1250 1092 1122 c 0,22,23
 1092 1025 1092 1025 1040.5 972.5 c 128,-1,24
 989 920 989 920 911 920 c 0,25,26
 839 920 839 920 811 952 c 1,27,28
 842 1030 842 1030 842 1104 c 0,29,30
 842 1169 842 1169 804.5 1208 c 128,-1,31
 767 1247 767 1247 702 1247 c 0,32,33
 623 1247 623 1247 556 1192.5 c 128,-1,34
 489 1138 489 1138 445 1053 c 128,-1,35
 401 968 401 968 369.5 862 c 128,-1,36
 338 756 338 756 324.5 656 c 128,-1,37
 311 556 311 556 311 469 c 0,38,39
 311 399 311 399 321.5 345 c 128,-1,40
 332 291 332 291 357 247 c 128,-1,41
 382 203 382 203 428.5 179.5 c 128,-1,42
 475 156 475 156 541 156 c 0,43,44
 654 156 654 156 713 199 c 1,45,-1
 778 631 l 1,46,-1
 1038 668 l 1,0,1
698 1704 m 1,47,48
 690 1665 690 1665 690 1645 c 0,49,50
 690 1593 690 1593 717 1562.5 c 128,-1,51
 744 1532 744 1532 793 1532 c 0,52,53
 859 1532 859 1532 909 1586 c 128,-1,54
 959 1640 959 1640 971 1704 c 1,55,-1
 1135 1704 l 1,56,57
 1112 1578 1112 1578 1015.5 1505 c 128,-1,58
 919 1432 919 1432 772 1432 c 0,59,60
 645 1432 645 1432 579.5 1488.5 c 128,-1,61
 514 1545 514 1545 514 1647 c 0,62,63
 514 1674 514 1674 520 1704 c 1,64,-1
 698 1704 l 1,47,48
EndSplineSet
Validated: 8388609
Position2: "'cpsp' Capital Spacing lookup 3 subtable" dx=10 dy=0 dh=20 dv=0
EndChar

StartChar: Gcircumflex
Encoding: 284 284 45
Width: 1081
Flags: MW
HStem: -41 197<450 479> 1247 145<564 746>
VStem: 53 258<381 607 381 665> 721 190 842 250<1083 1147>
LayerCount: 2
Fore
SplineSet
1038 668 m 1,0,1
 978 535 978 535 947 350 c 128,-1,2
 916 165 916 165 911 -8 c 1,3,4
 891 -41 891 -41 840 -41 c 0,5,6
 721 -41 721 -41 721 78 c 1,7,8
 573 -41 573 -41 410 -41 c 0,9,10
 236 -41 236 -41 144.5 89.5 c 128,-1,11
 53 220 53 220 53 453 c 0,12,13
 53 561 53 561 72.5 670 c 128,-1,14
 92 779 92 779 129.5 885 c 128,-1,15
 167 991 167 991 227 1082.5 c 128,-1,16
 287 1174 287 1174 362.5 1243.5 c 128,-1,17
 438 1313 438 1313 539 1353 c 128,-1,18
 640 1393 640 1393 754 1393 c 0,19,20
 908 1393 908 1393 1000 1321.5 c 128,-1,21
 1092 1250 1092 1250 1092 1122 c 0,22,23
 1092 1025 1092 1025 1040.5 972.5 c 128,-1,24
 989 920 989 920 911 920 c 0,25,26
 839 920 839 920 811 952 c 1,27,28
 842 1030 842 1030 842 1104 c 0,29,30
 842 1169 842 1169 804.5 1208 c 128,-1,31
 767 1247 767 1247 702 1247 c 0,32,33
 623 1247 623 1247 556 1192.5 c 128,-1,34
 489 1138 489 1138 445 1053 c 128,-1,35
 401 968 401 968 369.5 862 c 128,-1,36
 338 756 338 756 324.5 656 c 128,-1,37
 311 556 311 556 311 469 c 0,38,39
 311 399 311 399 321.5 345 c 128,-1,40
 332 291 332 291 357 247 c 128,-1,41
 382 203 382 203 428.5 179.5 c 128,-1,42
 475 156 475 156 541 156 c 0,43,44
 654 156 654 156 713 199 c 1,45,-1
 778 631 l 1,46,-1
 1038 668 l 1,0,1
979 1380 m 1,47,-1
 764 1528 l 1,48,-1
 498 1380 l 1,49,-1
 442 1481 l 1,50,-1
 776 1718 l 1,51,-1
 791 1718 l 1,52,-1
 1061 1479 l 1,53,-1
 979 1380 l 1,47,-1
EndSplineSet
Validated: 8388609
Position2: "'cpsp' Capital Spacing lookup 3 subtable" dx=10 dy=0 dh=20 dv=0
EndChar

StartChar: Gcommaaccent
Encoding: 290 290 46
Width: 1081
Flags: MW
HStem: -41 197<450 479> 1247 145<564 746>
VStem: 53 258<381 607 381 665> 399 205<-251 -184> 721 190 842 250<1083 1147>
LayerCount: 2
Fore
SplineSet
604 -215 m 0,0,1
 604 -312 604 -312 521.5 -398.5 c 128,-1,2
 439 -485 439 -485 346 -485 c 0,3,4
 311 -485 311 -485 289 -463 c 1,5,6
 324 -413 324 -413 344 -380 c 128,-1,7
 364 -347 364 -347 381.5 -297.5 c 128,-1,8
 399 -248 399 -248 399 -199 c 0,9,10
 399 -161 399 -161 385 -123 c 1,11,12
 430 -100 430 -100 492 -100 c 0,13,14
 541 -100 541 -100 572.5 -129 c 128,-1,15
 604 -158 604 -158 604 -215 c 0,0,1
1038 668 m 1,16,17
 978 535 978 535 947 350 c 128,-1,18
 916 165 916 165 911 -8 c 1,19,20
 891 -41 891 -41 840 -41 c 0,21,22
 721 -41 721 -41 721 78 c 1,23,24
 573 -41 573 -41 410 -41 c 0,25,26
 236 -41 236 -41 144.5 89.5 c 128,-1,27
 53 220 53 220 53 453 c 0,28,29
 53 561 53 561 72.5 670 c 128,-1,30
 92 779 92 779 129.5 885 c 128,-1,31
 167 991 167 991 227 1082.5 c 128,-1,32
 287 1174 287 1174 362.5 1243.5 c 128,-1,33
 438 1313 438 1313 539 1353 c 128,-1,34
 640 1393 640 1393 754 1393 c 0,35,36
 908 1393 908 1393 1000 1321.5 c 128,-1,37
 1092 1250 1092 1250 1092 1122 c 0,38,39
 1092 1025 1092 1025 1040.5 972.5 c 128,-1,40
 989 920 989 920 911 920 c 0,41,42
 839 920 839 920 811 952 c 1,43,44
 842 1030 842 1030 842 1104 c 0,45,46
 842 1169 842 1169 804.5 1208 c 128,-1,47
 767 1247 767 1247 702 1247 c 0,48,49
 623 1247 623 1247 556 1192.5 c 128,-1,50
 489 1138 489 1138 445 1053 c 128,-1,51
 401 968 401 968 369.5 862 c 128,-1,52
 338 756 338 756 324.5 656 c 128,-1,53
 311 556 311 556 311 469 c 0,54,55
 311 399 311 399 321.5 345 c 128,-1,56
 332 291 332 291 357 247 c 128,-1,57
 382 203 382 203 428.5 179.5 c 128,-1,58
 475 156 475 156 541 156 c 0,59,60
 654 156 654 156 713 199 c 1,61,-1
 778 631 l 1,62,-1
 1038 668 l 1,16,17
EndSplineSet
Validated: 8388609
Position2: "'cpsp' Capital Spacing lookup 3 subtable" dx=10 dy=0 dh=20 dv=0
EndChar

StartChar: Gdotaccent
Encoding: 288 288 47
Width: 1081
Flags: MW
HStem: -41 197<450 479> 1247 145<564 746> 1489 258<733 813>
VStem: 53 258<381 607 381 665> 621 307<1576 1660> 721 190 842 250<1083 1147>
LayerCount: 2
Fore
SplineSet
1038 668 m 1,0,1
 978 535 978 535 947 350 c 128,-1,2
 916 165 916 165 911 -8 c 1,3,4
 891 -41 891 -41 840 -41 c 0,5,6
 721 -41 721 -41 721 78 c 1,7,8
 573 -41 573 -41 410 -41 c 0,9,10
 236 -41 236 -41 144.5 89.5 c 128,-1,11
 53 220 53 220 53 453 c 0,12,13
 53 561 53 561 72.5 670 c 128,-1,14
 92 779 92 779 129.5 885 c 128,-1,15
 167 991 167 991 227 1082.5 c 128,-1,16
 287 1174 287 1174 362.5 1243.5 c 128,-1,17
 438 1313 438 1313 539 1353 c 128,-1,18
 640 1393 640 1393 754 1393 c 0,19,20
 908 1393 908 1393 1000 1321.5 c 128,-1,21
 1092 1250 1092 1250 1092 1122 c 0,22,23
 1092 1025 1092 1025 1040.5 972.5 c 128,-1,24
 989 920 989 920 911 920 c 0,25,26
 839 920 839 920 811 952 c 1,27,28
 842 1030 842 1030 842 1104 c 0,29,30
 842 1169 842 1169 804.5 1208 c 128,-1,31
 767 1247 767 1247 702 1247 c 0,32,33
 623 1247 623 1247 556 1192.5 c 128,-1,34
 489 1138 489 1138 445 1053 c 128,-1,35
 401 968 401 968 369.5 862 c 128,-1,36
 338 756 338 756 324.5 656 c 128,-1,37
 311 556 311 556 311 469 c 0,38,39
 311 399 311 399 321.5 345 c 128,-1,40
 332 291 332 291 357 247 c 128,-1,41
 382 203 382 203 428.5 179.5 c 128,-1,42
 475 156 475 156 541 156 c 0,43,44
 654 156 654 156 713 199 c 1,45,-1
 778 631 l 1,46,-1
 1038 668 l 1,0,1
776 1747 m 0,47,48
 843 1747 843 1747 885.5 1714 c 128,-1,49
 928 1681 928 1681 928 1620 c 0,50,51
 928 1557 928 1557 883 1523 c 128,-1,52
 838 1489 838 1489 770 1489 c 0,53,54
 703 1489 703 1489 662 1522 c 128,-1,55
 621 1555 621 1555 621 1616 c 0,56,57
 621 1679 621 1679 664.5 1713 c 128,-1,58
 708 1747 708 1747 776 1747 c 0,47,48
EndSplineSet
Validated: 8388609
Position2: "'cpsp' Capital Spacing lookup 3 subtable" dx=10 dy=0 dh=20 dv=0
EndChar

StartChar: H
Encoding: 72 72 48
Width: 1259
Flags: MW
HStem: 594 143<428 846 399 872> 1311 41G<305 549 549 549 987 1231 1231 1231>
VStem: 768 238<86 112>
LayerCount: 2
Fore
SplineSet
1016 195 m 2,0,1
 1006 138 1006 138 1006 100 c 0,2,3
 1006 49 1006 49 1030 8 c 1,4,5
 970 -41 970 -41 893 -41 c 0,6,7
 824 -41 824 -41 796 -6 c 128,-1,8
 768 29 768 29 768 96 c 0,9,10
 768 130 768 130 791 272 c 1,11,-1
 846 594 l 1,12,-1
 399 594 l 1,13,-1
 285 0 l 1,14,-1
 45 0 l 1,15,-1
 305 1352 l 1,16,-1
 549 1352 l 1,17,-1
 428 737 l 1,18,-1
 872 737 l 1,19,-1
 987 1352 l 1,20,-1
 1231 1352 l 1,21,-1
 1016 195 l 2,0,1
EndSplineSet
Validated: 1
Position2: "'cpsp' Capital Spacing lookup 3 subtable" dx=10 dy=0 dh=20 dv=0
EndChar

StartChar: Hbar
Encoding: 294 294 49
Width: 1259
Flags: MW
HStem: 594 143<428 846 399 872> 905 170<211 219 90 252 494 903> 905 446<90 549 90 549 461 461 461 549 305 903 1149 1180 1149 1149>
VStem: 768 238<86 112>
LayerCount: 2
Fore
SplineSet
903 905 m 1,0,-1
 461 905 l 1,1,-1
 428 737 l 1,2,-1
 872 737 l 1,3,-1
 903 905 l 1,0,-1
1313 1075 m 1,4,5
 1319 1054 1319 1054 1319 1026 c 0,6,7
 1319 971 1319 971 1283.5 938 c 128,-1,8
 1248 905 1248 905 1180 905 c 2,9,-1
 1149 905 l 1,10,-1
 1016 195 l 2,11,12
 1006 138 1006 138 1006 100 c 0,13,14
 1006 49 1006 49 1030 8 c 1,15,16
 970 -41 970 -41 893 -41 c 0,17,18
 824 -41 824 -41 796 -6 c 128,-1,19
 768 29 768 29 768 96 c 0,20,21
 768 130 768 130 791 272 c 1,22,-1
 846 594 l 1,23,-1
 399 594 l 1,24,-1
 285 0 l 1,25,-1
 45 0 l 1,26,-1
 219 905 l 1,27,-1
 90 905 l 1,28,29
 86 921 86 921 86 956 c 0,30,31
 87 1011 87 1011 121 1043 c 128,-1,32
 155 1075 155 1075 211 1075 c 2,33,-1
 252 1075 l 1,34,-1
 305 1352 l 1,35,-1
 549 1352 l 1,36,-1
 494 1075 l 1,37,-1
 936 1075 l 1,38,-1
 987 1352 l 1,39,-1
 1231 1352 l 1,40,-1
 1180 1075 l 1,41,-1
 1313 1075 l 1,4,5
EndSplineSet
Validated: 8388609
Position2: "'cpsp' Capital Spacing lookup 3 subtable" dx=10 dy=0 dh=20 dv=0
EndChar

StartChar: Hcircumflex
Encoding: 292 292 50
Width: 1259
Flags: MW
HStem: 594 143<428 846 399 872> 1311 41G<305 549 549 549 987 1231 1231 1231>
VStem: 768 238<86 112>
LayerCount: 2
Fore
SplineSet
1016 195 m 2,0,1
 1006 138 1006 138 1006 100 c 0,2,3
 1006 49 1006 49 1030 8 c 1,4,5
 970 -41 970 -41 893 -41 c 0,6,7
 824 -41 824 -41 796 -6 c 128,-1,8
 768 29 768 29 768 96 c 0,9,10
 768 130 768 130 791 272 c 1,11,-1
 846 594 l 1,12,-1
 399 594 l 1,13,-1
 285 0 l 1,14,-1
 45 0 l 1,15,-1
 305 1352 l 1,16,-1
 549 1352 l 1,17,-1
 428 737 l 1,18,-1
 872 737 l 1,19,-1
 987 1352 l 1,20,-1
 1231 1352 l 1,21,-1
 1016 195 l 2,0,1
985 1380 m 1,22,-1
 770 1528 l 1,23,-1
 504 1380 l 1,24,-1
 449 1481 l 1,25,-1
 782 1718 l 1,26,-1
 797 1718 l 1,27,-1
 1067 1479 l 1,28,-1
 985 1380 l 1,22,-1
EndSplineSet
Validated: 1
Position2: "'cpsp' Capital Spacing lookup 3 subtable" dx=10 dy=0 dh=20 dv=0
EndChar

StartChar: Hdotbelow
Encoding: 7716 7716 51
Width: 1259
Flags: MW
HStem: -369 258<453 532> 594 143<428 846 399 872> 1311 41G<305 549 549 549 987 1231 1231 1231>
VStem: 340 305<-282 -198> 768 238<86 112>
LayerCount: 2
Fore
SplineSet
496 -111 m 0,0,1
 563 -111 563 -111 604 -144 c 128,-1,2
 645 -177 645 -177 645 -238 c 0,3,4
 645 -301 645 -301 601 -335 c 128,-1,5
 557 -369 557 -369 489 -369 c 0,6,7
 422 -369 422 -369 381 -336 c 128,-1,8
 340 -303 340 -303 340 -242 c 0,9,10
 340 -179 340 -179 384 -145 c 128,-1,11
 428 -111 428 -111 496 -111 c 0,0,1
1016 195 m 2,12,13
 1006 138 1006 138 1006 100 c 0,14,15
 1006 49 1006 49 1030 8 c 1,16,17
 970 -41 970 -41 893 -41 c 0,18,19
 824 -41 824 -41 796 -6 c 128,-1,20
 768 29 768 29 768 96 c 0,21,22
 768 130 768 130 791 272 c 1,23,-1
 846 594 l 1,24,-1
 399 594 l 1,25,-1
 285 0 l 1,26,-1
 45 0 l 1,27,-1
 305 1352 l 1,28,-1
 549 1352 l 1,29,-1
 428 737 l 1,30,-1
 872 737 l 1,31,-1
 987 1352 l 1,32,-1
 1231 1352 l 1,33,-1
 1016 195 l 2,12,13
EndSplineSet
Validated: 1
Position2: "'cpsp' Capital Spacing lookup 3 subtable" dx=10 dy=0 dh=20 dv=0
EndChar

StartChar: I
Encoding: 73 73 52
Width: 593
Flags: MW
HStem: 1311 41G<305 549 549 549>
VStem: 45 504
LayerCount: 2
Fore
SplineSet
285 0 m 1,0,-1
 45 0 l 1,1,-1
 305 1352 l 1,2,-1
 549 1352 l 1,3,-1
 285 0 l 1,0,-1
EndSplineSet
Validated: 1
Position2: "'cpsp' Capital Spacing lookup 3 subtable" dx=10 dy=0 dh=20 dv=0
EndChar

StartChar: IJ
Encoding: 306 306 53
Width: 1185
Flags: MW
HStem: 1311 41G<305 549 549 549 899 1143 1143 1143>
VStem: 45 1098
LayerCount: 2
Fore
SplineSet
907 145 m 2,0,1
 887 41 887 41 863 -39 c 128,-1,2
 839 -119 839 -119 804 -187 c 128,-1,3
 769 -255 769 -255 720 -291.5 c 128,-1,4
 671 -328 671 -328 610 -328 c 0,5,6
 564 -328 564 -328 527 -307.5 c 128,-1,7
 490 -287 490 -287 473 -248 c 1,8,9
 515 -231 515 -231 548 -193.5 c 128,-1,10
 581 -156 581 -156 602 -101 c 128,-1,11
 623 -46 623 -46 635 -1 c 128,-1,12
 647 44 647 44 659 104 c 2,13,-1
 899 1352 l 1,14,-1
 1143 1352 l 1,15,-1
 907 145 l 2,0,1
45 0 m 1,16,-1
 305 1352 l 1,17,-1
 549 1352 l 1,18,-1
 285 0 l 1,19,-1
 45 0 l 1,16,-1
EndSplineSet
Validated: 1
Position2: "'cpsp' Capital Spacing lookup 3 subtable" dx=10 dy=0 dh=20 dv=0
EndChar

StartChar: Iacute
Encoding: 205 205 54
Width: 593
Flags: MW
HStem: 1311 41G<305 549 549 549>
VStem: 45 780
LayerCount: 2
Fore
SplineSet
45 0 m 1,0,-1
 305 1352 l 1,1,-1
 549 1352 l 1,2,-1
 285 0 l 1,3,-1
 45 0 l 1,0,-1
301 1548 m 1,4,-1
 780 1731 l 1,5,6
 825 1702 825 1702 825 1638 c 0,7,8
 825 1598 825 1598 808 1568 c 128,-1,9
 791 1538 791 1538 765.5 1521.5 c 128,-1,10
 740 1505 740 1505 701 1494 c 128,-1,11
 662 1483 662 1483 629.5 1479 c 128,-1,12
 597 1475 597 1475 553 1473 c 2,13,-1
 317 1460 l 1,14,-1
 301 1548 l 1,4,-1
EndSplineSet
Validated: 1
Position2: "'cpsp' Capital Spacing lookup 3 subtable" dx=10 dy=0 dh=20 dv=0
EndChar

StartChar: Ibreve
Encoding: 300 300 55
Width: 593
Flags: MW
HStem: 1311 41G<305 549 549 549> 1432 100<455 535 455 565>
VStem: 209 176<1611 1653 1611 1657>
LayerCount: 2
Fore
SplineSet
45 0 m 1,0,-1
 305 1352 l 1,1,-1
 549 1352 l 1,2,-1
 285 0 l 1,3,-1
 45 0 l 1,0,-1
393 1704 m 1,4,5
 385 1665 385 1665 385 1645 c 0,6,7
 385 1593 385 1593 411.5 1562.5 c 128,-1,8
 438 1532 438 1532 487 1532 c 0,9,10
 553 1532 553 1532 603.5 1586 c 128,-1,11
 654 1640 654 1640 666 1704 c 1,12,-1
 829 1704 l 1,13,14
 806 1578 806 1578 709.5 1505 c 128,-1,15
 613 1432 613 1432 467 1432 c 0,16,17
 340 1432 340 1432 274.5 1488.5 c 128,-1,18
 209 1545 209 1545 209 1647 c 0,19,20
 209 1674 209 1674 215 1704 c 1,21,-1
 393 1704 l 1,4,5
EndSplineSet
Validated: 1
Position2: "'cpsp' Capital Spacing lookup 3 subtable" dx=10 dy=0 dh=20 dv=0
EndChar

StartChar: Icircumflex
Encoding: 206 206 56
Width: 593
Flags: MW
HStem: 1311 41G<305 549 549 549>
VStem: 45 711
LayerCount: 2
Fore
SplineSet
45 0 m 1,0,-1
 305 1352 l 1,1,-1
 549 1352 l 1,2,-1
 285 0 l 1,3,-1
 45 0 l 1,0,-1
674 1380 m 1,4,-1
 459 1528 l 1,5,-1
 193 1380 l 1,6,-1
 137 1481 l 1,7,-1
 471 1718 l 1,8,-1
 485 1718 l 1,9,-1
 756 1479 l 1,10,-1
 674 1380 l 1,4,-1
EndSplineSet
Validated: 1
Position2: "'cpsp' Capital Spacing lookup 3 subtable" dx=10 dy=0 dh=20 dv=0
EndChar

StartChar: Idieresis
Encoding: 207 207 57
Width: 593
Flags: MW
HStem: 1311 41G<305 549 549 549> 1489 258<221 301 649 729>
VStem: 109 307<1576 1660> 537 307<1576 1660>
LayerCount: 2
Fore
SplineSet
45 0 m 1,0,-1
 305 1352 l 1,1,-1
 549 1352 l 1,2,-1
 285 0 l 1,3,-1
 45 0 l 1,0,-1
692 1747 m 0,4,5
 759 1747 759 1747 801.5 1714 c 128,-1,6
 844 1681 844 1681 844 1620 c 0,7,8
 844 1557 844 1557 799 1523 c 128,-1,9
 754 1489 754 1489 686 1489 c 0,10,11
 619 1489 619 1489 578 1522 c 128,-1,12
 537 1555 537 1555 537 1616 c 0,13,14
 537 1679 537 1679 580.5 1713 c 128,-1,15
 624 1747 624 1747 692 1747 c 0,4,5
264 1747 m 0,16,17
 331 1747 331 1747 373.5 1714 c 128,-1,18
 416 1681 416 1681 416 1620 c 0,19,20
 416 1557 416 1557 371 1523 c 128,-1,21
 326 1489 326 1489 258 1489 c 0,22,23
 191 1489 191 1489 150 1522 c 128,-1,24
 109 1555 109 1555 109 1616 c 0,25,26
 109 1679 109 1679 152.5 1713 c 128,-1,27
 196 1747 196 1747 264 1747 c 0,16,17
EndSplineSet
Validated: 1
Position2: "'cpsp' Capital Spacing lookup 3 subtable" dx=10 dy=0 dh=20 dv=0
EndChar

StartChar: Idotaccent
Encoding: 304 304 58
Width: 593
Flags: MW
HStem: 1311 41G<305 549 549 549> 1489 258<430 510>
VStem: 317 307<1576 1660>
LayerCount: 2
Fore
SplineSet
45 0 m 1,0,-1
 305 1352 l 1,1,-1
 549 1352 l 1,2,-1
 285 0 l 1,3,-1
 45 0 l 1,0,-1
473 1747 m 0,4,5
 540 1747 540 1747 582.5 1714 c 128,-1,6
 625 1681 625 1681 625 1620 c 0,7,8
 625 1557 625 1557 580 1523 c 128,-1,9
 535 1489 535 1489 467 1489 c 0,10,11
 400 1489 400 1489 358.5 1522 c 128,-1,12
 317 1555 317 1555 317 1616 c 0,13,14
 317 1679 317 1679 361 1713 c 128,-1,15
 405 1747 405 1747 473 1747 c 0,4,5
EndSplineSet
Validated: 1
Position2: "'cpsp' Capital Spacing lookup 3 subtable" dx=10 dy=0 dh=20 dv=0
EndChar

StartChar: Idotbelow
Encoding: 7882 7882 59
Width: 593
Flags: MW
HStem: -369 258<88 168> 1311 41G<305 549 549 549>
VStem: -25 305<-282 -198>
LayerCount: 2
Fore
SplineSet
131 -111 m 0,0,1
 198 -111 198 -111 239.5 -144 c 128,-1,2
 281 -177 281 -177 281 -238 c 0,3,4
 281 -301 281 -301 237 -335 c 128,-1,5
 193 -369 193 -369 125 -369 c 0,6,7
 58 -369 58 -369 16.5 -336 c 128,-1,8
 -25 -303 -25 -303 -25 -242 c 0,9,10
 -25 -179 -25 -179 19 -145 c 128,-1,11
 63 -111 63 -111 131 -111 c 0,0,1
45 0 m 1,12,-1
 305 1352 l 1,13,-1
 549 1352 l 1,14,-1
 285 0 l 1,15,-1
 45 0 l 1,12,-1
EndSplineSet
Validated: 1
Position2: "'cpsp' Capital Spacing lookup 3 subtable" dx=10 dy=0 dh=20 dv=0
EndChar

StartChar: Igrave
Encoding: 204 204 60
Width: 593
Flags: MW
HStem: 1311 41G<305 549 549 549>
VStem: 45 598
LayerCount: 2
Fore
SplineSet
45 0 m 1,0,-1
 305 1352 l 1,1,-1
 549 1352 l 1,2,-1
 285 0 l 1,3,-1
 45 0 l 1,0,-1
627 1460 m 1,4,-1
 391 1473 l 2,5,6
 347 1475 347 1475 314.5 1479 c 128,-1,7
 282 1483 282 1483 243 1494 c 128,-1,8
 204 1505 204 1505 178.5 1521.5 c 128,-1,9
 153 1538 153 1538 136 1568 c 128,-1,10
 119 1598 119 1598 119 1638 c 0,11,12
 119 1702 119 1702 164 1731 c 1,13,-1
 643 1548 l 1,14,-1
 627 1460 l 1,4,-1
EndSplineSet
Validated: 1
Position2: "'cpsp' Capital Spacing lookup 3 subtable" dx=10 dy=0 dh=20 dv=0
EndChar

StartChar: Imacron
Encoding: 298 298 61
Width: 593
Flags: MW
HStem: 1311 41G<305 549 549 549> 1503 168<309 621 188 754>
VStem: 45 715
LayerCount: 2
Fore
SplineSet
45 0 m 1,0,-1
 305 1352 l 1,1,-1
 549 1352 l 1,2,-1
 285 0 l 1,3,-1
 45 0 l 1,0,-1
754 1671 m 1,4,5
 760 1650 760 1650 760 1622 c 0,6,7
 760 1568 760 1568 724.5 1535.5 c 128,-1,8
 689 1503 689 1503 621 1503 c 2,9,-1
 188 1503 l 1,10,11
 184 1519 184 1519 184 1552 c 0,12,13
 185 1607 185 1607 219 1639 c 128,-1,14
 253 1671 253 1671 309 1671 c 2,15,-1
 754 1671 l 1,4,5
EndSplineSet
Validated: 1
Position2: "'cpsp' Capital Spacing lookup 3 subtable" dx=10 dy=0 dh=20 dv=0
EndChar

StartChar: Iogonek
Encoding: 302 302 62
Width: 593
Flags: MW
HStem: -528 127<169 229> 1311 41G<305 549 549 549>
VStem: -57 150<-322 -239>
LayerCount: 2
Fore
SplineSet
256 0 m 1,0,1
 181 -53 181 -53 136.5 -128.5 c 128,-1,2
 92 -204 92 -204 92 -281 c 0,3,4
 92 -344 92 -344 120 -372.5 c 128,-1,5
 148 -401 148 -401 213 -401 c 0,6,7
 285 -401 285 -401 319 -350 c 1,8,9
 352 -376 352 -376 352 -410 c 0,10,11
 352 -460 352 -460 303 -494 c 128,-1,12
 254 -528 254 -528 178 -528 c 0,13,14
 71 -528 71 -528 7 -469.5 c 128,-1,15
 -57 -411 -57 -411 -57 -307 c 0,16,17
 -57 -211 -57 -211 -3.5 -131.5 c 128,-1,18
 50 -52 50 -52 133 0 c 1,19,-1
 45 0 l 1,20,-1
 305 1352 l 1,21,-1
 549 1352 l 1,22,-1
 289 20 l 1,23,-1
 285 0 l 1,24,-1
 256 0 l 1,0,1
EndSplineSet
Validated: 1
Position2: "'cpsp' Capital Spacing lookup 3 subtable" dx=10 dy=0 dh=20 dv=0
EndChar

StartChar: Itilde
Encoding: 296 296 63
Width: 593
Flags: MW
HStem: 1311 41G<305 549 549 549> 1485 174<633 701 633 702> 1518 174<289 356>
VStem: 45 768
LayerCount: 2
Fore
SplineSet
45 0 m 1,0,-1
 305 1352 l 1,1,-1
 549 1352 l 1,2,-1
 285 0 l 1,3,-1
 45 0 l 1,0,-1
780 1692 m 1,4,5
 813 1654 813 1654 813 1608 c 0,6,7
 813 1549 813 1549 770 1517 c 128,-1,8
 727 1485 727 1485 655 1485 c 0,9,10
 613 1485 613 1485 484.5 1501.5 c 128,-1,11
 356 1518 356 1518 315 1518 c 0,12,13
 240 1518 240 1518 201 1487 c 1,14,15
 166 1538 166 1538 166 1581 c 0,16,17
 166 1634 166 1634 209 1663 c 128,-1,18
 252 1692 252 1692 330 1692 c 0,19,20
 378 1692 378 1692 506 1675.5 c 128,-1,21
 634 1659 634 1659 678 1659 c 0,22,23
 756 1659 756 1659 780 1692 c 1,4,5
EndSplineSet
Validated: 8388609
Position2: "'cpsp' Capital Spacing lookup 3 subtable" dx=10 dy=0 dh=20 dv=0
EndChar

StartChar: J
Encoding: 74 74 64
Width: 593
Flags: MW
HStem: 1311 41G<305 549 549 549>
VStem: -121 670
LayerCount: 2
Fore
SplineSet
313 145 m 2,0,1
 293 41 293 41 269 -39 c 128,-1,2
 245 -119 245 -119 210 -187 c 128,-1,3
 175 -255 175 -255 126 -291.5 c 128,-1,4
 77 -328 77 -328 16 -328 c 0,5,6
 -30 -328 -30 -328 -67 -307.5 c 128,-1,7
 -104 -287 -104 -287 -121 -248 c 1,8,9
 -79 -231 -79 -231 -46 -193 c 128,-1,10
 -13 -155 -13 -155 8.5 -100.5 c 128,-1,11
 30 -46 30 -46 42 -1 c 128,-1,12
 54 44 54 44 66 104 c 2,13,-1
 305 1352 l 1,14,-1
 549 1352 l 1,15,-1
 313 145 l 2,0,1
EndSplineSet
Validated: 1
Position2: "'cpsp' Capital Spacing lookup 3 subtable" dx=10 dy=0 dh=20 dv=0
EndChar

StartChar: Jcircumflex
Encoding: 308 308 65
Width: 593
Flags: MW
HStem: 1311 41G<305 549 549 549>
VStem: -121 879
LayerCount: 2
Fore
SplineSet
313 145 m 2,0,1
 293 41 293 41 269 -39 c 128,-1,2
 245 -119 245 -119 210 -187 c 128,-1,3
 175 -255 175 -255 126 -291.5 c 128,-1,4
 77 -328 77 -328 16 -328 c 0,5,6
 -30 -328 -30 -328 -67 -307.5 c 128,-1,7
 -104 -287 -104 -287 -121 -248 c 1,8,9
 -79 -231 -79 -231 -46 -193 c 128,-1,10
 -13 -155 -13 -155 8.5 -100.5 c 128,-1,11
 30 -46 30 -46 42 -1 c 128,-1,12
 54 44 54 44 66 104 c 2,13,-1
 305 1352 l 1,14,-1
 549 1352 l 1,15,-1
 313 145 l 2,0,1
676 1380 m 1,16,-1
 461 1528 l 1,17,-1
 195 1380 l 1,18,-1
 139 1481 l 1,19,-1
 473 1718 l 1,20,-1
 487 1718 l 1,21,-1
 758 1479 l 1,22,-1
 676 1380 l 1,16,-1
EndSplineSet
Validated: 1
Position2: "'cpsp' Capital Spacing lookup 3 subtable" dx=10 dy=0 dh=20 dv=0
EndChar

StartChar: K
Encoding: 75 75 66
Width: 1144
Flags: MW
HStem: 1311 41G<305 549 549 549 961 1229 1229 1229>
VStem: 51 1178
LayerCount: 2
Fore
SplineSet
1229 1352 m 1,0,1
 1113 1207 1113 1207 983.5 1046 c 128,-1,2
 854 885 854 885 786 800.5 c 128,-1,3
 718 716 718 716 696 688 c 1,4,5
 798 419 798 419 899.5 263.5 c 128,-1,6
 1001 108 1001 108 1077 72 c 1,7,8
 1064 18 1064 18 1022 -10.5 c 128,-1,9
 980 -39 980 -39 918 -39 c 0,10,11
 886 -39 886 -39 858 -31 c 128,-1,12
 830 -23 830 -23 805 -9 c 128,-1,13
 780 5 780 5 755.5 32.5 c 128,-1,14
 731 60 731 60 709.5 89 c 128,-1,15
 688 118 688 118 664 166 c 128,-1,16
 640 214 640 214 619 260 c 128,-1,17
 598 306 598 306 571 377 c 128,-1,18
 544 448 544 448 520 512.5 c 128,-1,19
 496 577 496 577 463 672 c 1,20,-1
 961 1352 l 1,21,-1
 1229 1352 l 1,0,1
291 0 m 1,22,-1
 51 0 l 1,23,24
 251 1043 251 1043 305 1352 c 1,25,-1
 549 1352 l 1,26,-1
 291 0 l 1,22,-1
EndSplineSet
Validated: 1
Position2: "'cpsp' Capital Spacing lookup 3 subtable" dx=10 dy=0 dh=20 dv=0
EndChar

StartChar: Kcommaaccent
Encoding: 310 310 67
Width: 1144
Flags: MW
HStem: 1311 41G<305 549 549 549 961 1229 1229 1229>
VStem: 416 205<-251 -184>
LayerCount: 2
Fore
SplineSet
621 -215 m 0,0,1
 621 -312 621 -312 538.5 -398.5 c 128,-1,2
 456 -485 456 -485 362 -485 c 0,3,4
 327 -485 327 -485 305 -463 c 1,5,6
 341 -413 341 -413 361 -380.5 c 128,-1,7
 381 -348 381 -348 398.5 -298 c 128,-1,8
 416 -248 416 -248 416 -199 c 0,9,10
 416 -164 416 -164 401 -123 c 1,11,12
 446 -100 446 -100 508 -100 c 0,13,14
 557 -100 557 -100 589 -129 c 128,-1,15
 621 -158 621 -158 621 -215 c 0,0,1
1229 1352 m 1,16,17
 1113 1207 1113 1207 983.5 1046 c 128,-1,18
 854 885 854 885 786 800.5 c 128,-1,19
 718 716 718 716 696 688 c 1,20,21
 798 419 798 419 899.5 263.5 c 128,-1,22
 1001 108 1001 108 1077 72 c 1,23,24
 1064 18 1064 18 1022 -10.5 c 128,-1,25
 980 -39 980 -39 918 -39 c 0,26,27
 886 -39 886 -39 858 -31 c 128,-1,28
 830 -23 830 -23 805 -9 c 128,-1,29
 780 5 780 5 755.5 32.5 c 128,-1,30
 731 60 731 60 709.5 89 c 128,-1,31
 688 118 688 118 664 166 c 128,-1,32
 640 214 640 214 619 260 c 128,-1,33
 598 306 598 306 571 377 c 128,-1,34
 544 448 544 448 520 512.5 c 128,-1,35
 496 577 496 577 463 672 c 1,36,-1
 961 1352 l 1,37,-1
 1229 1352 l 1,16,17
51 0 m 1,38,39
 251 1043 251 1043 305 1352 c 1,40,-1
 549 1352 l 1,41,-1
 291 0 l 1,42,-1
 51 0 l 1,38,39
EndSplineSet
Validated: 1
Position2: "'cpsp' Capital Spacing lookup 3 subtable" dx=10 dy=0 dh=20 dv=0
EndChar

StartChar: L
Encoding: 76 76 68
Width: 770
Flags: MW
HStem: 0 182<319 555> 1311 41G<305 549 549 549>
VStem: 45 719<0 131>
LayerCount: 2
Fore
SplineSet
305 1352 m 1,0,-1
 549 1352 l 1,1,-1
 319 182 l 1,2,-1
 573 182 l 2,3,4
 681 182 681 182 735 207 c 1,5,6
 764 165 764 165 764 115 c 0,7,8
 764 79 764 79 746 55 c 128,-1,9
 728 31 728 31 695.5 19.5 c 128,-1,10
 663 8 663 8 630 4 c 128,-1,11
 597 0 597 0 555 0 c 2,12,-1
 45 0 l 1,13,-1
 305 1352 l 1,0,-1
EndSplineSet
Validated: 1
Position2: "'cpsp' Capital Spacing lookup 3 subtable" dx=10 dy=0 dh=20 dv=0
EndChar

StartChar: LJ
Encoding: 455 455 69
Width: 1361
Flags: MW
HStem: 0 182<319 555> 1311 41G<305 549 549 549 1075 1319 1319 1319>
VStem: 45 1274
LayerCount: 2
Fore
SplineSet
1083 145 m 2,0,1
 1063 41 1063 41 1039 -39 c 128,-1,2
 1015 -119 1015 -119 980 -187 c 128,-1,3
 945 -255 945 -255 896 -291.5 c 128,-1,4
 847 -328 847 -328 786 -328 c 0,5,6
 740 -328 740 -328 703 -307.5 c 128,-1,7
 666 -287 666 -287 649 -248 c 1,8,9
 691 -231 691 -231 724 -193 c 128,-1,10
 757 -155 757 -155 778.5 -100.5 c 128,-1,11
 800 -46 800 -46 812 -1 c 128,-1,12
 824 44 824 44 836 104 c 2,13,-1
 1075 1352 l 1,14,-1
 1319 1352 l 1,15,-1
 1083 145 l 2,0,1
549 1352 m 1,16,-1
 319 182 l 1,17,-1
 573 182 l 2,18,19
 681 182 681 182 735 207 c 1,20,21
 764 165 764 165 764 115 c 0,22,23
 764 79 764 79 746 55 c 128,-1,24
 728 31 728 31 695.5 19.5 c 128,-1,25
 663 8 663 8 630 4 c 128,-1,26
 597 0 597 0 555 0 c 2,27,-1
 45 0 l 1,28,-1
 305 1352 l 1,29,-1
 549 1352 l 1,16,-1
EndSplineSet
Validated: 1
Position2: "'cpsp' Capital Spacing lookup 3 subtable" dx=10 dy=0 dh=20 dv=0
EndChar

StartChar: Lacute
Encoding: 313 313 70
Width: 770
Flags: MW
HStem: 0 182<319 555> 1311 41G<305 549 549 549>
VStem: 45 721
LayerCount: 2
Fore
SplineSet
549 1352 m 1,0,-1
 319 182 l 1,1,-1
 573 182 l 2,2,3
 681 182 681 182 735 207 c 1,4,5
 764 165 764 165 764 115 c 0,6,7
 764 79 764 79 746 55 c 128,-1,8
 728 31 728 31 695.5 19.5 c 128,-1,9
 663 8 663 8 630 4 c 128,-1,10
 597 0 597 0 555 0 c 2,11,-1
 45 0 l 1,12,-1
 305 1352 l 1,13,-1
 549 1352 l 1,0,-1
242 1548 m 1,14,-1
 721 1731 l 1,15,16
 766 1702 766 1702 766 1638 c 0,17,18
 766 1598 766 1598 749 1568 c 128,-1,19
 732 1538 732 1538 706.5 1521.5 c 128,-1,20
 681 1505 681 1505 642 1494 c 128,-1,21
 603 1483 603 1483 570.5 1479 c 128,-1,22
 538 1475 538 1475 494 1473 c 2,23,-1
 258 1460 l 1,24,-1
 242 1548 l 1,14,-1
EndSplineSet
Validated: 1
Position2: "'cpsp' Capital Spacing lookup 3 subtable" dx=10 dy=0 dh=20 dv=0
EndChar

StartChar: Lcaron
Encoding: 317 317 71
Width: 770
Flags: MW
HStem: 0 182<319 555> 1090 262<305 759> 1311 41G<305 549 549 549> 1430 41G<815 864>
VStem: 750 193<1311 1379>
LayerCount: 2
Fore
SplineSet
549 1352 m 1,0,-1
 319 182 l 1,1,-1
 573 182 l 2,2,3
 681 182 681 182 735 207 c 1,4,5
 764 165 764 165 764 115 c 0,6,7
 764 79 764 79 746 55 c 128,-1,8
 728 31 728 31 695.5 19.5 c 128,-1,9
 663 8 663 8 630 4 c 128,-1,10
 597 0 597 0 555 0 c 2,11,-1
 45 0 l 1,12,-1
 305 1352 l 1,13,-1
 549 1352 l 1,0,-1
733 1446 m 1,14,15
 773 1470 773 1470 834 1470 c 0,16,17
 882 1470 882 1470 912 1439 c 128,-1,18
 942 1408 942 1408 942 1348 c 0,19,20
 942 1246 942 1246 866 1168 c 128,-1,21
 790 1090 790 1090 705 1090 c 0,22,23
 676 1090 676 1090 641 1102 c 1,24,25
 696 1170 696 1170 723 1230 c 128,-1,26
 750 1290 750 1290 750 1364 c 0,27,28
 750 1411 750 1411 733 1446 c 1,14,15
EndSplineSet
Validated: 8388609
Position2: "'cpsp' Capital Spacing lookup 3 subtable" dx=10 dy=0 dh=20 dv=0
EndChar

StartChar: Lcommaaccent
Encoding: 315 315 72
Width: 770
Flags: MW
HStem: 0 182<319 555> 1311 41G<305 549 549 549>
VStem: 272 205<-251 -184>
LayerCount: 2
Fore
SplineSet
477 -215 m 0,0,1
 477 -312 477 -312 394.5 -398.5 c 128,-1,2
 312 -485 312 -485 219 -485 c 0,3,4
 184 -485 184 -485 162 -463 c 1,5,6
 197 -413 197 -413 217 -380 c 128,-1,7
 237 -347 237 -347 254.5 -297.5 c 128,-1,8
 272 -248 272 -248 272 -199 c 0,9,10
 272 -161 272 -161 258 -123 c 1,11,12
 303 -100 303 -100 365 -100 c 0,13,14
 414 -100 414 -100 445.5 -129 c 128,-1,15
 477 -158 477 -158 477 -215 c 0,0,1
549 1352 m 1,16,-1
 319 182 l 1,17,-1
 573 182 l 2,18,19
 681 182 681 182 735 207 c 1,20,21
 764 165 764 165 764 115 c 0,22,23
 764 79 764 79 746 55 c 128,-1,24
 728 31 728 31 695.5 19.5 c 128,-1,25
 663 8 663 8 630 4 c 128,-1,26
 597 0 597 0 555 0 c 2,27,-1
 45 0 l 1,28,-1
 305 1352 l 1,29,-1
 549 1352 l 1,16,-1
EndSplineSet
Validated: 1
Position2: "'cpsp' Capital Spacing lookup 3 subtable" dx=10 dy=0 dh=20 dv=0
EndChar

StartChar: Ldot
Encoding: 319 319 73
Width: 770
Flags: MW
HStem: 0 182<319 555> 1311 41G<305 549 549 549>
VStem: 520 248<694 731>
LayerCount: 2
Fore
SplineSet
670 831 m 0,0,1
 713 831 713 831 740.5 807 c 128,-1,2
 768 783 768 783 768 741 c 0,3,4
 768 675 768 675 720.5 634.5 c 128,-1,5
 673 594 673 594 616 594 c 0,6,7
 574 594 574 594 547 618 c 128,-1,8
 520 642 520 642 520 684 c 0,9,10
 520 750 520 750 566.5 790.5 c 128,-1,11
 613 831 613 831 670 831 c 0,0,1
549 1352 m 1,12,-1
 319 182 l 1,13,-1
 573 182 l 2,14,15
 681 182 681 182 735 207 c 1,16,17
 764 165 764 165 764 115 c 0,18,19
 764 79 764 79 746 55 c 128,-1,20
 728 31 728 31 695.5 19.5 c 128,-1,21
 663 8 663 8 630 4 c 128,-1,22
 597 0 597 0 555 0 c 2,23,-1
 45 0 l 1,24,-1
 305 1352 l 1,25,-1
 549 1352 l 1,12,-1
EndSplineSet
Validated: 1
Ligature2: "Ligature Substitution lookup 20 subtable" L periodcentered
Position2: "'cpsp' Capital Spacing lookup 3 subtable" dx=10 dy=0 dh=20 dv=0
EndChar

StartChar: Lj
Encoding: 456 456 74
Width: 1306
Flags: MW
HStem: -410 119 0 182<319 555> 1028 41G<1278 1278> 1225 258<1174 1253> 1311 41G<305 549 549 549>
VStem: 1061 305<1312 1396>
LayerCount: 2
Fore
SplineSet
1075 63 m 2,0,1
 1025 -185 1025 -185 934.5 -297.5 c 128,-1,2
 844 -410 844 -410 727 -410 c 0,3,4
 602 -410 602 -410 584 -291 c 1,5,6
 698 -287 698 -287 760.5 -177 c 128,-1,7
 823 -67 823 -67 877 203 c 2,8,-1
 1047 1044 l 1,9,-1
 1278 1069 l 1,10,-1
 1075 63 l 2,0,1
549 1352 m 1,11,-1
 319 182 l 1,12,-1
 573 182 l 2,13,14
 681 182 681 182 735 207 c 1,15,16
 764 165 764 165 764 115 c 0,17,18
 764 79 764 79 746 55 c 128,-1,19
 728 31 728 31 695.5 19.5 c 128,-1,20
 663 8 663 8 630 4 c 128,-1,21
 597 0 597 0 555 0 c 2,22,-1
 45 0 l 1,23,-1
 305 1352 l 1,24,-1
 549 1352 l 1,11,-1
1217 1483 m 0,25,26
 1284 1483 1284 1483 1325 1450 c 128,-1,27
 1366 1417 1366 1417 1366 1356 c 0,28,29
 1366 1293 1366 1293 1322 1259 c 128,-1,30
 1278 1225 1278 1225 1210 1225 c 0,31,32
 1143 1225 1143 1225 1102 1258 c 128,-1,33
 1061 1291 1061 1291 1061 1352 c 0,34,35
 1061 1415 1061 1415 1105 1449 c 128,-1,36
 1149 1483 1149 1483 1217 1483 c 0,25,26
EndSplineSet
Validated: 8388609
Position2: "'cpsp' Capital Spacing lookup 3 subtable" dx=10 dy=0 dh=20 dv=0
EndChar

StartChar: Lslash
Encoding: 321 321 75
Width: 815
Flags: MW
HStem: 0 182<365 600> 1311 41G<350 594 594 594>
VStem: -27 836<65 562>
LayerCount: 2
Fore
SplineSet
618 182 m 2,0,1
 726 182 726 182 780 207 c 1,2,3
 809 165 809 165 809 115 c 0,4,5
 809 79 809 79 791 55 c 128,-1,6
 773 31 773 31 740.5 19.5 c 128,-1,7
 708 8 708 8 675 4 c 128,-1,8
 642 0 642 0 600 0 c 2,9,-1
 90 0 l 1,10,-1
 190 526 l 1,11,-1
 10 461 l 1,12,13
 -3 476 -3 476 -9 484.5 c 128,-1,14
 -15 493 -15 493 -21 508.5 c 128,-1,15
 -27 524 -27 524 -27 541 c 0,16,17
 -27 614 -27 614 51 645 c 1,18,-1
 227 711 l 1,19,-1
 350 1352 l 1,20,-1
 594 1352 l 1,21,-1
 487 805 l 1,22,-1
 707 887 l 1,23,24
 739 858 739 858 739 801 c 0,25,26
 739 757 739 757 709.5 730 c 128,-1,27
 680 703 680 703 616 680 c 2,28,-1
 451 621 l 1,29,-1
 365 182 l 1,30,-1
 618 182 l 2,0,1
EndSplineSet
Validated: 1
Position2: "'cpsp' Capital Spacing lookup 3 subtable" dx=10 dy=0 dh=20 dv=0
EndChar

StartChar: M
Encoding: 77 77 76
Width: 1533
Flags: MW
HStem: 1061 291<438 438 1272 1272> 1311 41G<317 623 623 623 1214 1526 1526 1526>
VStem: 1176 238<139 160>
LayerCount: 2
Fore
SplineSet
1526 1352 m 1,0,-1
 1419 250 l 1,1,2
 1413 214 1413 214 1413 166 c 0,3,4
 1413 83 1413 83 1458 33 c 1,5,6
 1395 -45 1395 -45 1303 -45 c 0,7,8
 1223 -45 1223 -45 1199.5 -1 c 128,-1,9
 1176 43 1176 43 1176 141 c 0,10,11
 1176 182 1176 182 1188 293 c 2,12,-1
 1272 1061 l 1,13,-1
 782 0 l 1,14,-1
 614 0 l 1,15,-1
 438 1061 l 1,16,-1
 221 0 l 1,17,-1
 20 0 l 1,18,-1
 317 1352 l 1,19,-1
 623 1352 l 1,20,-1
 782 408 l 1,21,-1
 1214 1352 l 1,22,-1
 1526 1352 l 1,0,-1
EndSplineSet
Validated: 8388609
Position2: "'cpsp' Capital Spacing lookup 3 subtable" dx=10 dy=0 dh=20 dv=0
EndChar

StartChar: N
Encoding: 78 78 77
Width: 1329
Flags: MW
HStem: 1092 260<438 438> 1311 41G<305 600 600 600 1071 1270 1270 1270>
VStem: 55 1214
LayerCount: 2
Fore
SplineSet
55 0 m 1,0,-1
 305 1352 l 1,1,-1
 600 1352 l 1,2,-1
 895 295 l 1,3,-1
 1071 1352 l 1,4,-1
 1270 1352 l 1,5,-1
 1024 0 l 1,6,-1
 756 0 l 1,7,-1
 438 1092 l 1,8,-1
 256 0 l 1,9,-1
 55 0 l 1,0,-1
EndSplineSet
Validated: 8388609
Position2: "'cpsp' Capital Spacing lookup 3 subtable" dx=10 dy=0 dh=20 dv=0
EndChar

StartChar: NJ
Encoding: 458 458 78
Width: 1923
Flags: MW
HStem: 1092 260<438 438> 1311 41G<305 600 600 600 1071 1270 1270 1270 1634 1878 1878 1878>
VStem: 55 1823<0 1352>
LayerCount: 2
Fore
SplineSet
1642 145 m 2,0,1
 1622 40 1622 40 1598 -39.5 c 128,-1,2
 1574 -119 1574 -119 1539 -187 c 128,-1,3
 1504 -255 1504 -255 1455.5 -291.5 c 128,-1,4
 1407 -328 1407 -328 1346 -328 c 0,5,6
 1300 -328 1300 -328 1262.5 -307 c 128,-1,7
 1225 -286 1225 -286 1208 -248 c 1,8,9
 1250 -231 1250 -231 1283 -193 c 128,-1,10
 1316 -155 1316 -155 1337.5 -100.5 c 128,-1,11
 1359 -46 1359 -46 1371 -1 c 128,-1,12
 1383 44 1383 44 1395 104 c 2,13,-1
 1634 1352 l 1,14,-1
 1878 1352 l 1,15,-1
 1642 145 l 2,0,1
305 1352 m 1,16,-1
 600 1352 l 1,17,-1
 895 295 l 1,18,-1
 1071 1352 l 1,19,-1
 1270 1352 l 1,20,-1
 1024 0 l 1,21,-1
 756 0 l 1,22,-1
 438 1092 l 1,23,-1
 256 0 l 1,24,-1
 55 0 l 1,25,-1
 305 1352 l 1,16,-1
EndSplineSet
Validated: 8388609
Position2: "'cpsp' Capital Spacing lookup 3 subtable" dx=10 dy=0 dh=20 dv=0
EndChar

StartChar: Nacute
Encoding: 323 323 79
Width: 1329
Flags: MW
HStem: 1092 260<438 438> 1311 41G<305 600 600 600 1071 1270 1270 1270>
VStem: 55 1214
LayerCount: 2
Fore
SplineSet
305 1352 m 1,0,-1
 600 1352 l 1,1,-1
 895 295 l 1,2,-1
 1071 1352 l 1,3,-1
 1270 1352 l 1,4,-1
 1024 0 l 1,5,-1
 756 0 l 1,6,-1
 438 1092 l 1,7,-1
 256 0 l 1,8,-1
 55 0 l 1,9,-1
 305 1352 l 1,0,-1
653 1548 m 1,10,-1
 1133 1731 l 1,11,12
 1178 1702 1178 1702 1178 1638 c 0,13,14
 1178 1598 1178 1598 1160.5 1568 c 128,-1,15
 1143 1538 1143 1538 1118 1521.5 c 128,-1,16
 1093 1505 1093 1505 1053.5 1494 c 128,-1,17
 1014 1483 1014 1483 981.5 1479 c 128,-1,18
 949 1475 949 1475 905 1473 c 2,19,-1
 670 1460 l 1,20,-1
 653 1548 l 1,10,-1
EndSplineSet
Validated: 8388609
Substitution2: "'locl' Localized Forms in Latin lookup 13 subtable" Nacute.loclPLK
Substitution2: "'aalt' Access All Alternates lookup 0 subtable" Nacute.loclPLK
Position2: "'cpsp' Capital Spacing lookup 3 subtable" dx=10 dy=0 dh=20 dv=0
EndChar

StartChar: Ncaron
Encoding: 327 327 80
Width: 1329
Flags: MW
HStem: 1092 260<438 438> 1311 41G<305 600 600 600 1071 1270 1270 1270>
VStem: 55 1214
LayerCount: 2
Fore
SplineSet
305 1352 m 1,0,-1
 600 1352 l 1,1,-1
 895 295 l 1,2,-1
 1071 1352 l 1,3,-1
 1270 1352 l 1,4,-1
 1024 0 l 1,5,-1
 756 0 l 1,6,-1
 438 1092 l 1,7,-1
 256 0 l 1,8,-1
 55 0 l 1,9,-1
 305 1352 l 1,0,-1
627 1714 m 1,10,-1
 840 1608 l 1,11,-1
 1106 1714 l 1,12,-1
 1161 1634 l 1,13,-1
 827 1417 l 1,14,-1
 815 1417 l 1,15,-1
 545 1636 l 1,16,-1
 627 1714 l 1,10,-1
EndSplineSet
Validated: 8388609
Position2: "'cpsp' Capital Spacing lookup 3 subtable" dx=10 dy=0 dh=20 dv=0
EndChar

StartChar: Ncommaaccent
Encoding: 325 325 81
Width: 1329
Flags: MW
HStem: 1092 260<438 438> 1311 41G<305 600 600 600 1071 1270 1270 1270>
VStem: 492 205<-251 -184>
LayerCount: 2
Fore
SplineSet
696 -215 m 0,0,1
 696 -312 696 -312 613.5 -398.5 c 128,-1,2
 531 -485 531 -485 438 -485 c 0,3,4
 403 -485 403 -485 381 -463 c 1,5,6
 417 -413 417 -413 437 -380.5 c 128,-1,7
 457 -348 457 -348 474.5 -298 c 128,-1,8
 492 -248 492 -248 492 -199 c 0,9,10
 492 -164 492 -164 477 -123 c 1,11,12
 522 -100 522 -100 584 -100 c 0,13,14
 633 -100 633 -100 664.5 -129 c 128,-1,15
 696 -158 696 -158 696 -215 c 0,0,1
305 1352 m 1,16,-1
 600 1352 l 1,17,-1
 895 295 l 1,18,-1
 1071 1352 l 1,19,-1
 1270 1352 l 1,20,-1
 1024 0 l 1,21,-1
 756 0 l 1,22,-1
 438 1092 l 1,23,-1
 256 0 l 1,24,-1
 55 0 l 1,25,-1
 305 1352 l 1,16,-1
EndSplineSet
Validated: 8388609
Position2: "'cpsp' Capital Spacing lookup 3 subtable" dx=10 dy=0 dh=20 dv=0
EndChar

StartChar: Ndotaccent
Encoding: 7748 7748 82
Width: 1329
Flags: MW
HStem: 1092 260<438 438> 1311 41G<305 600 600 600 1071 1270 1270 1270> 1489 258<782 862>
VStem: 670 307<1576 1660>
LayerCount: 2
Fore
SplineSet
305 1352 m 1,0,-1
 600 1352 l 1,1,-1
 895 295 l 1,2,-1
 1071 1352 l 1,3,-1
 1270 1352 l 1,4,-1
 1024 0 l 1,5,-1
 756 0 l 1,6,-1
 438 1092 l 1,7,-1
 256 0 l 1,8,-1
 55 0 l 1,9,-1
 305 1352 l 1,0,-1
825 1747 m 0,10,11
 892 1747 892 1747 934.5 1714 c 128,-1,12
 977 1681 977 1681 977 1620 c 0,13,14
 977 1557 977 1557 932 1523 c 128,-1,15
 887 1489 887 1489 819 1489 c 0,16,17
 752 1489 752 1489 711 1522 c 128,-1,18
 670 1555 670 1555 670 1616 c 0,19,20
 670 1679 670 1679 713.5 1713 c 128,-1,21
 757 1747 757 1747 825 1747 c 0,10,11
EndSplineSet
Validated: 8388609
Position2: "'cpsp' Capital Spacing lookup 3 subtable" dx=10 dy=0 dh=20 dv=0
EndChar

StartChar: Eng
Encoding: 330 330 83
Width: 1327
Flags: MW
HStem: 1092 260<438 438> 1311 41G<305 600 600 600 1071 1270 1270 1270>
VStem: 55 1214
LayerCount: 2
Fore
SplineSet
256 0 m 1,0,-1
 55 0 l 1,1,-1
 305 1352 l 1,2,-1
 600 1352 l 1,3,-1
 895 295 l 1,4,-1
 1071 1352 l 1,5,-1
 1270 1352 l 1,6,-1
 1047 129 l 2,7,8
 1029 28 1029 28 1007 -49 c 128,-1,9
 985 -126 985 -126 953 -192 c 128,-1,10
 921 -258 921 -258 876.5 -293 c 128,-1,11
 832 -328 832 -328 776 -328 c 0,12,13
 735 -328 735 -328 700.5 -310.5 c 128,-1,14
 666 -293 666 -293 651 -262 c 1,15,16
 774 -216 774 -216 834 0 c 1,17,-1
 756 0 l 1,18,-1
 438 1092 l 1,19,-1
 256 0 l 1,0,-1
EndSplineSet
Validated: 8388609
Position2: "'cpsp' Capital Spacing lookup 3 subtable" dx=10 dy=0 dh=20 dv=0
EndChar

StartChar: Nj
Encoding: 459 459 84
Width: 1867
Flags: MW
HStem: -410 119 1028 41G<1837 1837> 1092 260<438 438> 1225 258<1733 1812> 1311 41G<305 600 600 600 1071 1270 1270 1270>
VStem: 1620 305<1312 1396>
LayerCount: 2
Fore
SplineSet
1634 63 m 2,0,1
 1584 -185 1584 -185 1493.5 -297.5 c 128,-1,2
 1403 -410 1403 -410 1286 -410 c 0,3,4
 1161 -410 1161 -410 1143 -291 c 1,5,6
 1257 -287 1257 -287 1319.5 -177 c 128,-1,7
 1382 -67 1382 -67 1436 203 c 2,8,-1
 1606 1044 l 1,9,-1
 1837 1069 l 1,10,-1
 1634 63 l 2,0,1
305 1352 m 1,11,-1
 600 1352 l 1,12,-1
 895 295 l 1,13,-1
 1071 1352 l 1,14,-1
 1270 1352 l 1,15,-1
 1024 0 l 1,16,-1
 756 0 l 1,17,-1
 438 1092 l 1,18,-1
 256 0 l 1,19,-1
 55 0 l 1,20,-1
 305 1352 l 1,11,-1
1776 1483 m 0,21,22
 1843 1483 1843 1483 1884 1450 c 128,-1,23
 1925 1417 1925 1417 1925 1356 c 0,24,25
 1925 1293 1925 1293 1881 1259 c 128,-1,26
 1837 1225 1837 1225 1769 1225 c 0,27,28
 1702 1225 1702 1225 1661 1258 c 128,-1,29
 1620 1291 1620 1291 1620 1352 c 0,30,31
 1620 1415 1620 1415 1664 1449 c 128,-1,32
 1708 1483 1708 1483 1776 1483 c 0,21,22
EndSplineSet
Validated: 8388609
Position2: "'cpsp' Capital Spacing lookup 3 subtable" dx=10 dy=0 dh=20 dv=0
EndChar

StartChar: Ntilde
Encoding: 209 209 85
Width: 1329
Flags: MW
HStem: 1092 260<438 438> 1311 41G<305 600 600 600 1071 1270 1270 1270> 1485 174<985 1054 985 1055> 1518 174<641 709>
VStem: 55 1214
LayerCount: 2
Fore
SplineSet
305 1352 m 1,0,-1
 600 1352 l 1,1,-1
 895 295 l 1,2,-1
 1071 1352 l 1,3,-1
 1270 1352 l 1,4,-1
 1024 0 l 1,5,-1
 756 0 l 1,6,-1
 438 1092 l 1,7,-1
 256 0 l 1,8,-1
 55 0 l 1,9,-1
 305 1352 l 1,0,-1
1133 1692 m 1,10,11
 1165 1655 1165 1655 1165 1608 c 0,12,13
 1165 1549 1165 1549 1122.5 1517 c 128,-1,14
 1080 1485 1080 1485 1008 1485 c 0,15,16
 966 1485 966 1485 837.5 1501.5 c 128,-1,17
 709 1518 709 1518 668 1518 c 0,18,19
 592 1518 592 1518 553 1487 c 1,20,21
 518 1538 518 1538 518 1581 c 0,22,23
 518 1634 518 1634 561 1663 c 128,-1,24
 604 1692 604 1692 682 1692 c 0,25,26
 730 1692 730 1692 858 1675.5 c 128,-1,27
 986 1659 986 1659 1030 1659 c 0,28,29
 1109 1659 1109 1659 1133 1692 c 1,10,11
EndSplineSet
Validated: 8388609
Position2: "'cpsp' Capital Spacing lookup 3 subtable" dx=10 dy=0 dh=20 dv=0
EndChar

StartChar: O
Encoding: 79 79 86
Width: 1210
Flags: MW
HStem: -41 145<430 610 430 705> 1249 143<605 780>
VStem: 53 256<299 442 299 646> 901 256<911 1055>
LayerCount: 2
Fore
SplineSet
707 1249 m 0,0,1
 634 1249 634 1249 576.5 1213.5 c 128,-1,2
 519 1178 519 1178 479.5 1113 c 128,-1,3
 440 1048 440 1048 415 979 c 128,-1,4
 390 910 390 910 369 821 c 0,5,6
 309 571 309 571 309 379 c 0,7,8
 309 104 309 104 504 104 c 0,9,10
 565 104 565 104 616.5 131.5 c 128,-1,11
 668 159 668 159 702.5 200 c 128,-1,12
 737 241 737 241 766 302 c 128,-1,13
 795 363 795 363 811 415.5 c 128,-1,14
 827 468 827 468 842 532 c 0,15,16
 867 634 867 634 884 759 c 128,-1,17
 901 884 901 884 901 975 c 0,18,19
 901 1249 901 1249 707 1249 c 0,0,1
760 1393 m 0,20,21
 967 1393 967 1393 1062 1273 c 128,-1,22
 1157 1153 1157 1153 1157 915 c 0,23,24
 1157 810 1157 810 1139.5 702.5 c 128,-1,25
 1122 595 1122 595 1087 486.5 c 128,-1,26
 1052 378 1052 378 994 284 c 128,-1,27
 936 190 936 190 860.5 116.5 c 128,-1,28
 785 43 785 43 679.5 1 c 128,-1,29
 574 -41 574 -41 451 -41 c 0,30,31
 243 -41 243 -41 148 79 c 128,-1,32
 53 199 53 199 53 438 c 0,33,34
 53 567 53 567 77.5 697 c 128,-1,35
 102 827 102 827 158 953.5 c 128,-1,36
 214 1080 214 1080 294 1177 c 128,-1,37
 374 1274 374 1274 494.5 1333.5 c 128,-1,38
 615 1393 615 1393 760 1393 c 0,20,21
EndSplineSet
Validated: 1
Substitution2: "Single Substitution lookup 21 subtable" ordmasculine
Substitution2: "'aalt' Access All Alternates lookup 0 subtable" ordmasculine
Position2: "'cpsp' Capital Spacing lookup 3 subtable" dx=10 dy=0 dh=20 dv=0
EndChar

StartChar: Oacute
Encoding: 211 211 87
Width: 1210
Flags: MW
HStem: -41 145<430 610 430 705> 1249 143<605 780>
VStem: 53 256<299 442 299 646> 901 256<911 1055>
LayerCount: 2
Fore
SplineSet
707 1249 m 0,0,1
 634 1249 634 1249 576.5 1213.5 c 128,-1,2
 519 1178 519 1178 479.5 1113 c 128,-1,3
 440 1048 440 1048 415 979 c 128,-1,4
 390 910 390 910 369 821 c 0,5,6
 309 571 309 571 309 379 c 0,7,8
 309 104 309 104 504 104 c 0,9,10
 565 104 565 104 616.5 131.5 c 128,-1,11
 668 159 668 159 702.5 200 c 128,-1,12
 737 241 737 241 766 302 c 128,-1,13
 795 363 795 363 811 415.5 c 128,-1,14
 827 468 827 468 842 532 c 0,15,16
 867 634 867 634 884 759 c 128,-1,17
 901 884 901 884 901 975 c 0,18,19
 901 1249 901 1249 707 1249 c 0,0,1
760 1393 m 0,20,21
 967 1393 967 1393 1062 1273 c 128,-1,22
 1157 1153 1157 1153 1157 915 c 0,23,24
 1157 810 1157 810 1139.5 702.5 c 128,-1,25
 1122 595 1122 595 1087 486.5 c 128,-1,26
 1052 378 1052 378 994 284 c 128,-1,27
 936 190 936 190 860.5 116.5 c 128,-1,28
 785 43 785 43 679.5 1 c 128,-1,29
 574 -41 574 -41 451 -41 c 0,30,31
 243 -41 243 -41 148 79 c 128,-1,32
 53 199 53 199 53 438 c 0,33,34
 53 567 53 567 77.5 697 c 128,-1,35
 102 827 102 827 158 953.5 c 128,-1,36
 214 1080 214 1080 294 1177 c 128,-1,37
 374 1274 374 1274 494.5 1333.5 c 128,-1,38
 615 1393 615 1393 760 1393 c 0,20,21
616 1548 m 1,39,-1
 1096 1731 l 1,40,41
 1141 1702 1141 1702 1141 1638 c 0,42,43
 1141 1598 1141 1598 1123.5 1568 c 128,-1,44
 1106 1538 1106 1538 1081 1521.5 c 128,-1,45
 1056 1505 1056 1505 1016.5 1494 c 128,-1,46
 977 1483 977 1483 944.5 1479 c 128,-1,47
 912 1475 912 1475 868 1473 c 2,48,-1
 633 1460 l 1,49,-1
 616 1548 l 1,39,-1
EndSplineSet
Validated: 1
Substitution2: "'locl' Localized Forms in Latin lookup 13 subtable" Oacute.loclPLK
Substitution2: "'aalt' Access All Alternates lookup 0 subtable" Oacute.loclPLK
Position2: "'cpsp' Capital Spacing lookup 3 subtable" dx=10 dy=0 dh=20 dv=0
EndChar

StartChar: Obreve
Encoding: 334 334 88
Width: 1210
Flags: MW
HStem: -41 145<430 610 430 705> 1249 143<605 780> 1432 100<770 850 770 881>
VStem: 53 256<299 442 299 646> 524 176<1611 1653 1611 1657> 901 256<911 1055>
LayerCount: 2
Fore
SplineSet
707 1249 m 0,0,1
 634 1249 634 1249 576.5 1213.5 c 128,-1,2
 519 1178 519 1178 479.5 1113 c 128,-1,3
 440 1048 440 1048 415 979 c 128,-1,4
 390 910 390 910 369 821 c 0,5,6
 309 571 309 571 309 379 c 0,7,8
 309 104 309 104 504 104 c 0,9,10
 565 104 565 104 616.5 131.5 c 128,-1,11
 668 159 668 159 702.5 200 c 128,-1,12
 737 241 737 241 766 302 c 128,-1,13
 795 363 795 363 811 415.5 c 128,-1,14
 827 468 827 468 842 532 c 0,15,16
 867 634 867 634 884 759 c 128,-1,17
 901 884 901 884 901 975 c 0,18,19
 901 1249 901 1249 707 1249 c 0,0,1
760 1393 m 0,20,21
 967 1393 967 1393 1062 1273 c 128,-1,22
 1157 1153 1157 1153 1157 915 c 0,23,24
 1157 810 1157 810 1139.5 702.5 c 128,-1,25
 1122 595 1122 595 1087 486.5 c 128,-1,26
 1052 378 1052 378 994 284 c 128,-1,27
 936 190 936 190 860.5 116.5 c 128,-1,28
 785 43 785 43 679.5 1 c 128,-1,29
 574 -41 574 -41 451 -41 c 0,30,31
 243 -41 243 -41 148 79 c 128,-1,32
 53 199 53 199 53 438 c 0,33,34
 53 567 53 567 77.5 697 c 128,-1,35
 102 827 102 827 158 953.5 c 128,-1,36
 214 1080 214 1080 294 1177 c 128,-1,37
 374 1274 374 1274 494.5 1333.5 c 128,-1,38
 615 1393 615 1393 760 1393 c 0,20,21
709 1704 m 1,39,40
 700 1660 700 1660 700 1645 c 0,41,42
 700 1593 700 1593 727 1562.5 c 128,-1,43
 754 1532 754 1532 803 1532 c 0,44,45
 869 1532 869 1532 919 1586 c 128,-1,46
 969 1640 969 1640 981 1704 c 1,47,-1
 1145 1704 l 1,48,49
 1122 1578 1122 1578 1025.5 1505 c 128,-1,50
 929 1432 929 1432 782 1432 c 0,51,52
 655 1432 655 1432 589.5 1488.5 c 128,-1,53
 524 1545 524 1545 524 1647 c 0,54,55
 524 1674 524 1674 530 1704 c 1,56,-1
 709 1704 l 1,39,40
EndSplineSet
Validated: 1
Position2: "'cpsp' Capital Spacing lookup 3 subtable" dx=10 dy=0 dh=20 dv=0
EndChar

StartChar: Ocircumflex
Encoding: 212 212 89
Width: 1210
Flags: MW
HStem: -41 145<430 610 430 705> 1249 143<605 780>
VStem: 53 256<299 442 299 646> 901 256<911 1055>
LayerCount: 2
Fore
SplineSet
707 1249 m 0,0,1
 634 1249 634 1249 576.5 1213.5 c 128,-1,2
 519 1178 519 1178 479.5 1113 c 128,-1,3
 440 1048 440 1048 415 979 c 128,-1,4
 390 910 390 910 369 821 c 0,5,6
 309 571 309 571 309 379 c 0,7,8
 309 104 309 104 504 104 c 0,9,10
 565 104 565 104 616.5 131.5 c 128,-1,11
 668 159 668 159 702.5 200 c 128,-1,12
 737 241 737 241 766 302 c 128,-1,13
 795 363 795 363 811 415.5 c 128,-1,14
 827 468 827 468 842 532 c 0,15,16
 867 634 867 634 884 759 c 128,-1,17
 901 884 901 884 901 975 c 0,18,19
 901 1249 901 1249 707 1249 c 0,0,1
760 1393 m 0,20,21
 967 1393 967 1393 1062 1273 c 128,-1,22
 1157 1153 1157 1153 1157 915 c 0,23,24
 1157 810 1157 810 1139.5 702.5 c 128,-1,25
 1122 595 1122 595 1087 486.5 c 128,-1,26
 1052 378 1052 378 994 284 c 128,-1,27
 936 190 936 190 860.5 116.5 c 128,-1,28
 785 43 785 43 679.5 1 c 128,-1,29
 574 -41 574 -41 451 -41 c 0,30,31
 243 -41 243 -41 148 79 c 128,-1,32
 53 199 53 199 53 438 c 0,33,34
 53 567 53 567 77.5 697 c 128,-1,35
 102 827 102 827 158 953.5 c 128,-1,36
 214 1080 214 1080 294 1177 c 128,-1,37
 374 1274 374 1274 494.5 1333.5 c 128,-1,38
 615 1393 615 1393 760 1393 c 0,20,21
989 1380 m 1,39,-1
 774 1528 l 1,40,-1
 508 1380 l 1,41,-1
 453 1481 l 1,42,-1
 786 1718 l 1,43,-1
 801 1718 l 1,44,-1
 1071 1479 l 1,45,-1
 989 1380 l 1,39,-1
EndSplineSet
Validated: 1
Position2: "'cpsp' Capital Spacing lookup 3 subtable" dx=10 dy=0 dh=20 dv=0
EndChar

StartChar: Odieresis
Encoding: 214 214 90
Width: 1210
Flags: MW
HStem: -41 145<430 610 430 705> 1249 143<605 780> 1489 258<537 616 965 1044>
VStem: 53 256<299 442 299 646> 424 307<1576 1660> 852 307<1576 1660> 901 256<911 1055>
LayerCount: 2
Fore
SplineSet
707 1249 m 0,0,1
 634 1249 634 1249 576.5 1213.5 c 128,-1,2
 519 1178 519 1178 479.5 1113 c 128,-1,3
 440 1048 440 1048 415 979 c 128,-1,4
 390 910 390 910 369 821 c 0,5,6
 309 571 309 571 309 379 c 0,7,8
 309 104 309 104 504 104 c 0,9,10
 565 104 565 104 616.5 131.5 c 128,-1,11
 668 159 668 159 702.5 200 c 128,-1,12
 737 241 737 241 766 302 c 128,-1,13
 795 363 795 363 811 415.5 c 128,-1,14
 827 468 827 468 842 532 c 0,15,16
 867 634 867 634 884 759 c 128,-1,17
 901 884 901 884 901 975 c 0,18,19
 901 1249 901 1249 707 1249 c 0,0,1
760 1393 m 0,20,21
 967 1393 967 1393 1062 1273 c 128,-1,22
 1157 1153 1157 1153 1157 915 c 0,23,24
 1157 810 1157 810 1139.5 702.5 c 128,-1,25
 1122 595 1122 595 1087 486.5 c 128,-1,26
 1052 378 1052 378 994 284 c 128,-1,27
 936 190 936 190 860.5 116.5 c 128,-1,28
 785 43 785 43 679.5 1 c 128,-1,29
 574 -41 574 -41 451 -41 c 0,30,31
 243 -41 243 -41 148 79 c 128,-1,32
 53 199 53 199 53 438 c 0,33,34
 53 567 53 567 77.5 697 c 128,-1,35
 102 827 102 827 158 953.5 c 128,-1,36
 214 1080 214 1080 294 1177 c 128,-1,37
 374 1274 374 1274 494.5 1333.5 c 128,-1,38
 615 1393 615 1393 760 1393 c 0,20,21
1008 1747 m 0,39,40
 1075 1747 1075 1747 1117 1714 c 128,-1,41
 1159 1681 1159 1681 1159 1620 c 0,42,43
 1159 1557 1159 1557 1114 1523 c 128,-1,44
 1069 1489 1069 1489 1001 1489 c 0,45,46
 934 1489 934 1489 893 1522 c 128,-1,47
 852 1555 852 1555 852 1616 c 0,48,49
 852 1679 852 1679 896 1713 c 128,-1,50
 940 1747 940 1747 1008 1747 c 0,39,40
580 1747 m 0,51,52
 647 1747 647 1747 689 1714 c 128,-1,53
 731 1681 731 1681 731 1620 c 0,54,55
 731 1557 731 1557 686 1523 c 128,-1,56
 641 1489 641 1489 573 1489 c 0,57,58
 506 1489 506 1489 465 1522 c 128,-1,59
 424 1555 424 1555 424 1616 c 0,60,61
 424 1679 424 1679 468 1713 c 128,-1,62
 512 1747 512 1747 580 1747 c 0,51,52
EndSplineSet
Validated: 8388609
Position2: "'cpsp' Capital Spacing lookup 3 subtable" dx=10 dy=0 dh=20 dv=0
EndChar

StartChar: Odotbelow
Encoding: 7884 7884 91
Width: 1210
Flags: MW
HStem: -369 258<373 453> -41 145<430 610 430 705> 1249 143<605 780>
VStem: 53 256<299 442 299 646> 260 305<-282 -198> 901 256<911 1055>
LayerCount: 2
Fore
SplineSet
416 -111 m 0,0,1
 483 -111 483 -111 524 -144 c 128,-1,2
 565 -177 565 -177 565 -238 c 0,3,4
 565 -301 565 -301 521.5 -335 c 128,-1,5
 478 -369 478 -369 410 -369 c 0,6,7
 343 -369 343 -369 301.5 -336 c 128,-1,8
 260 -303 260 -303 260 -242 c 0,9,10
 260 -179 260 -179 304 -145 c 128,-1,11
 348 -111 348 -111 416 -111 c 0,0,1
707 1249 m 0,12,13
 634 1249 634 1249 576.5 1213.5 c 128,-1,14
 519 1178 519 1178 479.5 1113 c 128,-1,15
 440 1048 440 1048 415 979 c 128,-1,16
 390 910 390 910 369 821 c 0,17,18
 309 571 309 571 309 379 c 0,19,20
 309 104 309 104 504 104 c 0,21,22
 565 104 565 104 616.5 131.5 c 128,-1,23
 668 159 668 159 702.5 200 c 128,-1,24
 737 241 737 241 766 302 c 128,-1,25
 795 363 795 363 811 415.5 c 128,-1,26
 827 468 827 468 842 532 c 0,27,28
 867 634 867 634 884 759 c 128,-1,29
 901 884 901 884 901 975 c 0,30,31
 901 1249 901 1249 707 1249 c 0,12,13
760 1393 m 0,32,33
 967 1393 967 1393 1062 1273 c 128,-1,34
 1157 1153 1157 1153 1157 915 c 0,35,36
 1157 810 1157 810 1139.5 702.5 c 128,-1,37
 1122 595 1122 595 1087 486.5 c 128,-1,38
 1052 378 1052 378 994 284 c 128,-1,39
 936 190 936 190 860.5 116.5 c 128,-1,40
 785 43 785 43 679.5 1 c 128,-1,41
 574 -41 574 -41 451 -41 c 0,42,43
 243 -41 243 -41 148 79 c 128,-1,44
 53 199 53 199 53 438 c 0,45,46
 53 567 53 567 77.5 697 c 128,-1,47
 102 827 102 827 158 953.5 c 128,-1,48
 214 1080 214 1080 294 1177 c 128,-1,49
 374 1274 374 1274 494.5 1333.5 c 128,-1,50
 615 1393 615 1393 760 1393 c 0,32,33
EndSplineSet
Validated: 8388609
Position2: "'cpsp' Capital Spacing lookup 3 subtable" dx=10 dy=0 dh=20 dv=0
EndChar

StartChar: Ograve
Encoding: 210 210 92
Width: 1210
Flags: MW
HStem: -41 145<430 610 430 705> 1249 143<605 780>
VStem: 53 256<299 442 299 646> 901 256<911 1055>
LayerCount: 2
Fore
SplineSet
707 1249 m 0,0,1
 634 1249 634 1249 576.5 1213.5 c 128,-1,2
 519 1178 519 1178 479.5 1113 c 128,-1,3
 440 1048 440 1048 415 979 c 128,-1,4
 390 910 390 910 369 821 c 0,5,6
 309 571 309 571 309 379 c 0,7,8
 309 104 309 104 504 104 c 0,9,10
 565 104 565 104 616.5 131.5 c 128,-1,11
 668 159 668 159 702.5 200 c 128,-1,12
 737 241 737 241 766 302 c 128,-1,13
 795 363 795 363 811 415.5 c 128,-1,14
 827 468 827 468 842 532 c 0,15,16
 867 634 867 634 884 759 c 128,-1,17
 901 884 901 884 901 975 c 0,18,19
 901 1249 901 1249 707 1249 c 0,0,1
760 1393 m 0,20,21
 967 1393 967 1393 1062 1273 c 128,-1,22
 1157 1153 1157 1153 1157 915 c 0,23,24
 1157 810 1157 810 1139.5 702.5 c 128,-1,25
 1122 595 1122 595 1087 486.5 c 128,-1,26
 1052 378 1052 378 994 284 c 128,-1,27
 936 190 936 190 860.5 116.5 c 128,-1,28
 785 43 785 43 679.5 1 c 128,-1,29
 574 -41 574 -41 451 -41 c 0,30,31
 243 -41 243 -41 148 79 c 128,-1,32
 53 199 53 199 53 438 c 0,33,34
 53 567 53 567 77.5 697 c 128,-1,35
 102 827 102 827 158 953.5 c 128,-1,36
 214 1080 214 1080 294 1177 c 128,-1,37
 374 1274 374 1274 494.5 1333.5 c 128,-1,38
 615 1393 615 1393 760 1393 c 0,20,21
944 1460 m 1,39,-1
 709 1473 l 2,40,41
 665 1475 665 1475 632.5 1479 c 128,-1,42
 600 1483 600 1483 560.5 1494 c 128,-1,43
 521 1505 521 1505 496 1521.5 c 128,-1,44
 471 1538 471 1538 453.5 1568 c 128,-1,45
 436 1598 436 1598 436 1638 c 0,46,47
 436 1702 436 1702 481 1731 c 1,48,-1
 961 1548 l 1,49,-1
 944 1460 l 1,39,-1
EndSplineSet
Validated: 1
Position2: "'cpsp' Capital Spacing lookup 3 subtable" dx=10 dy=0 dh=20 dv=0
EndChar

StartChar: Ohungarumlaut
Encoding: 336 336 93
Width: 1210
Flags: MW
HStem: -41 145<430 610 430 705> 1249 143<605 780>
VStem: 53 256<299 442 299 646> 901 256<911 1055>
LayerCount: 2
Fore
SplineSet
707 1249 m 0,0,1
 634 1249 634 1249 576.5 1213.5 c 128,-1,2
 519 1178 519 1178 479.5 1113 c 128,-1,3
 440 1048 440 1048 415 979 c 128,-1,4
 390 910 390 910 369 821 c 0,5,6
 309 571 309 571 309 379 c 0,7,8
 309 104 309 104 504 104 c 0,9,10
 565 104 565 104 616.5 131.5 c 128,-1,11
 668 159 668 159 702.5 200 c 128,-1,12
 737 241 737 241 766 302 c 128,-1,13
 795 363 795 363 811 415.5 c 128,-1,14
 827 468 827 468 842 532 c 0,15,16
 867 634 867 634 884 759 c 128,-1,17
 901 884 901 884 901 975 c 0,18,19
 901 1249 901 1249 707 1249 c 0,0,1
760 1393 m 0,20,21
 967 1393 967 1393 1062 1273 c 128,-1,22
 1157 1153 1157 1153 1157 915 c 0,23,24
 1157 810 1157 810 1139.5 702.5 c 128,-1,25
 1122 595 1122 595 1087 486.5 c 128,-1,26
 1052 378 1052 378 994 284 c 128,-1,27
 936 190 936 190 860.5 116.5 c 128,-1,28
 785 43 785 43 679.5 1 c 128,-1,29
 574 -41 574 -41 451 -41 c 0,30,31
 243 -41 243 -41 148 79 c 128,-1,32
 53 199 53 199 53 438 c 0,33,34
 53 567 53 567 77.5 697 c 128,-1,35
 102 827 102 827 158 953.5 c 128,-1,36
 214 1080 214 1080 294 1177 c 128,-1,37
 374 1274 374 1274 494.5 1333.5 c 128,-1,38
 615 1393 615 1393 760 1393 c 0,20,21
1208 1735 m 1,39,40
 1257 1701 1257 1701 1257 1636 c 0,41,42
 1257 1573 1257 1573 1217.5 1536.5 c 128,-1,43
 1178 1500 1178 1500 1090 1481 c 2,44,-1
 930 1448 l 1,45,-1
 887 1516 l 1,46,-1
 1208 1735 l 1,39,40
834 1735 m 1,47,48
 881 1698 881 1698 881 1634 c 0,49,50
 881 1572 881 1572 840.5 1536 c 128,-1,51
 800 1500 800 1500 711 1481 c 2,52,-1
 555 1448 l 1,53,-1
 510 1516 l 1,54,-1
 834 1735 l 1,47,48
EndSplineSet
Validated: 1
Position2: "'cpsp' Capital Spacing lookup 3 subtable" dx=10 dy=0 dh=20 dv=0
EndChar

StartChar: Omacron
Encoding: 332 332 94
Width: 1210
Flags: MW
HStem: -41 145<430 610 430 705> 1249 143<605 780> 1503 168<625 936 504 1069>
VStem: 53 256<299 442 299 646> 901 256<911 1055>
LayerCount: 2
Fore
SplineSet
707 1249 m 0,0,1
 634 1249 634 1249 576.5 1213.5 c 128,-1,2
 519 1178 519 1178 479.5 1113 c 128,-1,3
 440 1048 440 1048 415 979 c 128,-1,4
 390 910 390 910 369 821 c 0,5,6
 309 571 309 571 309 379 c 0,7,8
 309 104 309 104 504 104 c 0,9,10
 565 104 565 104 616.5 131.5 c 128,-1,11
 668 159 668 159 702.5 200 c 128,-1,12
 737 241 737 241 766 302 c 128,-1,13
 795 363 795 363 811 415.5 c 128,-1,14
 827 468 827 468 842 532 c 0,15,16
 867 634 867 634 884 759 c 128,-1,17
 901 884 901 884 901 975 c 0,18,19
 901 1249 901 1249 707 1249 c 0,0,1
760 1393 m 0,20,21
 967 1393 967 1393 1062 1273 c 128,-1,22
 1157 1153 1157 1153 1157 915 c 0,23,24
 1157 810 1157 810 1139.5 702.5 c 128,-1,25
 1122 595 1122 595 1087 486.5 c 128,-1,26
 1052 378 1052 378 994 284 c 128,-1,27
 936 190 936 190 860.5 116.5 c 128,-1,28
 785 43 785 43 679.5 1 c 128,-1,29
 574 -41 574 -41 451 -41 c 0,30,31
 243 -41 243 -41 148 79 c 128,-1,32
 53 199 53 199 53 438 c 0,33,34
 53 567 53 567 77.5 697 c 128,-1,35
 102 827 102 827 158 953.5 c 128,-1,36
 214 1080 214 1080 294 1177 c 128,-1,37
 374 1274 374 1274 494.5 1333.5 c 128,-1,38
 615 1393 615 1393 760 1393 c 0,20,21
1069 1671 m 1,39,40
 1075 1650 1075 1650 1075 1622 c 0,41,42
 1075 1568 1075 1568 1039.5 1535.5 c 128,-1,43
 1004 1503 1004 1503 936 1503 c 2,44,-1
 504 1503 l 1,45,46
 500 1519 500 1519 500 1552 c 0,47,48
 501 1607 501 1607 535 1639 c 128,-1,49
 569 1671 569 1671 625 1671 c 2,50,-1
 1069 1671 l 1,39,40
EndSplineSet
Validated: 1
Position2: "'cpsp' Capital Spacing lookup 3 subtable" dx=10 dy=0 dh=20 dv=0
EndChar

StartChar: Oogonek
Encoding: 490 490 95
Width: 1210
Flags: MW
HStem: -528 127<601 662> -41 145<430 461> 1249 143<605 780>
VStem: 53 256<299 442 299 646> 375 150<-322 -251> 901 256<911 1055>
LayerCount: 2
Fore
SplineSet
309 379 m 0,0,1
 309 104 309 104 504 104 c 0,2,3
 565 104 565 104 616.5 131.5 c 128,-1,4
 668 159 668 159 702.5 200 c 128,-1,5
 737 241 737 241 766 302 c 128,-1,6
 795 363 795 363 811 415.5 c 128,-1,7
 827 468 827 468 842 532 c 0,8,9
 867 634 867 634 884 759 c 128,-1,10
 901 884 901 884 901 975 c 0,11,12
 901 1249 901 1249 707 1249 c 0,13,14
 634 1249 634 1249 576.5 1213.5 c 128,-1,15
 519 1178 519 1178 479.5 1113 c 128,-1,16
 440 1048 440 1048 415 979 c 128,-1,17
 390 910 390 910 369 821 c 0,18,19
 309 571 309 571 309 379 c 0,0,1
719 18 m 1,20,21
 631 -34 631 -34 577.5 -115 c 128,-1,22
 524 -196 524 -196 524 -281 c 0,23,24
 524 -344 524 -344 552 -372.5 c 128,-1,25
 580 -401 580 -401 645 -401 c 0,26,27
 718 -401 718 -401 752 -350 c 1,28,29
 784 -375 784 -375 784 -410 c 0,30,31
 784 -460 784 -460 735 -494 c 128,-1,32
 686 -528 686 -528 610 -528 c 0,33,34
 503 -528 503 -528 439 -469.5 c 128,-1,35
 375 -411 375 -411 375 -307 c 0,36,37
 375 -153 375 -153 512 -39 c 1,38,39
 494 -41 494 -41 451 -41 c 0,40,41
 243 -41 243 -41 148 79 c 128,-1,42
 53 199 53 199 53 438 c 0,43,44
 53 567 53 567 77.5 697 c 128,-1,45
 102 827 102 827 158 953.5 c 128,-1,46
 214 1080 214 1080 294 1177 c 128,-1,47
 374 1274 374 1274 494.5 1333.5 c 128,-1,48
 615 1393 615 1393 760 1393 c 0,49,50
 967 1393 967 1393 1062 1273 c 128,-1,51
 1157 1153 1157 1153 1157 915 c 0,52,53
 1157 788 1157 788 1131.5 658 c 128,-1,54
 1106 528 1106 528 1055.5 403.5 c 128,-1,55
 1005 279 1005 279 918 176 c 128,-1,56
 831 73 831 73 719 18 c 1,20,21
EndSplineSet
Validated: 1
Position2: "'cpsp' Capital Spacing lookup 3 subtable" dx=10 dy=0 dh=20 dv=0
EndChar

StartChar: Oslash
Encoding: 216 216 96
Width: 1245
Flags: MW
HStem: -41 145<482 697 482 739> 1249 143<639 790> 1419 41G<1217 1234>
VStem: 88 260<481 481 481 646> 934 258<913 913>
LayerCount: 2
Fore
SplineSet
354 272 m 1,0,1
 384 104 384 104 537 104 c 0,2,3
 594 104 594 104 643 125 c 128,-1,4
 692 146 692 146 728.5 195 c 128,-1,5
 765 244 765 244 793 285.5 c 128,-1,6
 821 327 821 327 843.5 408 c 128,-1,7
 866 489 866 489 878.5 532 c 128,-1,8
 891 575 891 575 904 668.5 c 128,-1,9
 917 762 917 762 920 786.5 c 128,-1,10
 923 811 923 811 932.254296474 895.881349492 c 0,11,12
 933 900 933 900 933 902 c 128,-1,13
 933 904 933 904 933.5 907 c 128,-1,14
 934 910 934 910 934 913 c 1,15,-1
 354 272 l 1,0,1
918 1116 m 1,16,17
 877 1249 877 1249 739 1249 c 0,18,19
 681 1249 681 1249 631.5 1224.5 c 128,-1,20
 582 1200 582 1200 547.5 1160.5 c 128,-1,21
 513 1121 513 1121 484.5 1063 c 128,-1,22
 456 1005 456 1005 437.5 948 c 128,-1,23
 419 891 419 891 403 821 c 0,24,25
 363 652 363 652 348 481 c 1,26,-1
 918 1116 l 1,16,17
1126 1348 m 1,27,28
 1179 1406 1179 1406 1217 1460 c 1,29,30
 1246 1460 1246 1460 1273 1432 c 128,-1,31
 1300 1404 1300 1404 1300 1364 c 0,32,33
 1300 1320 1300 1320 1262 1276 c 1,34,-1
 1157 1159 l 1,35,36
 1192 1064 1192 1064 1192 915 c 0,37,38
 1192 825 1192 825 1179.5 733.5 c 128,-1,39
 1167 642 1167 642 1140 547.5 c 128,-1,40
 1113 453 1113 453 1073.5 367.5 c 128,-1,41
 1034 282 1034 282 976 207 c 128,-1,42
 918 132 918 132 847.5 77 c 128,-1,43
 777 22 777 22 684 -9.5 c 128,-1,44
 591 -41 591 -41 485 -41 c 0,45,46
 277 -41 277 -41 182 80 c 1,47,-1
 117 10 l 2,48,49
 69 -42 69 -42 27 -111 c 1,50,51
 -11 -111 -11 -111 -34 -86.5 c 128,-1,52
 -57 -62 -57 -62 -59 -25 c 1,53,54
 -59 26 -59 26 -23 68 c 1,55,-1
 115 219 l 1,56,57
 88 313 88 313 88 438 c 0,58,59
 88 567 88 567 112.5 697 c 128,-1,60
 137 827 137 827 193 953.5 c 128,-1,61
 249 1080 249 1080 329 1177 c 128,-1,62
 409 1274 409 1274 529.5 1333.5 c 128,-1,63
 650 1393 650 1393 795 1393 c 0,64,65
 981 1393 981 1393 1077 1292 c 1,66,-1
 1126 1348 l 1,27,28
EndSplineSet
Validated: 524289
Position2: "'cpsp' Capital Spacing lookup 3 subtable" dx=10 dy=0 dh=20 dv=0
EndChar

StartChar: Oslashacute
Encoding: 510 510 97
Width: 1245
Flags: MW
HStem: -41 145<482 697 482 739> 1249 143<639 790> 1419 41G<616 616 1217 1234>
VStem: 88 260<481 481 481 646> 934 258<913 913>
LayerCount: 2
Fore
SplineSet
354 272 m 1,0,1
 384 104 384 104 537 104 c 0,2,3
 594 104 594 104 643 125 c 128,-1,4
 692 146 692 146 728.5 195 c 128,-1,5
 765 244 765 244 793 285.5 c 128,-1,6
 821 327 821 327 843.5 408 c 128,-1,7
 866 489 866 489 878.5 532 c 128,-1,8
 891 575 891 575 904 668.5 c 128,-1,9
 917 762 917 762 920 786.5 c 128,-1,10
 923 811 923 811 932.254296474 895.881349492 c 0,11,12
 933 900 933 900 933 902 c 128,-1,13
 933 904 933 904 933.5 907 c 128,-1,14
 934 910 934 910 934 913 c 1,15,-1
 354 272 l 1,0,1
918 1116 m 1,16,17
 877 1249 877 1249 739 1249 c 0,18,19
 681 1249 681 1249 631.5 1224.5 c 128,-1,20
 582 1200 582 1200 547.5 1160.5 c 128,-1,21
 513 1121 513 1121 484.5 1063 c 128,-1,22
 456 1005 456 1005 437.5 948 c 128,-1,23
 419 891 419 891 403 821 c 0,24,25
 363 652 363 652 348 481 c 1,26,-1
 918 1116 l 1,16,17
1126 1348 m 1,27,28
 1179 1406 1179 1406 1217 1460 c 1,29,30
 1246 1460 1246 1460 1273 1432 c 128,-1,31
 1300 1404 1300 1404 1300 1364 c 0,32,33
 1300 1320 1300 1320 1262 1276 c 1,34,-1
 1157 1159 l 1,35,36
 1192 1064 1192 1064 1192 915 c 0,37,38
 1192 825 1192 825 1179.5 733.5 c 128,-1,39
 1167 642 1167 642 1140 547.5 c 128,-1,40
 1113 453 1113 453 1073.5 367.5 c 128,-1,41
 1034 282 1034 282 976 207 c 128,-1,42
 918 132 918 132 847.5 77 c 128,-1,43
 777 22 777 22 684 -9.5 c 128,-1,44
 591 -41 591 -41 485 -41 c 0,45,46
 277 -41 277 -41 182 80 c 1,47,-1
 117 10 l 2,48,49
 69 -42 69 -42 27 -111 c 1,50,51
 -11 -111 -11 -111 -34 -86.5 c 128,-1,52
 -57 -62 -57 -62 -59 -25 c 1,53,54
 -59 26 -59 26 -23 68 c 1,55,-1
 115 219 l 1,56,57
 88 313 88 313 88 438 c 0,58,59
 88 567 88 567 112.5 697 c 128,-1,60
 137 827 137 827 193 953.5 c 128,-1,61
 249 1080 249 1080 329 1177 c 128,-1,62
 409 1274 409 1274 529.5 1333.5 c 128,-1,63
 650 1393 650 1393 795 1393 c 0,64,65
 981 1393 981 1393 1077 1292 c 1,66,-1
 1126 1348 l 1,27,28
600 1548 m 1,67,-1
 1079 1731 l 1,68,69
 1124 1702 1124 1702 1124 1638 c 0,70,71
 1124 1598 1124 1598 1107 1568 c 128,-1,72
 1090 1538 1090 1538 1064.5 1521.5 c 128,-1,73
 1039 1505 1039 1505 1000 1494 c 128,-1,74
 961 1483 961 1483 928.5 1479 c 128,-1,75
 896 1475 896 1475 852 1473 c 2,76,-1
 616 1460 l 1,77,-1
 600 1548 l 1,67,-1
EndSplineSet
Validated: 524289
Position2: "'cpsp' Capital Spacing lookup 3 subtable" dx=10 dy=0 dh=20 dv=0
EndChar

StartChar: Otilde
Encoding: 213 213 98
Width: 1210
Flags: MW
HStem: -41 145<430 610 430 705> 1249 143<605 780> 1485 174<948 1017 948 1018> 1518 174<604 672>
VStem: 53 256<299 442 299 646> 901 256<911 1055>
LayerCount: 2
Fore
SplineSet
707 1249 m 0,0,1
 634 1249 634 1249 576.5 1213.5 c 128,-1,2
 519 1178 519 1178 479.5 1113 c 128,-1,3
 440 1048 440 1048 415 979 c 128,-1,4
 390 910 390 910 369 821 c 0,5,6
 309 571 309 571 309 379 c 0,7,8
 309 104 309 104 504 104 c 0,9,10
 565 104 565 104 616.5 131.5 c 128,-1,11
 668 159 668 159 702.5 200 c 128,-1,12
 737 241 737 241 766 302 c 128,-1,13
 795 363 795 363 811 415.5 c 128,-1,14
 827 468 827 468 842 532 c 0,15,16
 867 634 867 634 884 759 c 128,-1,17
 901 884 901 884 901 975 c 0,18,19
 901 1249 901 1249 707 1249 c 0,0,1
760 1393 m 0,20,21
 967 1393 967 1393 1062 1273 c 128,-1,22
 1157 1153 1157 1153 1157 915 c 0,23,24
 1157 810 1157 810 1139.5 702.5 c 128,-1,25
 1122 595 1122 595 1087 486.5 c 128,-1,26
 1052 378 1052 378 994 284 c 128,-1,27
 936 190 936 190 860.5 116.5 c 128,-1,28
 785 43 785 43 679.5 1 c 128,-1,29
 574 -41 574 -41 451 -41 c 0,30,31
 243 -41 243 -41 148 79 c 128,-1,32
 53 199 53 199 53 438 c 0,33,34
 53 567 53 567 77.5 697 c 128,-1,35
 102 827 102 827 158 953.5 c 128,-1,36
 214 1080 214 1080 294 1177 c 128,-1,37
 374 1274 374 1274 494.5 1333.5 c 128,-1,38
 615 1393 615 1393 760 1393 c 0,20,21
1096 1692 m 1,39,40
 1128 1655 1128 1655 1128 1608 c 0,41,42
 1128 1549 1128 1549 1085.5 1517 c 128,-1,43
 1043 1485 1043 1485 971 1485 c 0,44,45
 929 1485 929 1485 800.5 1501.5 c 128,-1,46
 672 1518 672 1518 631 1518 c 0,47,48
 555 1518 555 1518 516 1487 c 1,49,50
 481 1538 481 1538 481 1581 c 0,51,52
 481 1634 481 1634 524 1663 c 128,-1,53
 567 1692 567 1692 645 1692 c 0,54,55
 692 1692 692 1692 820 1675.5 c 128,-1,56
 948 1659 948 1659 993 1659 c 0,57,58
 1072 1659 1072 1659 1096 1692 c 1,39,40
EndSplineSet
Validated: 8388609
Position2: "'cpsp' Capital Spacing lookup 3 subtable" dx=10 dy=0 dh=20 dv=0
EndChar

StartChar: OE
Encoding: 338 338 99
Width: 1619
Flags: MW
HStem: -41 145<428 546> -41 178<1228 1255> 604 168<1269 1360> 1157 195<1397 1502> 1212 139<1161 1161> 1247 145<603 779>
VStem: 51 258<307 446 307 652>
LayerCount: 2
Fore
SplineSet
502 104 m 0,0,1
 738 104 738 104 838 535 c 1,2,3
 863 636 863 636 880 757.5 c 128,-1,4
 897 879 897 879 897 967 c 0,5,6
 897 1247 897 1247 707 1247 c 0,7,8
 647 1247 647 1247 596.5 1220 c 128,-1,9
 546 1193 546 1193 511.5 1152 c 128,-1,10
 477 1111 477 1111 448 1051 c 128,-1,11
 419 991 419 991 401.5 936.5 c 128,-1,12
 384 882 384 882 369 817 c 0,13,14
 309 571 309 571 309 385 c 0,15,16
 309 104 309 104 502 104 c 0,0,1
1501 772 m 1,17,18
 1501 604 1501 604 1303 604 c 0,19,20
 1196 604 1196 604 1110 643 c 1,21,22
 1085 392 1085 392 1085 342 c 0,23,24
 1085 226 1085 226 1136.5 181.5 c 128,-1,25
 1188 137 1188 137 1294 137 c 0,26,27
 1384 137 1384 137 1466 166 c 1,28,29
 1479 140 1479 140 1479 106 c 0,30,31
 1479 64 1479 64 1452 34 c 128,-1,32
 1425 4 1425 4 1381 -11.5 c 128,-1,33
 1337 -27 1337 -27 1291.5 -34 c 128,-1,34
 1246 -41 1246 -41 1198 -41 c 0,35,36
 1077 -41 1077 -41 993 2.5 c 128,-1,37
 909 46 909 46 872 129 c 1,38,39
 781 40 781 40 684 -0.5 c 128,-1,40
 587 -41 587 -41 463 -41 c 0,41,42
 245 -41 245 -41 148 75.5 c 128,-1,43
 51 192 51 192 51 432 c 0,44,45
 51 544 51 544 70.5 656.5 c 128,-1,46
 90 769 90 769 127 876.5 c 128,-1,47
 164 984 164 984 223 1077.5 c 128,-1,48
 282 1171 282 1171 356 1241.5 c 128,-1,49
 430 1312 430 1312 529.5 1352.5 c 128,-1,50
 629 1393 629 1393 741 1393 c 0,51,52
 866 1393 866 1393 956 1352 c 1,53,-1
 1659 1352 l 1,54,55
 1659 1256 1659 1256 1599 1206.5 c 128,-1,56
 1539 1157 1539 1157 1438 1157 c 0,57,58
 1377 1157 1377 1157 1297.5 1173 c 128,-1,59
 1218 1189 1218 1189 1161 1212 c 1,60,-1
 1122 772 l 1,61,-1
 1501 772 l 1,17,18
EndSplineSet
Validated: 8388609
Position2: "'cpsp' Capital Spacing lookup 3 subtable" dx=10 dy=0 dh=20 dv=0
EndChar

StartChar: P
Encoding: 80 80 100
Width: 1038
Flags: MW
HStem: 567 96<531 813> 1235 135<641 729>
VStem: 850 254<896 1085>
LayerCount: 2
Fore
SplineSet
45 0 m 1,0,-1
 305 1352 l 1,1,2
 498 1370 498 1370 651 1370 c 0,3,4
 738 1370 738 1370 803.5 1361.5 c 128,-1,5
 869 1353 869 1353 927.5 1330.5 c 128,-1,6
 986 1308 986 1308 1023.5 1270 c 128,-1,7
 1061 1232 1061 1232 1082.5 1171.5 c 128,-1,8
 1104 1111 1104 1111 1104 1028 c 0,9,10
 1104 827 1104 827 989 697 c 128,-1,11
 874 567 874 567 684 567 c 0,12,13
 638 567 638 567 599.5 575 c 128,-1,14
 561 583 561 583 527 606.5 c 128,-1,15
 493 630 493 630 485 668 c 1,16,17
 503 664 503 664 543 664 c 0,18,19
 683 664 683 664 766.5 753 c 128,-1,20
 850 842 850 842 850 1014 c 0,21,22
 850 1125 850 1125 805.5 1180 c 128,-1,23
 761 1235 761 1235 657 1235 c 0,24,25
 593 1235 593 1235 522 1221 c 1,26,-1
 285 0 l 1,27,-1
 45 0 l 1,0,-1
EndSplineSet
Validated: 1
Position2: "'cpsp' Capital Spacing lookup 3 subtable" dx=10 dy=0 dh=20 dv=0
EndChar

StartChar: Thorn
Encoding: 222 222 101
Width: 1026
Flags: MW
HStem: 305 98<478 764> 958 143<618 662> 1311 41G<305 549 549 549>
VStem: 801 254<636 812>
LayerCount: 2
Fore
SplineSet
498 1098 m 1,0,1
 592 1102 592 1102 639 1102 c 0,2,3
 854 1102 854 1102 954.5 1026 c 128,-1,4
 1055 950 1055 950 1055 770 c 0,5,6
 1055 566 1055 566 940.5 435.5 c 128,-1,7
 826 305 826 305 635 305 c 0,8,9
 589 305 589 305 550.5 313 c 128,-1,10
 512 321 512 321 478 344.5 c 128,-1,11
 444 368 444 368 436 406 c 1,12,13
 473 403 473 403 489 403 c 0,14,15
 641 403 641 403 721 490 c 128,-1,16
 801 577 801 577 801 731 c 0,17,18
 801 851 801 851 750 904.5 c 128,-1,19
 699 958 699 958 588 958 c 0,20,21
 530 958 530 958 469 944 c 1,22,-1
 285 0 l 1,23,-1
 45 0 l 1,24,-1
 305 1352 l 1,25,-1
 549 1352 l 1,26,-1
 498 1098 l 1,0,1
EndSplineSet
Validated: 1
Position2: "'cpsp' Capital Spacing lookup 3 subtable" dx=10 dy=0 dh=20 dv=0
EndChar

StartChar: Q
Encoding: 81 81 102
Width: 1212
Flags: MW
HStem: -301 209<814 923 811 963> 190 80 1249 143<644 819>
VStem: 84 260<384 465 367 636> 930 258<904 1046>
LayerCount: 2
Fore
SplineSet
791 1393 m 0,0,1
 998 1393 998 1393 1093 1274 c 128,-1,2
 1188 1155 1188 1155 1188 920 c 0,3,4
 1188 811 1188 811 1168.5 699 c 128,-1,5
 1149 587 1149 587 1112 479 c 128,-1,6
 1075 371 1075 371 1017 277 c 128,-1,7
 959 183 959 183 886 112 c 128,-1,8
 813 41 813 41 716 0 c 128,-1,9
 619 -41 619 -41 510 -41 c 1,10,11
 516 -42 516 -42 548 -48.5 c 128,-1,12
 580 -55 580 -55 602.5 -59.5 c 128,-1,13
 625 -64 625 -64 664.5 -71 c 128,-1,14
 704 -78 704 -78 736.5 -82 c 128,-1,15
 769 -86 769 -86 809.5 -89 c 128,-1,16
 850 -92 850 -92 885 -92 c 0,17,18
 1025 -92 1025 -92 1096 -47 c 1,19,20
 1122 -94 1122 -94 1122 -150 c 0,21,22
 1122 -231 1122 -231 1062 -266 c 128,-1,23
 1002 -301 1002 -301 907 -301 c 0,24,25
 811 -301 811 -301 618.5 -252 c 128,-1,26
 426 -203 426 -203 348 -203 c 0,27,28
 271 -203 271 -203 211 -227 c 1,29,30
 160 -183 160 -183 160 -109 c 0,31,32
 160 -74 160 -74 175 -47.5 c 128,-1,33
 190 -21 190 -21 210.5 -6 c 128,-1,34
 231 9 231 9 263 20 c 128,-1,35
 295 31 295 31 317.5 35 c 128,-1,36
 340 39 340 39 371 43 c 0,37,38
 427 51 427 51 469 60 c 128,-1,39
 511 69 511 69 557 86.5 c 128,-1,40
 603 104 603 104 637.5 127.5 c 128,-1,41
 672 151 672 151 707.5 187.5 c 128,-1,42
 743 224 743 224 771 272 c 128,-1,43
 799 320 799 320 824.5 386 c 128,-1,44
 850 452 850 452 870 535 c 0,45,46
 930 781 930 781 930 971 c 0,47,48
 930 1249 930 1249 745 1249 c 0,49,50
 505 1249 505 1249 401 819 c 0,51,52
 377 721 377 721 360.5 605.5 c 128,-1,53
 344 490 344 490 344 412 c 0,54,55
 344 342 344 342 363 310.5 c 128,-1,56
 382 279 382 279 436 270 c 1,57,58
 436 235 436 235 403 212.5 c 128,-1,59
 370 190 370 190 305 190 c 0,60,61
 84 190 84 190 84 483 c 0,62,63
 84 551 84 551 95 629.5 c 128,-1,64
 106 708 106 708 132 796.5 c 128,-1,65
 158 885 158 885 195.5 969 c 128,-1,66
 233 1053 233 1053 291 1130.5 c 128,-1,67
 349 1208 349 1208 419.5 1266 c 128,-1,68
 490 1324 490 1324 586 1358.5 c 128,-1,69
 682 1393 682 1393 791 1393 c 0,0,1
EndSplineSet
Validated: 1
Position2: "'cpsp' Capital Spacing lookup 3 subtable" dx=10 dy=0 dh=20 dv=0
EndChar

StartChar: R
Encoding: 82 82 103
Width: 1159
Flags: MW
HStem: 1235 135<617 713>
VStem: 848 256<909 1076>
LayerCount: 2
Fore
SplineSet
305 1352 m 1,0,1
 498 1370 498 1370 651 1370 c 0,2,3
 738 1370 738 1370 803.5 1361.5 c 128,-1,4
 869 1353 869 1353 927.5 1330.5 c 128,-1,5
 986 1308 986 1308 1023.5 1270 c 128,-1,6
 1061 1232 1061 1232 1082.5 1171.5 c 128,-1,7
 1104 1111 1104 1111 1104 1028 c 0,8,9
 1104 848 1104 848 1011 723.5 c 128,-1,10
 918 599 918 599 760 573 c 1,11,12
 853 355 853 355 941.5 229.5 c 128,-1,13
 1030 104 1030 104 1098 72 c 1,14,15
 1084 15 1084 15 1040.5 -12 c 128,-1,16
 997 -39 997 -39 938 -39 c 0,17,18
 892 -39 892 -39 853 -23 c 128,-1,19
 814 -7 814 -7 777.5 31.5 c 128,-1,20
 741 70 741 70 709 121.5 c 128,-1,21
 677 173 677 173 639.5 258.5 c 128,-1,22
 602 344 602 344 567 437 c 128,-1,23
 532 530 532 530 485 668 c 1,24,25
 510 666 510 666 537 666 c 0,26,27
 691 666 691 666 769.5 753 c 128,-1,28
 848 840 848 840 848 997 c 0,29,30
 848 1117 848 1117 798 1176 c 128,-1,31
 748 1235 748 1235 639 1235 c 0,32,33
 583 1235 583 1235 522 1221 c 1,34,-1
 285 0 l 1,35,-1
 45 0 l 1,36,-1
 305 1352 l 1,0,1
EndSplineSet
Validated: 1
Position2: "'cpsp' Capital Spacing lookup 3 subtable" dx=10 dy=0 dh=20 dv=0
EndChar

StartChar: Racute
Encoding: 340 340 104
Width: 1159
Flags: MW
HStem: 1235 135<617 713>
VStem: 848 256<909 1076>
LayerCount: 2
Fore
SplineSet
305 1352 m 1,0,1
 498 1370 498 1370 651 1370 c 0,2,3
 738 1370 738 1370 803.5 1361.5 c 128,-1,4
 869 1353 869 1353 927.5 1330.5 c 128,-1,5
 986 1308 986 1308 1023.5 1270 c 128,-1,6
 1061 1232 1061 1232 1082.5 1171.5 c 128,-1,7
 1104 1111 1104 1111 1104 1028 c 0,8,9
 1104 848 1104 848 1011 723.5 c 128,-1,10
 918 599 918 599 760 573 c 1,11,12
 853 355 853 355 941.5 229.5 c 128,-1,13
 1030 104 1030 104 1098 72 c 1,14,15
 1084 15 1084 15 1040.5 -12 c 128,-1,16
 997 -39 997 -39 938 -39 c 0,17,18
 892 -39 892 -39 853 -23 c 128,-1,19
 814 -7 814 -7 777.5 31.5 c 128,-1,20
 741 70 741 70 709 121.5 c 128,-1,21
 677 173 677 173 639.5 258.5 c 128,-1,22
 602 344 602 344 567 437 c 128,-1,23
 532 530 532 530 485 668 c 1,24,25
 510 666 510 666 537 666 c 0,26,27
 691 666 691 666 769.5 753 c 128,-1,28
 848 840 848 840 848 997 c 0,29,30
 848 1117 848 1117 798 1176 c 128,-1,31
 748 1235 748 1235 639 1235 c 0,32,33
 583 1235 583 1235 522 1221 c 1,34,-1
 285 0 l 1,35,-1
 45 0 l 1,36,-1
 305 1352 l 1,0,1
545 1548 m 1,37,-1
 1024 1731 l 1,38,39
 1069 1702 1069 1702 1069 1638 c 0,40,41
 1069 1598 1069 1598 1052 1568 c 128,-1,42
 1035 1538 1035 1538 1009.5 1521.5 c 128,-1,43
 984 1505 984 1505 945 1494 c 128,-1,44
 906 1483 906 1483 873.5 1479 c 128,-1,45
 841 1475 841 1475 797 1473 c 2,46,-1
 561 1460 l 1,47,-1
 545 1548 l 1,37,-1
EndSplineSet
Validated: 1
Position2: "'cpsp' Capital Spacing lookup 3 subtable" dx=10 dy=0 dh=20 dv=0
EndChar

StartChar: Rcaron
Encoding: 344 344 105
Width: 1159
Flags: MW
HStem: 1235 135<617 713>
VStem: 848 256<909 1076>
LayerCount: 2
Fore
SplineSet
305 1352 m 1,0,1
 498 1370 498 1370 651 1370 c 0,2,3
 738 1370 738 1370 803.5 1361.5 c 128,-1,4
 869 1353 869 1353 927.5 1330.5 c 128,-1,5
 986 1308 986 1308 1023.5 1270 c 128,-1,6
 1061 1232 1061 1232 1082.5 1171.5 c 128,-1,7
 1104 1111 1104 1111 1104 1028 c 0,8,9
 1104 848 1104 848 1011 723.5 c 128,-1,10
 918 599 918 599 760 573 c 1,11,12
 853 355 853 355 941.5 229.5 c 128,-1,13
 1030 104 1030 104 1098 72 c 1,14,15
 1084 15 1084 15 1040.5 -12 c 128,-1,16
 997 -39 997 -39 938 -39 c 0,17,18
 892 -39 892 -39 853 -23 c 128,-1,19
 814 -7 814 -7 777.5 31.5 c 128,-1,20
 741 70 741 70 709 121.5 c 128,-1,21
 677 173 677 173 639.5 258.5 c 128,-1,22
 602 344 602 344 567 437 c 128,-1,23
 532 530 532 530 485 668 c 1,24,25
 510 666 510 666 537 666 c 0,26,27
 691 666 691 666 769.5 753 c 128,-1,28
 848 840 848 840 848 997 c 0,29,30
 848 1117 848 1117 798 1176 c 128,-1,31
 748 1235 748 1235 639 1235 c 0,32,33
 583 1235 583 1235 522 1221 c 1,34,-1
 285 0 l 1,35,-1
 45 0 l 1,36,-1
 305 1352 l 1,0,1
518 1714 m 1,37,-1
 731 1608 l 1,38,-1
 997 1714 l 1,39,-1
 1053 1634 l 1,40,-1
 719 1417 l 1,41,-1
 707 1417 l 1,42,-1
 436 1636 l 1,43,-1
 518 1714 l 1,37,-1
EndSplineSet
Validated: 1
Position2: "'cpsp' Capital Spacing lookup 3 subtable" dx=10 dy=0 dh=20 dv=0
EndChar

StartChar: Rcommaaccent
Encoding: 342 342 106
Width: 1159
Flags: MW
HStem: 1235 135<617 713>
VStem: 422 205<-251 -184> 848 256<909 1076>
LayerCount: 2
Fore
SplineSet
627 -215 m 0,0,1
 627 -312 627 -312 544.5 -398.5 c 128,-1,2
 462 -485 462 -485 369 -485 c 0,3,4
 333 -485 333 -485 311 -463 c 1,5,6
 347 -413 347 -413 367 -380.5 c 128,-1,7
 387 -348 387 -348 404.5 -298 c 128,-1,8
 422 -248 422 -248 422 -199 c 0,9,10
 422 -161 422 -161 408 -123 c 1,11,12
 453 -100 453 -100 514 -100 c 0,13,14
 563 -100 563 -100 595 -129 c 128,-1,15
 627 -158 627 -158 627 -215 c 0,0,1
305 1352 m 1,16,17
 498 1370 498 1370 651 1370 c 0,18,19
 738 1370 738 1370 803.5 1361.5 c 128,-1,20
 869 1353 869 1353 927.5 1330.5 c 128,-1,21
 986 1308 986 1308 1023.5 1270 c 128,-1,22
 1061 1232 1061 1232 1082.5 1171.5 c 128,-1,23
 1104 1111 1104 1111 1104 1028 c 0,24,25
 1104 848 1104 848 1011 723.5 c 128,-1,26
 918 599 918 599 760 573 c 1,27,28
 853 355 853 355 941.5 229.5 c 128,-1,29
 1030 104 1030 104 1098 72 c 1,30,31
 1084 15 1084 15 1040.5 -12 c 128,-1,32
 997 -39 997 -39 938 -39 c 0,33,34
 892 -39 892 -39 853 -23 c 128,-1,35
 814 -7 814 -7 777.5 31.5 c 128,-1,36
 741 70 741 70 709 121.5 c 128,-1,37
 677 173 677 173 639.5 258.5 c 128,-1,38
 602 344 602 344 567 437 c 128,-1,39
 532 530 532 530 485 668 c 1,40,41
 510 666 510 666 537 666 c 0,42,43
 691 666 691 666 769.5 753 c 128,-1,44
 848 840 848 840 848 997 c 0,45,46
 848 1117 848 1117 798 1176 c 128,-1,47
 748 1235 748 1235 639 1235 c 0,48,49
 583 1235 583 1235 522 1221 c 1,50,-1
 285 0 l 1,51,-1
 45 0 l 1,52,-1
 305 1352 l 1,16,17
EndSplineSet
Validated: 1
Position2: "'cpsp' Capital Spacing lookup 3 subtable" dx=10 dy=0 dh=20 dv=0
EndChar

StartChar: Rdotbelow
Encoding: 7770 7770 107
Width: 1159
Flags: MW
HStem: -369 258<453 532> 1235 135<617 713>
VStem: 340 305<-282 -198> 848 256<909 1076>
LayerCount: 2
Fore
SplineSet
496 -111 m 0,0,1
 563 -111 563 -111 604 -144 c 128,-1,2
 645 -177 645 -177 645 -238 c 0,3,4
 645 -301 645 -301 601 -335 c 128,-1,5
 557 -369 557 -369 489 -369 c 0,6,7
 422 -369 422 -369 381 -336 c 128,-1,8
 340 -303 340 -303 340 -242 c 0,9,10
 340 -179 340 -179 384 -145 c 128,-1,11
 428 -111 428 -111 496 -111 c 0,0,1
305 1352 m 1,12,13
 498 1370 498 1370 651 1370 c 0,14,15
 738 1370 738 1370 803.5 1361.5 c 128,-1,16
 869 1353 869 1353 927.5 1330.5 c 128,-1,17
 986 1308 986 1308 1023.5 1270 c 128,-1,18
 1061 1232 1061 1232 1082.5 1171.5 c 128,-1,19
 1104 1111 1104 1111 1104 1028 c 0,20,21
 1104 848 1104 848 1011 723.5 c 128,-1,22
 918 599 918 599 760 573 c 1,23,24
 853 355 853 355 941.5 229.5 c 128,-1,25
 1030 104 1030 104 1098 72 c 1,26,27
 1084 15 1084 15 1040.5 -12 c 128,-1,28
 997 -39 997 -39 938 -39 c 0,29,30
 892 -39 892 -39 853 -23 c 128,-1,31
 814 -7 814 -7 777.5 31.5 c 128,-1,32
 741 70 741 70 709 121.5 c 128,-1,33
 677 173 677 173 639.5 258.5 c 128,-1,34
 602 344 602 344 567 437 c 128,-1,35
 532 530 532 530 485 668 c 1,36,37
 510 666 510 666 537 666 c 0,38,39
 691 666 691 666 769.5 753 c 128,-1,40
 848 840 848 840 848 997 c 0,41,42
 848 1117 848 1117 798 1176 c 128,-1,43
 748 1235 748 1235 639 1235 c 0,44,45
 583 1235 583 1235 522 1221 c 1,46,-1
 285 0 l 1,47,-1
 45 0 l 1,48,-1
 305 1352 l 1,12,13
EndSplineSet
Validated: 1
Position2: "'cpsp' Capital Spacing lookup 3 subtable" dx=10 dy=0 dh=20 dv=0
EndChar

StartChar: S
Encoding: 83 83 108
Width: 1034
Flags: MW
HStem: -45 133<396 503 396 532> 1264 129<537 637>
VStem: 20 254<182 249 182 284> 174 231<1000 1124 1000 1124> 672 233<238 366> 735 254<1099 1164>
LayerCount: 2
Fore
SplineSet
664 1393 m 0,0,1
 813 1393 813 1393 901 1333 c 128,-1,2
 989 1273 989 1273 989 1151 c 0,3,4
 989 1052 989 1052 933 997 c 128,-1,5
 877 942 877 942 803 942 c 0,6,7
 747 942 747 942 705 969 c 1,8,9
 735 1044 735 1044 735 1120 c 0,10,11
 735 1186 735 1186 697 1225 c 128,-1,12
 659 1264 659 1264 592 1264 c 0,13,14
 510 1264 510 1264 458 1208.5 c 128,-1,15
 406 1153 406 1153 406 1069 c 0,16,17
 406 1029 406 1029 420 991.5 c 128,-1,18
 434 954 434 954 452.5 926.5 c 128,-1,19
 471 899 471 899 506.5 865.5 c 128,-1,20
 542 832 542 832 567 812.5 c 128,-1,21
 592 793 592 793 637 760 c 0,22,23
 687 722 687 722 715.5 699.5 c 128,-1,24
 744 677 744 677 785.5 636 c 128,-1,25
 827 595 827 595 849 559 c 128,-1,26
 871 523 871 523 888 472 c 128,-1,27
 905 421 905 421 905 365 c 0,28,29
 905 242 905 242 833 147 c 128,-1,30
 761 52 761 52 647.5 3.5 c 128,-1,31
 534 -45 534 -45 401 -45 c 0,32,33
 298 -45 298 -45 213.5 -16.5 c 128,-1,34
 129 12 129 12 74.5 74 c 128,-1,35
 20 136 20 136 20 221 c 0,36,37
 20 309 20 309 74 357.5 c 128,-1,38
 128 406 128 406 203 406 c 0,39,40
 263 406 263 406 305 379 c 1,41,42
 274 301 274 301 274 229 c 0,43,44
 274 161 274 161 321.5 124.5 c 128,-1,45
 369 88 369 88 442 88 c 0,46,47
 536 88 536 88 604 147.5 c 128,-1,48
 672 207 672 207 672 301 c 0,49,50
 672 332 672 332 664.5 360.5 c 128,-1,51
 657 389 657 389 638.5 417 c 128,-1,52
 620 445 620 445 604 465 c 128,-1,53
 588 485 588 485 555.5 512.5 c 128,-1,54
 523 540 523 540 505.5 554 c 128,-1,55
 488 568 488 568 449 598 c 0,56,57
 331.138491214 687.970617394 331.138491214 687.970617394 286.369753082 735.300349039 c 0,58,59
 174 854.098208445 174 854.098208445 174 1001 c 0,60,61
 174 1180 174 1180 314.5 1286.5 c 128,-1,62
 455 1393 455 1393 664 1393 c 0,0,1
EndSplineSet
Validated: 8912897
Position2: "'cpsp' Capital Spacing lookup 3 subtable" dx=10 dy=0 dh=20 dv=0
EndChar

StartChar: Sacute
Encoding: 346 346 109
Width: 1034
Flags: MW
HStem: -45 133<396 503 396 532> 1264 129<537 637>
VStem: 20 254<182 249 182 284> 174 231<1000 1124 1000 1124> 672 233<238 366> 735 254<1099 1164>
LayerCount: 2
Fore
SplineSet
664 1393 m 0,0,1
 813 1393 813 1393 901 1333 c 128,-1,2
 989 1273 989 1273 989 1151 c 0,3,4
 989 1052 989 1052 933 997 c 128,-1,5
 877 942 877 942 803 942 c 0,6,7
 747 942 747 942 705 969 c 1,8,9
 735 1044 735 1044 735 1120 c 0,10,11
 735 1186 735 1186 697 1225 c 128,-1,12
 659 1264 659 1264 592 1264 c 0,13,14
 510 1264 510 1264 458 1208.5 c 128,-1,15
 406 1153 406 1153 406 1069 c 0,16,17
 406 1029 406 1029 420 991.5 c 128,-1,18
 434 954 434 954 452.5 926.5 c 128,-1,19
 471 899 471 899 506.5 865.5 c 128,-1,20
 542 832 542 832 567 812.5 c 128,-1,21
 592 793 592 793 637 760 c 0,22,23
 687 722 687 722 715.5 699.5 c 128,-1,24
 744 677 744 677 785.5 636 c 128,-1,25
 827 595 827 595 849 559 c 128,-1,26
 871 523 871 523 888 472 c 128,-1,27
 905 421 905 421 905 365 c 0,28,29
 905 242 905 242 833 147 c 128,-1,30
 761 52 761 52 647.5 3.5 c 128,-1,31
 534 -45 534 -45 401 -45 c 0,32,33
 298 -45 298 -45 213.5 -16.5 c 128,-1,34
 129 12 129 12 74.5 74 c 128,-1,35
 20 136 20 136 20 221 c 0,36,37
 20 309 20 309 74 357.5 c 128,-1,38
 128 406 128 406 203 406 c 0,39,40
 263 406 263 406 305 379 c 1,41,42
 274 301 274 301 274 229 c 0,43,44
 274 161 274 161 321.5 124.5 c 128,-1,45
 369 88 369 88 442 88 c 0,46,47
 536 88 536 88 604 147.5 c 128,-1,48
 672 207 672 207 672 301 c 0,49,50
 672 332 672 332 664.5 360.5 c 128,-1,51
 657 389 657 389 638.5 417 c 128,-1,52
 620 445 620 445 604 465 c 128,-1,53
 588 485 588 485 555.5 512.5 c 128,-1,54
 523 540 523 540 505.5 554 c 128,-1,55
 488 568 488 568 449 598 c 0,56,57
 331.138491214 687.970617394 331.138491214 687.970617394 286.369753082 735.300349039 c 0,58,59
 174 854.098208445 174 854.098208445 174 1001 c 0,60,61
 174 1180 174 1180 314.5 1286.5 c 128,-1,62
 455 1393 455 1393 664 1393 c 0,0,1
535 1548 m 1,63,-1
 1014 1731 l 1,64,65
 1059 1702 1059 1702 1059 1638 c 0,66,67
 1059 1598 1059 1598 1041.5 1568 c 128,-1,68
 1024 1538 1024 1538 999 1521.5 c 128,-1,69
 974 1505 974 1505 934.5 1494 c 128,-1,70
 895 1483 895 1483 862.5 1479 c 128,-1,71
 830 1475 830 1475 786 1473 c 2,72,-1
 551 1460 l 1,73,-1
 535 1548 l 1,63,-1
EndSplineSet
Validated: 8912897
Substitution2: "'locl' Localized Forms in Latin lookup 13 subtable" Sacute.loclPLK
Substitution2: "'aalt' Access All Alternates lookup 0 subtable" Sacute.loclPLK
Position2: "'cpsp' Capital Spacing lookup 3 subtable" dx=10 dy=0 dh=20 dv=0
EndChar

StartChar: Scaron
Encoding: 352 352 110
Width: 1034
Flags: MW
HStem: -45 133<396 503 396 532> 1264 129<537 637>
VStem: 20 254<182 249 182 284> 174 231<1000 1124 1000 1124> 672 233<238 366> 735 254<1099 1164>
LayerCount: 2
Fore
SplineSet
664 1393 m 0,0,1
 813 1393 813 1393 901 1333 c 128,-1,2
 989 1273 989 1273 989 1151 c 0,3,4
 989 1052 989 1052 933 997 c 128,-1,5
 877 942 877 942 803 942 c 0,6,7
 747 942 747 942 705 969 c 1,8,9
 735 1044 735 1044 735 1120 c 0,10,11
 735 1186 735 1186 697 1225 c 128,-1,12
 659 1264 659 1264 592 1264 c 0,13,14
 510 1264 510 1264 458 1208.5 c 128,-1,15
 406 1153 406 1153 406 1069 c 0,16,17
 406 1029 406 1029 420 991.5 c 128,-1,18
 434 954 434 954 452.5 926.5 c 128,-1,19
 471 899 471 899 506.5 865.5 c 128,-1,20
 542 832 542 832 567 812.5 c 128,-1,21
 592 793 592 793 637 760 c 0,22,23
 687 722 687 722 715.5 699.5 c 128,-1,24
 744 677 744 677 785.5 636 c 128,-1,25
 827 595 827 595 849 559 c 128,-1,26
 871 523 871 523 888 472 c 128,-1,27
 905 421 905 421 905 365 c 0,28,29
 905 242 905 242 833 147 c 128,-1,30
 761 52 761 52 647.5 3.5 c 128,-1,31
 534 -45 534 -45 401 -45 c 0,32,33
 298 -45 298 -45 213.5 -16.5 c 128,-1,34
 129 12 129 12 74.5 74 c 128,-1,35
 20 136 20 136 20 221 c 0,36,37
 20 309 20 309 74 357.5 c 128,-1,38
 128 406 128 406 203 406 c 0,39,40
 263 406 263 406 305 379 c 1,41,42
 274 301 274 301 274 229 c 0,43,44
 274 161 274 161 321.5 124.5 c 128,-1,45
 369 88 369 88 442 88 c 0,46,47
 536 88 536 88 604 147.5 c 128,-1,48
 672 207 672 207 672 301 c 0,49,50
 672 332 672 332 664.5 360.5 c 128,-1,51
 657 389 657 389 638.5 417 c 128,-1,52
 620 445 620 445 604 465 c 128,-1,53
 588 485 588 485 555.5 512.5 c 128,-1,54
 523 540 523 540 505.5 554 c 128,-1,55
 488 568 488 568 449 598 c 0,56,57
 331.138491214 687.970617394 331.138491214 687.970617394 286.369753082 735.300349039 c 0,58,59
 174 854.098208445 174 854.098208445 174 1001 c 0,60,61
 174 1180 174 1180 314.5 1286.5 c 128,-1,62
 455 1393 455 1393 664 1393 c 0,0,1
508 1714 m 1,63,-1
 721 1608 l 1,64,-1
 987 1714 l 1,65,-1
 1042 1634 l 1,66,-1
 709 1417 l 1,67,-1
 696 1417 l 1,68,-1
 426 1636 l 1,69,-1
 508 1714 l 1,63,-1
EndSplineSet
Validated: 8912897
Position2: "'cpsp' Capital Spacing lookup 3 subtable" dx=10 dy=0 dh=20 dv=0
EndChar

StartChar: Scedilla
Encoding: 350 350 111
Width: 1034
Flags: MW
HStem: -518 109<373 436 373 505> -227 96<380 581> -45 133<373 503> 1264 129<537 637>
VStem: 20 254<182 249 182 284> 174 231<1000 1124 1000 1124> 555 170<-351 -278> 672 233<249 366> 735 254<1099 1164>
LayerCount: 2
Fore
SplineSet
373 -45 m 1,0,1
 277 -41 277 -41 199 -11 c 128,-1,2
 121 19 121 19 70.5 79 c 128,-1,3
 20 139 20 139 20 221 c 0,4,5
 20 309 20 309 74 357.5 c 128,-1,6
 128 406 128 406 203 406 c 0,7,8
 263 406 263 406 305 379 c 1,9,10
 274 301 274 301 274 229 c 0,11,12
 274 161 274 161 321.5 124.5 c 128,-1,13
 369 88 369 88 442 88 c 0,14,15
 536 88 536 88 604 147.5 c 128,-1,16
 672 207 672 207 672 301 c 0,17,18
 672 332 672 332 664.5 360.5 c 128,-1,19
 657 389 657 389 638.5 417 c 128,-1,20
 620 445 620 445 604 465 c 128,-1,21
 588 485 588 485 555.5 512.5 c 128,-1,22
 523 540 523 540 505.5 554 c 128,-1,23
 488 568 488 568 449 598 c 0,24,25
 331.138491214 687.970617394 331.138491214 687.970617394 286.369753082 735.300349039 c 0,26,27
 174 854.098208445 174 854.098208445 174 1001 c 0,28,29
 174 1180 174 1180 314.5 1286.5 c 128,-1,30
 455 1393 455 1393 664 1393 c 0,31,32
 813 1393 813 1393 901 1333 c 128,-1,33
 989 1273 989 1273 989 1151 c 0,34,35
 989 1052 989 1052 933 997 c 128,-1,36
 877 942 877 942 803 942 c 0,37,38
 747 942 747 942 705 969 c 1,39,40
 735 1044 735 1044 735 1120 c 0,41,42
 735 1186 735 1186 697 1225 c 128,-1,43
 659 1264 659 1264 592 1264 c 0,44,45
 510 1264 510 1264 458 1208.5 c 128,-1,46
 406 1153 406 1153 406 1069 c 0,47,48
 406 1029 406 1029 420 991.5 c 128,-1,49
 434 954 434 954 452.5 926.5 c 128,-1,50
 471 899 471 899 506.5 865.5 c 128,-1,51
 542 832 542 832 567 812.5 c 128,-1,52
 592 793 592 793 637 760 c 0,53,54
 687 722 687 722 715.5 699.5 c 128,-1,55
 744 677 744 677 785.5 636 c 128,-1,56
 827 595 827 595 849 559 c 128,-1,57
 871 523 871 523 888 472 c 128,-1,58
 905 421 905 421 905 365 c 0,59,60
 905 253 905 253 844.5 163.5 c 128,-1,61
 784 74 784 74 687 23 c 128,-1,62
 590 -28 590 -28 471 -41 c 1,63,-1
 442 -135 l 1,64,65
 482 -131 482 -131 524 -131 c 0,66,67
 615 -131 615 -131 670 -169.5 c 128,-1,68
 725 -208 725 -208 725 -287 c 0,69,70
 725 -388 725 -388 637 -453 c 128,-1,71
 549 -518 549 -518 418 -518 c 0,72,73
 338 -518 338 -518 290 -492 c 128,-1,74
 242 -466 242 -466 242 -420 c 128,-1,75
 242 -374 242 -374 274 -352 c 1,76,77
 310 -410 310 -410 403 -410 c 0,78,79
 464 -410 464 -410 509.5 -387.5 c 128,-1,80
 555 -365 555 -365 555 -311 c 0,81,82
 555 -227 555 -227 393 -227 c 0,83,84
 371 -227 371 -227 317 -231 c 1,85,-1
 373 -45 l 1,0,1
EndSplineSet
Validated: 8912897
Substitution2: "'locl' Localized Forms in Latin lookup 12 subtable" Scommaaccent
Substitution2: "'locl' Localized Forms in Latin lookup 11 subtable" Scommaaccent
Substitution2: "'aalt' Access All Alternates lookup 0 subtable" Scommaaccent
Position2: "'cpsp' Capital Spacing lookup 3 subtable" dx=10 dy=0 dh=20 dv=0
EndChar

StartChar: Scircumflex
Encoding: 348 348 112
Width: 1034
Flags: MW
HStem: -45 133<396 503 396 532> 1264 129<537 637>
VStem: 20 254<182 249 182 284> 174 231<1000 1124 1000 1124> 672 233<238 366> 735 254<1099 1164>
LayerCount: 2
Fore
SplineSet
664 1393 m 0,0,1
 813 1393 813 1393 901 1333 c 128,-1,2
 989 1273 989 1273 989 1151 c 0,3,4
 989 1052 989 1052 933 997 c 128,-1,5
 877 942 877 942 803 942 c 0,6,7
 747 942 747 942 705 969 c 1,8,9
 735 1044 735 1044 735 1120 c 0,10,11
 735 1186 735 1186 697 1225 c 128,-1,12
 659 1264 659 1264 592 1264 c 0,13,14
 510 1264 510 1264 458 1208.5 c 128,-1,15
 406 1153 406 1153 406 1069 c 0,16,17
 406 1029 406 1029 420 991.5 c 128,-1,18
 434 954 434 954 452.5 926.5 c 128,-1,19
 471 899 471 899 506.5 865.5 c 128,-1,20
 542 832 542 832 567 812.5 c 128,-1,21
 592 793 592 793 637 760 c 0,22,23
 687 722 687 722 715.5 699.5 c 128,-1,24
 744 677 744 677 785.5 636 c 128,-1,25
 827 595 827 595 849 559 c 128,-1,26
 871 523 871 523 888 472 c 128,-1,27
 905 421 905 421 905 365 c 0,28,29
 905 242 905 242 833 147 c 128,-1,30
 761 52 761 52 647.5 3.5 c 128,-1,31
 534 -45 534 -45 401 -45 c 0,32,33
 298 -45 298 -45 213.5 -16.5 c 128,-1,34
 129 12 129 12 74.5 74 c 128,-1,35
 20 136 20 136 20 221 c 0,36,37
 20 309 20 309 74 357.5 c 128,-1,38
 128 406 128 406 203 406 c 0,39,40
 263 406 263 406 305 379 c 1,41,42
 274 301 274 301 274 229 c 0,43,44
 274 161 274 161 321.5 124.5 c 128,-1,45
 369 88 369 88 442 88 c 0,46,47
 536 88 536 88 604 147.5 c 128,-1,48
 672 207 672 207 672 301 c 0,49,50
 672 332 672 332 664.5 360.5 c 128,-1,51
 657 389 657 389 638.5 417 c 128,-1,52
 620 445 620 445 604 465 c 128,-1,53
 588 485 588 485 555.5 512.5 c 128,-1,54
 523 540 523 540 505.5 554 c 128,-1,55
 488 568 488 568 449 598 c 0,56,57
 331.138491214 687.970617394 331.138491214 687.970617394 286.369753082 735.300349039 c 0,58,59
 174 854.098208445 174 854.098208445 174 1001 c 0,60,61
 174 1180 174 1180 314.5 1286.5 c 128,-1,62
 455 1393 455 1393 664 1393 c 0,0,1
907 1380 m 1,63,-1
 692 1528 l 1,64,-1
 426 1380 l 1,65,-1
 371 1481 l 1,66,-1
 705 1718 l 1,67,-1
 719 1718 l 1,68,-1
 989 1479 l 1,69,-1
 907 1380 l 1,63,-1
EndSplineSet
Validated: 8912897
Position2: "'cpsp' Capital Spacing lookup 3 subtable" dx=10 dy=0 dh=20 dv=0
EndChar

StartChar: Scommaaccent
Encoding: 536 536 113
Width: 1034
Flags: MW
HStem: -45 133<396 503 396 532> 1264 129<537 637>
VStem: 20 254<182 249 182 284> 174 231<1000 1124 1000 1124> 344 205<-251 -184> 672 233<238 366> 735 254<1099 1164>
LayerCount: 2
Fore
SplineSet
549 -215 m 0,0,1
 549 -312 549 -312 466.5 -398.5 c 128,-1,2
 384 -485 384 -485 291 -485 c 0,3,4
 255 -485 255 -485 233 -463 c 1,5,6
 269 -413 269 -413 289 -380.5 c 128,-1,7
 309 -348 309 -348 326.5 -298 c 128,-1,8
 344 -248 344 -248 344 -199 c 0,9,10
 344 -161 344 -161 330 -123 c 1,11,12
 375 -100 375 -100 436 -100 c 0,13,14
 485 -100 485 -100 517 -129 c 128,-1,15
 549 -158 549 -158 549 -215 c 0,0,1
664 1393 m 0,16,17
 813 1393 813 1393 901 1333 c 128,-1,18
 989 1273 989 1273 989 1151 c 0,19,20
 989 1052 989 1052 933 997 c 128,-1,21
 877 942 877 942 803 942 c 0,22,23
 747 942 747 942 705 969 c 1,24,25
 735 1044 735 1044 735 1120 c 0,26,27
 735 1186 735 1186 697 1225 c 128,-1,28
 659 1264 659 1264 592 1264 c 0,29,30
 510 1264 510 1264 458 1208.5 c 128,-1,31
 406 1153 406 1153 406 1069 c 0,32,33
 406 1029 406 1029 420 991.5 c 128,-1,34
 434 954 434 954 452.5 926.5 c 128,-1,35
 471 899 471 899 506.5 865.5 c 128,-1,36
 542 832 542 832 567 812.5 c 128,-1,37
 592 793 592 793 637 760 c 0,38,39
 687 722 687 722 715.5 699.5 c 128,-1,40
 744 677 744 677 785.5 636 c 128,-1,41
 827 595 827 595 849 559 c 128,-1,42
 871 523 871 523 888 472 c 128,-1,43
 905 421 905 421 905 365 c 0,44,45
 905 242 905 242 833 147 c 128,-1,46
 761 52 761 52 647.5 3.5 c 128,-1,47
 534 -45 534 -45 401 -45 c 0,48,49
 298 -45 298 -45 213.5 -16.5 c 128,-1,50
 129 12 129 12 74.5 74 c 128,-1,51
 20 136 20 136 20 221 c 0,52,53
 20 309 20 309 74 357.5 c 128,-1,54
 128 406 128 406 203 406 c 0,55,56
 263 406 263 406 305 379 c 1,57,58
 274 301 274 301 274 229 c 0,59,60
 274 161 274 161 321.5 124.5 c 128,-1,61
 369 88 369 88 442 88 c 0,62,63
 536 88 536 88 604 147.5 c 128,-1,64
 672 207 672 207 672 301 c 0,65,66
 672 332 672 332 664.5 360.5 c 128,-1,67
 657 389 657 389 638.5 417 c 128,-1,68
 620 445 620 445 604 465 c 128,-1,69
 588 485 588 485 555.5 512.5 c 128,-1,70
 523 540 523 540 505.5 554 c 128,-1,71
 488 568 488 568 449 598 c 0,72,73
 331.138491214 687.970617394 331.138491214 687.970617394 286.369753082 735.300349039 c 0,74,75
 174 854.098208445 174 854.098208445 174 1001 c 0,76,77
 174 1180 174 1180 314.5 1286.5 c 128,-1,78
 455 1393 455 1393 664 1393 c 0,16,17
EndSplineSet
Validated: 8912897
Position2: "'cpsp' Capital Spacing lookup 3 subtable" dx=10 dy=0 dh=20 dv=0
EndChar

StartChar: Sdotbelow
Encoding: 7778 7778 114
Width: 1034
Flags: MW
HStem: -369 258<375 455> -45 133<396 503 396 532> 1264 129<537 637>
VStem: 20 254<182 249 182 284> 174 231<1000 1124 1000 1124> 262 305<-282 -198> 672 233<238 366> 735 254<1099 1164>
LayerCount: 2
Fore
SplineSet
418 -111 m 0,0,1
 485 -111 485 -111 526 -144 c 128,-1,2
 567 -177 567 -177 567 -238 c 0,3,4
 567 -301 567 -301 523.5 -335 c 128,-1,5
 480 -369 480 -369 412 -369 c 0,6,7
 345 -369 345 -369 303.5 -336 c 128,-1,8
 262 -303 262 -303 262 -242 c 0,9,10
 262 -179 262 -179 306 -145 c 128,-1,11
 350 -111 350 -111 418 -111 c 0,0,1
664 1393 m 0,12,13
 813 1393 813 1393 901 1333 c 128,-1,14
 989 1273 989 1273 989 1151 c 0,15,16
 989 1052 989 1052 933 997 c 128,-1,17
 877 942 877 942 803 942 c 0,18,19
 747 942 747 942 705 969 c 1,20,21
 735 1044 735 1044 735 1120 c 0,22,23
 735 1186 735 1186 697 1225 c 128,-1,24
 659 1264 659 1264 592 1264 c 0,25,26
 510 1264 510 1264 458 1208.5 c 128,-1,27
 406 1153 406 1153 406 1069 c 0,28,29
 406 1029 406 1029 420 991.5 c 128,-1,30
 434 954 434 954 452.5 926.5 c 128,-1,31
 471 899 471 899 506.5 865.5 c 128,-1,32
 542 832 542 832 567 812.5 c 128,-1,33
 592 793 592 793 637 760 c 0,34,35
 687 722 687 722 715.5 699.5 c 128,-1,36
 744 677 744 677 785.5 636 c 128,-1,37
 827 595 827 595 849 559 c 128,-1,38
 871 523 871 523 888 472 c 128,-1,39
 905 421 905 421 905 365 c 0,40,41
 905 242 905 242 833 147 c 128,-1,42
 761 52 761 52 647.5 3.5 c 128,-1,43
 534 -45 534 -45 401 -45 c 0,44,45
 298 -45 298 -45 213.5 -16.5 c 128,-1,46
 129 12 129 12 74.5 74 c 128,-1,47
 20 136 20 136 20 221 c 0,48,49
 20 309 20 309 74 357.5 c 128,-1,50
 128 406 128 406 203 406 c 0,51,52
 263 406 263 406 305 379 c 1,53,54
 274 301 274 301 274 229 c 0,55,56
 274 161 274 161 321.5 124.5 c 128,-1,57
 369 88 369 88 442 88 c 0,58,59
 536 88 536 88 604 147.5 c 128,-1,60
 672 207 672 207 672 301 c 0,61,62
 672 332 672 332 664.5 360.5 c 128,-1,63
 657 389 657 389 638.5 417 c 128,-1,64
 620 445 620 445 604 465 c 128,-1,65
 588 485 588 485 555.5 512.5 c 128,-1,66
 523 540 523 540 505.5 554 c 128,-1,67
 488 568 488 568 449 598 c 0,68,69
 331.138491214 687.970617394 331.138491214 687.970617394 286.369753082 735.300349039 c 0,70,71
 174 854.098208445 174 854.098208445 174 1001 c 0,72,73
 174 1180 174 1180 314.5 1286.5 c 128,-1,74
 455 1393 455 1393 664 1393 c 0,12,13
EndSplineSet
Validated: 8912897
Position2: "'cpsp' Capital Spacing lookup 3 subtable" dx=10 dy=0 dh=20 dv=0
EndChar

StartChar: uni1E9E
Encoding: 7838 7838 115
Width: 1462
Flags: MW
HStem: -45 133<866 964 866 1000> 1274 119<720 905>
VStem: 496 254<182 249 182 284> 772 231<765 850> 1126 233<211 372>
LayerCount: 2
Fore
SplineSet
158 676 m 2,0,1
 196 870 196 870 261.5 1008.5 c 128,-1,2
 327 1147 327 1147 420.5 1231 c 128,-1,3
 514 1315 514 1315 628.5 1354 c 128,-1,4
 743 1393 743 1393 887 1393 c 0,5,6
 1234 1393 1234 1393 1395 1188 c 1,7,8
 1180 1099 1180 1099 1092 1012 c 128,-1,9
 1004 925 1004 925 1004 852 c 0,10,11
 1004 817 1004 817 1023.5 784.5 c 128,-1,12
 1043 752 1043 752 1074.5 724.5 c 128,-1,13
 1106 697 1106 697 1144 668.5 c 128,-1,14
 1182 640 1182 640 1220 607 c 128,-1,15
 1258 574 1258 574 1289.5 536 c 128,-1,16
 1321 498 1321 498 1340.5 445.5 c 128,-1,17
 1360 393 1360 393 1360 332 c 0,18,19
 1360 244 1360 244 1319.5 171.5 c 128,-1,20
 1279 99 1279 99 1211 52.5 c 128,-1,21
 1143 6 1143 6 1056 -19.5 c 128,-1,22
 969 -45 969 -45 874 -45 c 0,23,24
 712 -45 712 -45 604 24.5 c 128,-1,25
 496 94 496 94 496 221 c 0,26,27
 496 309 496 309 549.5 357.5 c 128,-1,28
 603 406 603 406 678 406 c 0,29,30
 738 406 738 406 780 379 c 1,31,32
 750 304 750 304 750 229 c 0,33,34
 750 161 750 161 795 124.5 c 128,-1,35
 840 88 840 88 913 88 c 0,36,37
 997 88 997 88 1061.5 134 c 128,-1,38
 1126 180 1126 180 1126 264 c 0,39,40
 1126 307 1126 307 1106.5 346 c 128,-1,41
 1087 385 1087 385 1056 415 c 128,-1,42
 1025 445 1025 445 987 475 c 128,-1,43
 949 505 949 505 911 537 c 128,-1,44
 873 569 873 569 842 604 c 128,-1,45
 811 639 811 639 791.5 687 c 128,-1,46
 772 735 772 735 772 791 c 0,47,48
 772 1007 772 1007 1106 1190 c 1,49,50
 997 1274 997 1274 858 1274 c 0,51,52
 757 1274 757 1274 680.5 1234 c 128,-1,53
 604 1194 604 1194 550.5 1113.5 c 128,-1,54
 497 1033 497 1033 462 930.5 c 128,-1,55
 427 828 427 828 399 684 c 2,56,-1
 268 0 l 1,57,-1
 27 0 l 1,58,-1
 158 676 l 2,0,1
EndSplineSet
Validated: 1
Position2: "'cpsp' Capital Spacing lookup 3 subtable" dx=10 dy=0 dh=20 dv=0
EndChar

StartChar: Schwa
Encoding: 399 399 116
Width: 1142
Flags: MW
HStem: -53 127<400 537 400 615> 594 113<685 696 513 799> 1194 199<553 689>
VStem: 68 246<185 367 185 392> 825 258<851 975>
LayerCount: 2
Fore
SplineSet
442 74 m 0,0,1
 496 74 496 74 547 107 c 128,-1,2
 598 140 598 140 637 193 c 128,-1,3
 676 246 676 246 709 315.5 c 128,-1,4
 742 385 742 385 763.5 454.5 c 128,-1,5
 785 524 785 524 799 594 c 1,6,7
 710 594 710 594 626.5 573.5 c 128,-1,8
 543 553 543 553 471.5 512.5 c 128,-1,9
 400 472 400 472 356.5 402 c 128,-1,10
 313 332 313 332 313 242 c 0,11,12
 313 74 313 74 442 74 c 0,0,1
385 -53 m 0,13,14
 68 -53 68 -53 68 240 c 0,15,16
 68 387 68 387 153 495 c 128,-1,17
 238 603 238 603 373.5 655 c 128,-1,18
 509 707 509 707 676 707 c 0,19,20
 704 707 704 707 813 700 c 1,21,22
 825 795 825 795 825 872 c 0,23,24
 825 1035 825 1035 776 1114.5 c 128,-1,25
 727 1194 727 1194 602 1194 c 0,26,27
 498 1194 498 1194 414 1139.5 c 128,-1,28
 330 1085 330 1085 283 987 c 1,29,30
 260 995 260 995 249 1021.5 c 128,-1,31
 238 1048 238 1048 238 1079 c 0,32,33
 239 1136 239 1136 272 1192 c 128,-1,34
 305 1248 305 1248 362 1293 c 128,-1,35
 419 1338 419 1338 504.5 1365.5 c 128,-1,36
 590 1393 590 1393 688 1393 c 0,37,38
 890 1393 890 1393 986.5 1267 c 128,-1,39
 1083 1141 1083 1141 1083 877 c 0,40,41
 1083 741 1083 741 1055 609 c 128,-1,42
 1027 477 1027 477 969.5 357 c 128,-1,43
 912 237 912 237 830.5 146 c 128,-1,44
 749 55 749 55 634 1 c 128,-1,45
 519 -53 519 -53 385 -53 c 0,13,14
EndSplineSet
Validated: 1
Position2: "'cpsp' Capital Spacing lookup 3 subtable" dx=10 dy=0 dh=20 dv=0
EndChar

StartChar: T
Encoding: 84 84 117
Width: 825
Flags: MW
HStem: 1169 182<258 811 299 412 653 793 653 653> 1335 41G
VStem: 211 238<86 115 86 115>
LayerCount: 2
Fore
SplineSet
811 1352 m 2,0,1
 921 1352 921 1352 973 1376 c 1,2,3
 1001 1336 1001 1336 1001 1284 c 0,4,5
 1001 1248 1001 1248 983.5 1224 c 128,-1,6
 966 1200 966 1200 933.5 1188.5 c 128,-1,7
 901 1177 901 1177 868.5 1173 c 128,-1,8
 836 1169 836 1169 793 1169 c 2,9,-1
 653 1169 l 1,10,-1
 459 195 l 1,11,12
 449 138 449 138 449 100 c 0,13,14
 449 49 449 49 473 8 c 1,15,16
 413 -41 413 -41 334 -41 c 0,17,18
 267 -41 267 -41 239 -6.5 c 128,-1,19
 211 28 211 28 211 92 c 0,20,21
 211 155 211 155 223 217 c 2,22,-1
 412 1169 l 1,23,-1
 281 1169 l 2,24,25
 171 1169 171 1169 119 1145 c 1,26,27
 90 1187 90 1187 90 1237 c 0,28,29
 90 1273 90 1273 108 1297 c 128,-1,30
 126 1321 126 1321 158.5 1332.5 c 128,-1,31
 191 1344 191 1344 224 1348 c 128,-1,32
 257 1352 257 1352 299 1352 c 2,33,-1
 811 1352 l 2,0,1
EndSplineSet
Validated: 8388609
Position2: "'cpsp' Capital Spacing lookup 3 subtable" dx=10 dy=0 dh=20 dv=0
EndChar

StartChar: Tbar
Encoding: 358 358 118
Width: 831
Flags: MW
HStem: 629 147<111 305 0 334 575 770> 1169 182<258 811 299 412 653 793 653 653> 1335 41G
VStem: 211 238<86 114>
LayerCount: 2
Fore
SplineSet
811 1352 m 2,0,1
 921 1352 921 1352 973 1376 c 1,2,3
 1001 1336 1001 1336 1001 1284 c 0,4,5
 1001 1248 1001 1248 983.5 1224 c 128,-1,6
 966 1200 966 1200 933.5 1188.5 c 128,-1,7
 901 1177 901 1177 868.5 1173 c 128,-1,8
 836 1169 836 1169 793 1169 c 2,9,-1
 653 1169 l 1,10,-1
 575 776 l 1,11,-1
 893 776 l 1,12,13
 899 755 899 755 899 727 c 0,14,15
 899 629 899 629 770 629 c 2,16,-1
 545 629 l 1,17,-1
 459 195 l 1,18,19
 449 138 449 138 449 100 c 0,20,21
 449 49 449 49 473 8 c 1,22,23
 413 -41 413 -41 334 -41 c 0,24,25
 267 -41 267 -41 239 -6.5 c 128,-1,26
 211 28 211 28 211 92 c 0,27,28
 211 157 211 157 223 215 c 2,29,-1
 305 629 l 1,30,-1
 0 629 l 1,31,32
 -4 645 -4 645 -4 678 c 1,33,34
 -1 776 -1 776 111 776 c 2,35,-1
 334 776 l 1,36,-1
 412 1169 l 1,37,-1
 281 1169 l 2,38,39
 171 1169 171 1169 119 1145 c 1,40,41
 90 1187 90 1187 90 1237 c 0,42,43
 90 1273 90 1273 108 1297 c 128,-1,44
 126 1321 126 1321 158.5 1332.5 c 128,-1,45
 191 1344 191 1344 224 1348 c 128,-1,46
 257 1352 257 1352 299 1352 c 2,47,-1
 811 1352 l 2,0,1
EndSplineSet
Validated: 8388609
Position2: "'cpsp' Capital Spacing lookup 3 subtable" dx=10 dy=0 dh=20 dv=0
EndChar

StartChar: Tcaron
Encoding: 356 356 119
Width: 825
Flags: MW
HStem: 1169 182<258 811 299 412 653 793 653 653> 1335 41G
VStem: 211 238<86 115 86 115>
LayerCount: 2
Fore
SplineSet
811 1352 m 2,0,1
 921 1352 921 1352 973 1376 c 1,2,3
 1001 1336 1001 1336 1001 1284 c 0,4,5
 1001 1248 1001 1248 983.5 1224 c 128,-1,6
 966 1200 966 1200 933.5 1188.5 c 128,-1,7
 901 1177 901 1177 868.5 1173 c 128,-1,8
 836 1169 836 1169 793 1169 c 2,9,-1
 653 1169 l 1,10,-1
 459 195 l 1,11,12
 449 138 449 138 449 100 c 0,13,14
 449 49 449 49 473 8 c 1,15,16
 413 -41 413 -41 334 -41 c 0,17,18
 267 -41 267 -41 239 -6.5 c 128,-1,19
 211 28 211 28 211 92 c 0,20,21
 211 155 211 155 223 217 c 2,22,-1
 412 1169 l 1,23,-1
 281 1169 l 2,24,25
 171 1169 171 1169 119 1145 c 1,26,27
 90 1187 90 1187 90 1237 c 0,28,29
 90 1273 90 1273 108 1297 c 128,-1,30
 126 1321 126 1321 158.5 1332.5 c 128,-1,31
 191 1344 191 1344 224 1348 c 128,-1,32
 257 1352 257 1352 299 1352 c 2,33,-1
 811 1352 l 2,0,1
393 1714 m 1,34,-1
 606 1608 l 1,35,-1
 872 1714 l 1,36,-1
 928 1634 l 1,37,-1
 594 1417 l 1,38,-1
 582 1417 l 1,39,-1
 311 1636 l 1,40,-1
 393 1714 l 1,34,-1
EndSplineSet
Validated: 8388609
Position2: "'cpsp' Capital Spacing lookup 3 subtable" dx=10 dy=0 dh=20 dv=0
EndChar

StartChar: Tcedilla
Encoding: 354 354 120
Width: 825
Flags: MW
HStem: -518 109<276 340 276 409> -227 96<284 484> 1169 182<258 811 299 412 653 793 653 653> 1335 41G
VStem: 211 238<86 115 86 115> 459 170<-351 -278>
LayerCount: 2
Fore
SplineSet
811 1352 m 2,0,1
 921 1352 921 1352 973 1376 c 1,2,3
 1001 1336 1001 1336 1001 1284 c 0,4,5
 1001 1248 1001 1248 983.5 1224 c 128,-1,6
 966 1200 966 1200 933.5 1188.5 c 128,-1,7
 901 1177 901 1177 868.5 1173 c 128,-1,8
 836 1169 836 1169 793 1169 c 2,9,-1
 653 1169 l 1,10,-1
 459 195 l 1,11,12
 449 138 449 138 449 100 c 0,13,14
 449 49 449 49 473 8 c 1,15,16
 429 -28 429 -28 375 -37 c 1,17,-1
 346 -135 l 1,18,19
 386 -131 386 -131 428 -131 c 0,20,21
 519 -131 519 -131 574 -169.5 c 128,-1,22
 629 -208 629 -208 629 -287 c 0,23,24
 629 -388 629 -388 541 -453 c 128,-1,25
 453 -518 453 -518 322 -518 c 0,26,27
 242 -518 242 -518 193.5 -492 c 128,-1,28
 145 -466 145 -466 145 -420 c 0,29,30
 145 -375 145 -375 178 -352 c 1,31,32
 214 -410 214 -410 307 -410 c 0,33,34
 368 -410 368 -410 413.5 -387.5 c 128,-1,35
 459 -365 459 -365 459 -311 c 0,36,37
 459 -227 459 -227 297 -227 c 0,38,39
 275 -227 275 -227 221 -231 c 1,40,-1
 281 -33 l 1,41,42
 211 -12 211 -12 211 92 c 0,43,44
 211 155 211 155 223 217 c 2,45,-1
 412 1169 l 1,46,-1
 281 1169 l 2,47,48
 171 1169 171 1169 119 1145 c 1,49,50
 90 1187 90 1187 90 1237 c 0,51,52
 90 1273 90 1273 108 1297 c 128,-1,53
 126 1321 126 1321 158.5 1332.5 c 128,-1,54
 191 1344 191 1344 224 1348 c 128,-1,55
 257 1352 257 1352 299 1352 c 2,56,-1
 811 1352 l 2,0,1
EndSplineSet
Validated: 8388609
Substitution2: "'locl' Localized Forms in Latin lookup 12 subtable" uni021A
Substitution2: "'locl' Localized Forms in Latin lookup 11 subtable" uni021A
Substitution2: "'aalt' Access All Alternates lookup 0 subtable" uni021A
Position2: "'cpsp' Capital Spacing lookup 3 subtable" dx=10 dy=0 dh=20 dv=0
EndChar

StartChar: uni021A
Encoding: 538 538 121
Width: 825
Flags: MW
HStem: 1169 182<258 811 299 412 653 793 653 653> 1335 41G
VStem: 211 238<86 115 86 115> 248 205<-251 -184>
LayerCount: 2
Fore
SplineSet
453 -215 m 0,0,1
 453 -312 453 -312 370.5 -398.5 c 128,-1,2
 288 -485 288 -485 195 -485 c 0,3,4
 159 -485 159 -485 137 -463 c 1,5,6
 173 -413 173 -413 193 -380.5 c 128,-1,7
 213 -348 213 -348 230.5 -298 c 128,-1,8
 248 -248 248 -248 248 -199 c 0,9,10
 248 -164 248 -164 233 -123 c 1,11,12
 278 -100 278 -100 340 -100 c 0,13,14
 389 -100 389 -100 421 -129 c 128,-1,15
 453 -158 453 -158 453 -215 c 0,0,1
811 1352 m 2,16,17
 921 1352 921 1352 973 1376 c 1,18,19
 1001 1336 1001 1336 1001 1284 c 0,20,21
 1001 1248 1001 1248 983.5 1224 c 128,-1,22
 966 1200 966 1200 933.5 1188.5 c 128,-1,23
 901 1177 901 1177 868.5 1173 c 128,-1,24
 836 1169 836 1169 793 1169 c 2,25,-1
 653 1169 l 1,26,-1
 459 195 l 1,27,28
 449 138 449 138 449 100 c 0,29,30
 449 49 449 49 473 8 c 1,31,32
 413 -41 413 -41 334 -41 c 0,33,34
 267 -41 267 -41 239 -6.5 c 128,-1,35
 211 28 211 28 211 92 c 0,36,37
 211 155 211 155 223 217 c 2,38,-1
 412 1169 l 1,39,-1
 281 1169 l 2,40,41
 171 1169 171 1169 119 1145 c 1,42,43
 90 1187 90 1187 90 1237 c 0,44,45
 90 1273 90 1273 108 1297 c 128,-1,46
 126 1321 126 1321 158.5 1332.5 c 128,-1,47
 191 1344 191 1344 224 1348 c 128,-1,48
 257 1352 257 1352 299 1352 c 2,49,-1
 811 1352 l 2,16,17
EndSplineSet
Validated: 8388609
Position2: "'cpsp' Capital Spacing lookup 3 subtable" dx=10 dy=0 dh=20 dv=0
EndChar

StartChar: Tdotbelow
Encoding: 7788 7788 122
Width: 825
Flags: MW
HStem: -369 258<279 358> 1169 182<258 811 299 412 653 793 653 653> 1335 41G
VStem: 166 305<-282 -198> 211 238<86 115 86 115>
LayerCount: 2
Fore
SplineSet
322 -111 m 0,0,1
 389 -111 389 -111 430 -144 c 128,-1,2
 471 -177 471 -177 471 -238 c 0,3,4
 471 -301 471 -301 427 -335 c 128,-1,5
 383 -369 383 -369 315 -369 c 0,6,7
 248 -369 248 -369 207 -336 c 128,-1,8
 166 -303 166 -303 166 -242 c 0,9,10
 166 -179 166 -179 210 -145 c 128,-1,11
 254 -111 254 -111 322 -111 c 0,0,1
811 1352 m 2,12,13
 921 1352 921 1352 973 1376 c 1,14,15
 1001 1336 1001 1336 1001 1284 c 0,16,17
 1001 1248 1001 1248 983.5 1224 c 128,-1,18
 966 1200 966 1200 933.5 1188.5 c 128,-1,19
 901 1177 901 1177 868.5 1173 c 128,-1,20
 836 1169 836 1169 793 1169 c 2,21,-1
 653 1169 l 1,22,-1
 459 195 l 1,23,24
 449 138 449 138 449 100 c 0,25,26
 449 49 449 49 473 8 c 1,27,28
 413 -41 413 -41 334 -41 c 0,29,30
 267 -41 267 -41 239 -6.5 c 128,-1,31
 211 28 211 28 211 92 c 0,32,33
 211 155 211 155 223 217 c 2,34,-1
 412 1169 l 1,35,-1
 281 1169 l 2,36,37
 171 1169 171 1169 119 1145 c 1,38,39
 90 1187 90 1187 90 1237 c 0,40,41
 90 1273 90 1273 108 1297 c 128,-1,42
 126 1321 126 1321 158.5 1332.5 c 128,-1,43
 191 1344 191 1344 224 1348 c 128,-1,44
 257 1352 257 1352 299 1352 c 2,45,-1
 811 1352 l 2,12,13
EndSplineSet
Validated: 8388609
Position2: "'cpsp' Capital Spacing lookup 3 subtable" dx=10 dy=0 dh=20 dv=0
EndChar

StartChar: U
Encoding: 85 85 123
Width: 1167
Flags: MW
HStem: -41 156<453 611 453 625> 1311 41G<276 518 518 518 952 1167 1167 1167>
VStem: 86 244<237 317>
LayerCount: 2
Fore
SplineSet
1014 553 m 1,0,1
 957 250 957 250 828.5 104.5 c 128,-1,2
 700 -41 700 -41 461 -41 c 0,3,4
 279 -41 279 -41 182.5 41.5 c 128,-1,5
 86 124 86 124 86 283 c 0,6,7
 86 367 86 367 115 516 c 2,8,-1
 276 1352 l 1,9,-1
 518 1352 l 1,10,-1
 356 494 l 2,11,12
 330 351 330 351 330 293 c 0,13,14
 330 208 330 208 377 161.5 c 128,-1,15
 424 115 424 115 510 115 c 0,16,17
 569 115 569 115 615.5 139.5 c 128,-1,18
 662 164 662 164 692 200.5 c 128,-1,19
 722 237 722 237 746 296 c 128,-1,20
 770 355 770 355 783 408.5 c 128,-1,21
 796 462 796 462 809 535 c 2,22,-1
 952 1352 l 1,23,-1
 1167 1352 l 1,24,-1
 1014 553 l 1,0,1
EndSplineSet
Validated: 1
Position2: "'cpsp' Capital Spacing lookup 3 subtable" dx=10 dy=0 dh=20 dv=0
EndChar

StartChar: Uacute
Encoding: 218 218 124
Width: 1167
Flags: MW
HStem: -41 156<453 611 453 625> 1311 41G<276 518 518 518 952 1167 1167 1167>
VStem: 86 244<237 317>
LayerCount: 2
Fore
SplineSet
1014 553 m 1,0,1
 957 250 957 250 828.5 104.5 c 128,-1,2
 700 -41 700 -41 461 -41 c 0,3,4
 279 -41 279 -41 182.5 41.5 c 128,-1,5
 86 124 86 124 86 283 c 0,6,7
 86 367 86 367 115 516 c 2,8,-1
 276 1352 l 1,9,-1
 518 1352 l 1,10,-1
 356 494 l 2,11,12
 330 351 330 351 330 293 c 0,13,14
 330 208 330 208 377 161.5 c 128,-1,15
 424 115 424 115 510 115 c 0,16,17
 569 115 569 115 615.5 139.5 c 128,-1,18
 662 164 662 164 692 200.5 c 128,-1,19
 722 237 722 237 746 296 c 128,-1,20
 770 355 770 355 783 408.5 c 128,-1,21
 796 462 796 462 809 535 c 2,22,-1
 952 1352 l 1,23,-1
 1167 1352 l 1,24,-1
 1014 553 l 1,0,1
633 1548 m 1,25,-1
 1112 1731 l 1,26,27
 1157 1702 1157 1702 1157 1638 c 0,28,29
 1157 1598 1157 1598 1140 1568 c 128,-1,30
 1123 1538 1123 1538 1097.5 1521.5 c 128,-1,31
 1072 1505 1072 1505 1033 1494 c 128,-1,32
 994 1483 994 1483 961.5 1479 c 128,-1,33
 929 1475 929 1475 885 1473 c 2,34,-1
 649 1460 l 1,35,-1
 633 1548 l 1,25,-1
EndSplineSet
Validated: 1
Position2: "'cpsp' Capital Spacing lookup 3 subtable" dx=10 dy=0 dh=20 dv=0
EndChar

StartChar: Ubreve
Encoding: 364 364 125
Width: 1167
Flags: MW
HStem: -41 156<453 611 453 625> 1311 41G<276 518 518 518 952 1167 1167 1167> 1432 100<786 866 786 897>
VStem: 86 244<237 317> 541 176<1611 1653 1611 1657>
LayerCount: 2
Fore
SplineSet
1014 553 m 1,0,1
 957 250 957 250 828.5 104.5 c 128,-1,2
 700 -41 700 -41 461 -41 c 0,3,4
 279 -41 279 -41 182.5 41.5 c 128,-1,5
 86 124 86 124 86 283 c 0,6,7
 86 367 86 367 115 516 c 2,8,-1
 276 1352 l 1,9,-1
 518 1352 l 1,10,-1
 356 494 l 2,11,12
 330 351 330 351 330 293 c 0,13,14
 330 208 330 208 377 161.5 c 128,-1,15
 424 115 424 115 510 115 c 0,16,17
 569 115 569 115 615.5 139.5 c 128,-1,18
 662 164 662 164 692 200.5 c 128,-1,19
 722 237 722 237 746 296 c 128,-1,20
 770 355 770 355 783 408.5 c 128,-1,21
 796 462 796 462 809 535 c 2,22,-1
 952 1352 l 1,23,-1
 1167 1352 l 1,24,-1
 1014 553 l 1,0,1
725 1704 m 1,25,26
 717 1665 717 1665 717 1645 c 0,27,28
 717 1593 717 1593 743.5 1562.5 c 128,-1,29
 770 1532 770 1532 819 1532 c 0,30,31
 885 1532 885 1532 935 1586 c 128,-1,32
 985 1640 985 1640 997 1704 c 1,33,-1
 1161 1704 l 1,34,35
 1138 1578 1138 1578 1041.5 1505 c 128,-1,36
 945 1432 945 1432 799 1432 c 0,37,38
 672 1432 672 1432 606.5 1488.5 c 128,-1,39
 541 1545 541 1545 541 1647 c 0,40,41
 541 1674 541 1674 547 1704 c 1,42,-1
 725 1704 l 1,25,26
EndSplineSet
Validated: 1
Position2: "'cpsp' Capital Spacing lookup 3 subtable" dx=10 dy=0 dh=20 dv=0
EndChar

StartChar: Ucircumflex
Encoding: 219 219 126
Width: 1167
Flags: MW
HStem: -41 156<453 611 453 625> 1311 41G<276 518 518 518 952 1167 1167 1167>
VStem: 86 244<237 317>
LayerCount: 2
Fore
SplineSet
1014 553 m 1,0,1
 957 250 957 250 828.5 104.5 c 128,-1,2
 700 -41 700 -41 461 -41 c 0,3,4
 279 -41 279 -41 182.5 41.5 c 128,-1,5
 86 124 86 124 86 283 c 0,6,7
 86 367 86 367 115 516 c 2,8,-1
 276 1352 l 1,9,-1
 518 1352 l 1,10,-1
 356 494 l 2,11,12
 330 351 330 351 330 293 c 0,13,14
 330 208 330 208 377 161.5 c 128,-1,15
 424 115 424 115 510 115 c 0,16,17
 569 115 569 115 615.5 139.5 c 128,-1,18
 662 164 662 164 692 200.5 c 128,-1,19
 722 237 722 237 746 296 c 128,-1,20
 770 355 770 355 783 408.5 c 128,-1,21
 796 462 796 462 809 535 c 2,22,-1
 952 1352 l 1,23,-1
 1167 1352 l 1,24,-1
 1014 553 l 1,0,1
1006 1380 m 1,25,-1
 791 1528 l 1,26,-1
 524 1380 l 1,27,-1
 469 1481 l 1,28,-1
 803 1718 l 1,29,-1
 817 1718 l 1,30,-1
 1087 1479 l 1,31,-1
 1006 1380 l 1,25,-1
EndSplineSet
Validated: 1
Position2: "'cpsp' Capital Spacing lookup 3 subtable" dx=10 dy=0 dh=20 dv=0
EndChar

StartChar: Udieresis
Encoding: 220 220 127
Width: 1167
Flags: MW
HStem: -41 156<453 611 453 625> 1311 41G<276 518 518 518 952 1167 1167 1167> 1489 258<553 633 981 1061>
VStem: 86 244<237 317> 440 307<1576 1660> 868 307<1576 1660>
LayerCount: 2
Fore
SplineSet
1014 553 m 1,0,1
 957 250 957 250 828.5 104.5 c 128,-1,2
 700 -41 700 -41 461 -41 c 0,3,4
 279 -41 279 -41 182.5 41.5 c 128,-1,5
 86 124 86 124 86 283 c 0,6,7
 86 367 86 367 115 516 c 2,8,-1
 276 1352 l 1,9,-1
 518 1352 l 1,10,-1
 356 494 l 2,11,12
 330 351 330 351 330 293 c 0,13,14
 330 208 330 208 377 161.5 c 128,-1,15
 424 115 424 115 510 115 c 0,16,17
 569 115 569 115 615.5 139.5 c 128,-1,18
 662 164 662 164 692 200.5 c 128,-1,19
 722 237 722 237 746 296 c 128,-1,20
 770 355 770 355 783 408.5 c 128,-1,21
 796 462 796 462 809 535 c 2,22,-1
 952 1352 l 1,23,-1
 1167 1352 l 1,24,-1
 1014 553 l 1,0,1
1024 1747 m 0,25,26
 1091 1747 1091 1747 1133.5 1714 c 128,-1,27
 1176 1681 1176 1681 1176 1620 c 0,28,29
 1176 1557 1176 1557 1131 1523 c 128,-1,30
 1086 1489 1086 1489 1018 1489 c 0,31,32
 951 1489 951 1489 909.5 1522 c 128,-1,33
 868 1555 868 1555 868 1616 c 0,34,35
 868 1679 868 1679 912 1713 c 128,-1,36
 956 1747 956 1747 1024 1747 c 0,25,26
596 1747 m 0,37,38
 663 1747 663 1747 705.5 1714 c 128,-1,39
 748 1681 748 1681 748 1620 c 0,40,41
 748 1557 748 1557 703 1523 c 128,-1,42
 658 1489 658 1489 590 1489 c 0,43,44
 523 1489 523 1489 481.5 1522 c 128,-1,45
 440 1555 440 1555 440 1616 c 0,46,47
 440 1679 440 1679 484 1713 c 128,-1,48
 528 1747 528 1747 596 1747 c 0,37,38
EndSplineSet
Validated: 1
Position2: "'cpsp' Capital Spacing lookup 3 subtable" dx=10 dy=0 dh=20 dv=0
EndChar

StartChar: Udotbelow
Encoding: 7908 7908 128
Width: 1167
Flags: MW
HStem: -369 258<352 432> -41 156<453 611 453 625> 1311 41G<276 518 518 518 952 1167 1167 1167>
VStem: 86 244<237 317> 240 305<-282 -198>
LayerCount: 2
Fore
SplineSet
395 -111 m 0,0,1
 462 -111 462 -111 503.5 -144 c 128,-1,2
 545 -177 545 -177 545 -238 c 0,3,4
 545 -301 545 -301 501 -335 c 128,-1,5
 457 -369 457 -369 389 -369 c 0,6,7
 322 -369 322 -369 281 -336 c 128,-1,8
 240 -303 240 -303 240 -242 c 0,9,10
 240 -179 240 -179 283.5 -145 c 128,-1,11
 327 -111 327 -111 395 -111 c 0,0,1
1014 553 m 1,12,13
 957 250 957 250 828.5 104.5 c 128,-1,14
 700 -41 700 -41 461 -41 c 0,15,16
 279 -41 279 -41 182.5 41.5 c 128,-1,17
 86 124 86 124 86 283 c 0,18,19
 86 367 86 367 115 516 c 2,20,-1
 276 1352 l 1,21,-1
 518 1352 l 1,22,-1
 356 494 l 2,23,24
 330 351 330 351 330 293 c 0,25,26
 330 208 330 208 377 161.5 c 128,-1,27
 424 115 424 115 510 115 c 0,28,29
 569 115 569 115 615.5 139.5 c 128,-1,30
 662 164 662 164 692 200.5 c 128,-1,31
 722 237 722 237 746 296 c 128,-1,32
 770 355 770 355 783 408.5 c 128,-1,33
 796 462 796 462 809 535 c 2,34,-1
 952 1352 l 1,35,-1
 1167 1352 l 1,36,-1
 1014 553 l 1,12,13
EndSplineSet
Validated: 8388609
Position2: "'cpsp' Capital Spacing lookup 3 subtable" dx=10 dy=0 dh=20 dv=0
EndChar

StartChar: Ugrave
Encoding: 217 217 129
Width: 1167
Flags: MW
HStem: -41 156<453 611 453 625> 1311 41G<276 518 518 518 952 1167 1167 1167>
VStem: 86 244<237 317>
LayerCount: 2
Fore
SplineSet
1014 553 m 1,0,1
 957 250 957 250 828.5 104.5 c 128,-1,2
 700 -41 700 -41 461 -41 c 0,3,4
 279 -41 279 -41 182.5 41.5 c 128,-1,5
 86 124 86 124 86 283 c 0,6,7
 86 367 86 367 115 516 c 2,8,-1
 276 1352 l 1,9,-1
 518 1352 l 1,10,-1
 356 494 l 2,11,12
 330 351 330 351 330 293 c 0,13,14
 330 208 330 208 377 161.5 c 128,-1,15
 424 115 424 115 510 115 c 0,16,17
 569 115 569 115 615.5 139.5 c 128,-1,18
 662 164 662 164 692 200.5 c 128,-1,19
 722 237 722 237 746 296 c 128,-1,20
 770 355 770 355 783 408.5 c 128,-1,21
 796 462 796 462 809 535 c 2,22,-1
 952 1352 l 1,23,-1
 1167 1352 l 1,24,-1
 1014 553 l 1,0,1
958 1460 m 1,25,-1
 723 1473 l 2,26,27
 679 1475 679 1475 646.5 1479 c 128,-1,28
 614 1483 614 1483 575 1494 c 128,-1,29
 536 1505 536 1505 510.5 1521.5 c 128,-1,30
 485 1538 485 1538 468 1568 c 128,-1,31
 451 1598 451 1598 451 1638 c 0,32,33
 451 1702 451 1702 496 1731 c 1,34,-1
 975 1548 l 1,35,-1
 958 1460 l 1,25,-1
EndSplineSet
Validated: 1
Position2: "'cpsp' Capital Spacing lookup 3 subtable" dx=10 dy=0 dh=20 dv=0
EndChar

StartChar: Uhungarumlaut
Encoding: 368 368 130
Width: 1167
Flags: MW
HStem: -41 156<453 611 453 625> 1311 41G<276 518 518 518 952 1167 1167 1167>
VStem: 86 244<237 317>
LayerCount: 2
Fore
SplineSet
1014 553 m 1,0,1
 957 250 957 250 828.5 104.5 c 128,-1,2
 700 -41 700 -41 461 -41 c 0,3,4
 279 -41 279 -41 182.5 41.5 c 128,-1,5
 86 124 86 124 86 283 c 0,6,7
 86 367 86 367 115 516 c 2,8,-1
 276 1352 l 1,9,-1
 518 1352 l 1,10,-1
 356 494 l 2,11,12
 330 351 330 351 330 293 c 0,13,14
 330 208 330 208 377 161.5 c 128,-1,15
 424 115 424 115 510 115 c 0,16,17
 569 115 569 115 615.5 139.5 c 128,-1,18
 662 164 662 164 692 200.5 c 128,-1,19
 722 237 722 237 746 296 c 128,-1,20
 770 355 770 355 783 408.5 c 128,-1,21
 796 462 796 462 809 535 c 2,22,-1
 952 1352 l 1,23,-1
 1167 1352 l 1,24,-1
 1014 553 l 1,0,1
1225 1735 m 1,25,26
 1274 1701 1274 1701 1274 1636 c 0,27,28
 1274 1573 1274 1573 1234 1536.5 c 128,-1,29
 1194 1500 1194 1500 1106 1481 c 2,30,-1
 946 1448 l 1,31,-1
 903 1516 l 1,32,-1
 1225 1735 l 1,25,26
850 1735 m 1,33,34
 897 1698 897 1698 897 1634 c 0,35,36
 897 1572 897 1572 856.5 1536 c 128,-1,37
 816 1500 816 1500 727 1481 c 2,38,-1
 571 1448 l 1,39,-1
 526 1516 l 1,40,-1
 850 1735 l 1,33,34
EndSplineSet
Validated: 1
Position2: "'cpsp' Capital Spacing lookup 3 subtable" dx=10 dy=0 dh=20 dv=0
EndChar

StartChar: Umacron
Encoding: 362 362 131
Width: 1167
Flags: MW
HStem: -41 156<453 611 453 625> 1311 41G<276 518 518 518 952 1167 1167 1167> 1503 168<641 952 520 1085>
VStem: 86 244<237 317>
LayerCount: 2
Fore
SplineSet
1014 553 m 1,0,1
 957 250 957 250 828.5 104.5 c 128,-1,2
 700 -41 700 -41 461 -41 c 0,3,4
 279 -41 279 -41 182.5 41.5 c 128,-1,5
 86 124 86 124 86 283 c 0,6,7
 86 367 86 367 115 516 c 2,8,-1
 276 1352 l 1,9,-1
 518 1352 l 1,10,-1
 356 494 l 2,11,12
 330 351 330 351 330 293 c 0,13,14
 330 208 330 208 377 161.5 c 128,-1,15
 424 115 424 115 510 115 c 0,16,17
 569 115 569 115 615.5 139.5 c 128,-1,18
 662 164 662 164 692 200.5 c 128,-1,19
 722 237 722 237 746 296 c 128,-1,20
 770 355 770 355 783 408.5 c 128,-1,21
 796 462 796 462 809 535 c 2,22,-1
 952 1352 l 1,23,-1
 1167 1352 l 1,24,-1
 1014 553 l 1,0,1
1085 1671 m 1,25,26
 1092 1646 1092 1646 1092 1622 c 0,27,28
 1092 1568 1092 1568 1056 1535.5 c 128,-1,29
 1020 1503 1020 1503 952 1503 c 2,30,-1
 520 1503 l 1,31,32
 516 1519 516 1519 516 1552 c 0,33,34
 517 1607 517 1607 551 1639 c 128,-1,35
 585 1671 585 1671 641 1671 c 2,36,-1
 1085 1671 l 1,25,26
EndSplineSet
Validated: 1
Position2: "'cpsp' Capital Spacing lookup 3 subtable" dx=10 dy=0 dh=20 dv=0
EndChar

StartChar: Uogonek
Encoding: 370 370 132
Width: 1167
Flags: MW
HStem: -528 127<607 668> -41 156<453 471> 1311 41G<276 518 518 518 952 1167 1167 1167>
VStem: 86 244<237 317> 381 150<-322 -251>
LayerCount: 2
Fore
SplineSet
1167 1352 m 1,0,-1
 1014 553 l 1,1,2
 976 349 976 349 907 217.5 c 128,-1,3
 838 86 838 86 727 20 c 1,4,5
 638 -31 638 -31 584 -113.5 c 128,-1,6
 530 -196 530 -196 530 -281 c 0,7,8
 530 -344 530 -344 558 -372.5 c 128,-1,9
 586 -401 586 -401 651 -401 c 0,10,11
 724 -401 724 -401 758 -350 c 1,12,13
 791 -376 791 -376 791 -410 c 0,14,15
 791 -460 791 -460 741.5 -494 c 128,-1,16
 692 -528 692 -528 616 -528 c 0,17,18
 509 -528 509 -528 445 -469.5 c 128,-1,19
 381 -411 381 -411 381 -307 c 0,20,21
 381 -150 381 -150 518 -39 c 1,22,23
 500 -41 500 -41 461 -41 c 0,24,25
 279 -41 279 -41 182.5 41.5 c 128,-1,26
 86 124 86 124 86 283 c 0,27,28
 86 367 86 367 115 516 c 2,29,-1
 276 1352 l 1,30,-1
 518 1352 l 1,31,-1
 356 494 l 2,32,33
 330 351 330 351 330 293 c 0,34,35
 330 208 330 208 377 161.5 c 128,-1,36
 424 115 424 115 510 115 c 0,37,38
 569 115 569 115 615.5 139.5 c 128,-1,39
 662 164 662 164 692 200.5 c 128,-1,40
 722 237 722 237 746 296 c 128,-1,41
 770 355 770 355 783 408.5 c 128,-1,42
 796 462 796 462 809 535 c 2,43,-1
 952 1352 l 1,44,-1
 1167 1352 l 1,0,-1
EndSplineSet
Validated: 1
Position2: "'cpsp' Capital Spacing lookup 3 subtable" dx=10 dy=0 dh=20 dv=0
EndChar

StartChar: Uring
Encoding: 366 366 133
Width: 1167
Flags: MW
HStem: -41 156<453 611 453 625> 1311 41G<276 518 518 518 952 1167 1167 1167> 1413 66<773 824 773 845> 1679 72<800 852>
VStem: 86 244<237 317> 608 119<1529 1587 1529 1615> 905 123<1571 1628>
LayerCount: 2
Fore
SplineSet
1014 553 m 1,0,1
 957 250 957 250 828.5 104.5 c 128,-1,2
 700 -41 700 -41 461 -41 c 0,3,4
 279 -41 279 -41 182.5 41.5 c 128,-1,5
 86 124 86 124 86 283 c 0,6,7
 86 367 86 367 115 516 c 2,8,-1
 276 1352 l 1,9,-1
 518 1352 l 1,10,-1
 356 494 l 2,11,12
 330 351 330 351 330 293 c 0,13,14
 330 208 330 208 377 161.5 c 128,-1,15
 424 115 424 115 510 115 c 0,16,17
 569 115 569 115 615.5 139.5 c 128,-1,18
 662 164 662 164 692 200.5 c 128,-1,19
 722 237 722 237 746 296 c 128,-1,20
 770 355 770 355 783 408.5 c 128,-1,21
 796 462 796 462 809 535 c 2,22,-1
 952 1352 l 1,23,-1
 1167 1352 l 1,24,-1
 1014 553 l 1,0,1
905 1606 m 0,25,26
 905 1640 905 1640 884.5 1659.5 c 128,-1,27
 864 1679 864 1679 825 1679 c 128,-1,28
 786 1679 786 1679 756.5 1641.5 c 128,-1,29
 727 1604 727 1604 727 1550 c 0,30,31
 727 1479 727 1479 799 1479 c 0,32,33
 839 1479 839 1479 872 1517 c 128,-1,34
 905 1555 905 1555 905 1606 c 0,25,26
1028 1612 m 0,35,36
 1028 1523 1028 1523 954 1468 c 128,-1,37
 880 1413 880 1413 786 1413 c 0,38,39
 702 1413 702 1413 655 1449 c 128,-1,40
 608 1485 608 1485 608 1552 c 0,41,42
 608 1641 608 1641 680 1696 c 128,-1,43
 752 1751 752 1751 846 1751 c 0,44,45
 929 1751 929 1751 978.5 1714.5 c 128,-1,46
 1028 1678 1028 1678 1028 1612 c 0,35,36
EndSplineSet
Validated: 1
Position2: "'cpsp' Capital Spacing lookup 3 subtable" dx=10 dy=0 dh=20 dv=0
EndChar

StartChar: Utilde
Encoding: 360 360 134
Width: 1167
Flags: MW
HStem: -41 156<453 611 453 625> 1311 41G<276 518 518 518 952 1167 1167 1167> 1485 174<965 1033 965 1034> 1518 174<621 688>
VStem: 86 244<237 317>
LayerCount: 2
Fore
SplineSet
1014 553 m 1,0,1
 957 250 957 250 828.5 104.5 c 128,-1,2
 700 -41 700 -41 461 -41 c 0,3,4
 279 -41 279 -41 182.5 41.5 c 128,-1,5
 86 124 86 124 86 283 c 0,6,7
 86 367 86 367 115 516 c 2,8,-1
 276 1352 l 1,9,-1
 518 1352 l 1,10,-1
 356 494 l 2,11,12
 330 351 330 351 330 293 c 0,13,14
 330 208 330 208 377 161.5 c 128,-1,15
 424 115 424 115 510 115 c 0,16,17
 569 115 569 115 615.5 139.5 c 128,-1,18
 662 164 662 164 692 200.5 c 128,-1,19
 722 237 722 237 746 296 c 128,-1,20
 770 355 770 355 783 408.5 c 128,-1,21
 796 462 796 462 809 535 c 2,22,-1
 952 1352 l 1,23,-1
 1167 1352 l 1,24,-1
 1014 553 l 1,0,1
1112 1692 m 1,25,26
 1145 1654 1145 1654 1145 1608 c 0,27,28
 1145 1549 1145 1549 1102 1517 c 128,-1,29
 1059 1485 1059 1485 987 1485 c 0,30,31
 945 1485 945 1485 816.5 1501.5 c 128,-1,32
 688 1518 688 1518 647 1518 c 0,33,34
 571 1518 571 1518 532 1487 c 1,35,36
 498 1536 498 1536 498 1581 c 0,37,38
 498 1634 498 1634 541 1663 c 128,-1,39
 584 1692 584 1692 662 1692 c 0,40,41
 710 1692 710 1692 838 1675.5 c 128,-1,42
 966 1659 966 1659 1010 1659 c 0,43,44
 1088 1659 1088 1659 1112 1692 c 1,25,26
EndSplineSet
Validated: 8388609
Position2: "'cpsp' Capital Spacing lookup 3 subtable" dx=10 dy=0 dh=20 dv=0
EndChar

StartChar: V
Encoding: 86 86 135
Width: 1001
Flags: MW
HStem: 0 164<432 432 432 535> 1311 41G<920 1155 1155 1155> 1350 41G<175 268>
VStem: 66 1090
LayerCount: 2
Fore
SplineSet
145 1098 m 1,0,1
 138 1239 138 1239 66 1288 c 1,2,3
 78 1336 78 1336 117.5 1363.5 c 128,-1,4
 157 1391 157 1391 209 1391 c 0,5,6
 358 1391 358 1391 373 1157 c 1,7,-1
 432 164 l 1,8,-1
 920 1352 l 1,9,-1
 1155 1352 l 1,10,-1
 535 0 l 1,11,-1
 213 0 l 1,12,-1
 145 1098 l 1,0,1
EndSplineSet
Validated: 8388609
Position2: "'cpsp' Capital Spacing lookup 3 subtable" dx=10 dy=0 dh=20 dv=0
EndChar

StartChar: W
Encoding: 87 87 136
Width: 1646
Flags: MW
HStem: 0 164<432 432 432 535> 1311 41G<883 1044 1044 1044 1565 1800 1800 1800> 1350 41G<175 268>
VStem: 66 1735
LayerCount: 2
Fore
SplineSet
145 1098 m 1,0,1
 138 1239 138 1239 66 1288 c 1,2,3
 78 1336 78 1336 117.5 1363.5 c 128,-1,4
 157 1391 157 1391 209 1391 c 0,5,6
 358 1391 358 1391 373 1157 c 1,7,-1
 432 164 l 1,8,-1
 883 1352 l 1,9,-1
 1044 1352 l 1,10,-1
 1114 164 l 1,11,-1
 1565 1352 l 1,12,-1
 1800 1352 l 1,13,-1
 1217 0 l 1,14,-1
 897 0 l 1,15,-1
 860 846 l 1,16,-1
 535 0 l 1,17,-1
 213 0 l 1,18,-1
 145 1098 l 1,0,1
EndSplineSet
Validated: 8388609
Position2: "'cpsp' Capital Spacing lookup 3 subtable" dx=10 dy=0 dh=20 dv=0
EndChar

StartChar: Wacute
Encoding: 7810 7810 137
Width: 1646
Flags: MW
HStem: 0 164<432 432 432 535> 1311 41G<883 1044 1044 1044 1565 1800 1800 1800> 1350 41G<175 268>
VStem: 66 1735
LayerCount: 2
Fore
SplineSet
145 1098 m 1,0,1
 138 1239 138 1239 66 1288 c 1,2,3
 78 1336 78 1336 117.5 1363.5 c 128,-1,4
 157 1391 157 1391 209 1391 c 0,5,6
 358 1391 358 1391 373 1157 c 1,7,-1
 432 164 l 1,8,-1
 883 1352 l 1,9,-1
 1044 1352 l 1,10,-1
 1114 164 l 1,11,-1
 1565 1352 l 1,12,-1
 1800 1352 l 1,13,-1
 1217 0 l 1,14,-1
 897 0 l 1,15,-1
 860 846 l 1,16,-1
 535 0 l 1,17,-1
 213 0 l 1,18,-1
 145 1098 l 1,0,1
836 1548 m 1,19,-1
 1315 1731 l 1,20,21
 1360 1702 1360 1702 1360 1638 c 0,22,23
 1360 1598 1360 1598 1342.5 1568 c 128,-1,24
 1325 1538 1325 1538 1300 1521.5 c 128,-1,25
 1275 1505 1275 1505 1235.5 1494 c 128,-1,26
 1196 1483 1196 1483 1163.5 1479 c 128,-1,27
 1131 1475 1131 1475 1087 1473 c 2,28,-1
 852 1460 l 1,29,-1
 836 1548 l 1,19,-1
EndSplineSet
Validated: 8388609
Position2: "'cpsp' Capital Spacing lookup 3 subtable" dx=10 dy=0 dh=20 dv=0
EndChar

StartChar: Wcircumflex
Encoding: 372 372 138
Width: 1646
Flags: MW
HStem: 0 164<432 432 432 535> 1311 41G<883 1044 1044 1044 1565 1800 1800 1800> 1350 41G<175 268>
VStem: 66 1735
LayerCount: 2
Fore
SplineSet
145 1098 m 1,0,1
 138 1239 138 1239 66 1288 c 1,2,3
 78 1336 78 1336 117.5 1363.5 c 128,-1,4
 157 1391 157 1391 209 1391 c 0,5,6
 358 1391 358 1391 373 1157 c 1,7,-1
 432 164 l 1,8,-1
 883 1352 l 1,9,-1
 1044 1352 l 1,10,-1
 1114 164 l 1,11,-1
 1565 1352 l 1,12,-1
 1800 1352 l 1,13,-1
 1217 0 l 1,14,-1
 897 0 l 1,15,-1
 860 846 l 1,16,-1
 535 0 l 1,17,-1
 213 0 l 1,18,-1
 145 1098 l 1,0,1
1208 1380 m 1,19,-1
 993 1528 l 1,20,-1
 727 1380 l 1,21,-1
 672 1481 l 1,22,-1
 1006 1718 l 1,23,-1
 1020 1718 l 1,24,-1
 1290 1479 l 1,25,-1
 1208 1380 l 1,19,-1
EndSplineSet
Validated: 8388609
Position2: "'cpsp' Capital Spacing lookup 3 subtable" dx=10 dy=0 dh=20 dv=0
EndChar

StartChar: Wdieresis
Encoding: 7812 7812 139
Width: 1646
Flags: MW
HStem: 0 164<432 432 432 535> 1311 41G<883 1044 1044 1044 1565 1800 1800 1800> 1350 41G<175 268> 1489 258<756 836 1184 1264>
VStem: 643 307<1576 1660> 1071 307<1576 1660>
LayerCount: 2
Fore
SplineSet
145 1098 m 1,0,1
 138 1239 138 1239 66 1288 c 1,2,3
 78 1336 78 1336 117.5 1363.5 c 128,-1,4
 157 1391 157 1391 209 1391 c 0,5,6
 358 1391 358 1391 373 1157 c 1,7,-1
 432 164 l 1,8,-1
 883 1352 l 1,9,-1
 1044 1352 l 1,10,-1
 1114 164 l 1,11,-1
 1565 1352 l 1,12,-1
 1800 1352 l 1,13,-1
 1217 0 l 1,14,-1
 897 0 l 1,15,-1
 860 846 l 1,16,-1
 535 0 l 1,17,-1
 213 0 l 1,18,-1
 145 1098 l 1,0,1
1227 1747 m 0,19,20
 1294 1747 1294 1747 1336 1714 c 128,-1,21
 1378 1681 1378 1681 1378 1620 c 0,22,23
 1378 1557 1378 1557 1333.5 1523 c 128,-1,24
 1289 1489 1289 1489 1221 1489 c 0,25,26
 1154 1489 1154 1489 1112.5 1522 c 128,-1,27
 1071 1555 1071 1555 1071 1616 c 0,28,29
 1071 1679 1071 1679 1115 1713 c 128,-1,30
 1159 1747 1159 1747 1227 1747 c 0,19,20
799 1747 m 0,31,32
 866 1747 866 1747 908 1714 c 128,-1,33
 950 1681 950 1681 950 1620 c 0,34,35
 950 1557 950 1557 905.5 1523 c 128,-1,36
 861 1489 861 1489 793 1489 c 0,37,38
 726 1489 726 1489 684.5 1522 c 128,-1,39
 643 1555 643 1555 643 1616 c 0,40,41
 643 1679 643 1679 687 1713 c 128,-1,42
 731 1747 731 1747 799 1747 c 0,31,32
EndSplineSet
Validated: 8388609
Position2: "'cpsp' Capital Spacing lookup 3 subtable" dx=10 dy=0 dh=20 dv=0
EndChar

StartChar: Wgrave
Encoding: 7808 7808 140
Width: 1646
Flags: MW
HStem: 0 164<432 432 432 535> 1311 41G<883 1044 1044 1044 1565 1800 1800 1800> 1350 41G<175 268>
VStem: 66 1735
LayerCount: 2
Fore
SplineSet
145 1098 m 1,0,1
 138 1239 138 1239 66 1288 c 1,2,3
 78 1336 78 1336 117.5 1363.5 c 128,-1,4
 157 1391 157 1391 209 1391 c 0,5,6
 358 1391 358 1391 373 1157 c 1,7,-1
 432 164 l 1,8,-1
 883 1352 l 1,9,-1
 1044 1352 l 1,10,-1
 1114 164 l 1,11,-1
 1565 1352 l 1,12,-1
 1800 1352 l 1,13,-1
 1217 0 l 1,14,-1
 897 0 l 1,15,-1
 860 846 l 1,16,-1
 535 0 l 1,17,-1
 213 0 l 1,18,-1
 145 1098 l 1,0,1
1161 1460 m 1,19,-1
 926 1473 l 2,20,21
 882 1475 882 1475 849.5 1479 c 128,-1,22
 817 1483 817 1483 777.5 1494 c 128,-1,23
 738 1505 738 1505 713 1521.5 c 128,-1,24
 688 1538 688 1538 670.5 1568 c 128,-1,25
 653 1598 653 1598 653 1638 c 0,26,27
 653 1702 653 1702 698 1731 c 1,28,-1
 1178 1548 l 1,29,-1
 1161 1460 l 1,19,-1
EndSplineSet
Validated: 8388609
Position2: "'cpsp' Capital Spacing lookup 3 subtable" dx=10 dy=0 dh=20 dv=0
EndChar

StartChar: X
Encoding: 88 88 141
Width: 1067
Flags: MW
HStem: 1311 41G<938 1176 1176 1176> 1350 41G<227 328>
VStem: -106 1282
LayerCount: 2
Fore
SplineSet
244 1102 m 2,0,1
 220 1165 220 1165 182 1218.5 c 128,-1,2
 144 1272 144 1272 104 1282 c 1,3,4
 121 1333 121 1333 164 1362 c 128,-1,5
 207 1391 207 1391 266 1391 c 0,6,7
 310 1391 310 1391 344 1375 c 128,-1,8
 378 1359 378 1359 402.5 1326 c 128,-1,9
 427 1293 427 1293 441.5 1262.5 c 128,-1,10
 456 1232 456 1232 475 1182 c 2,11,-1
 592 866 l 1,12,-1
 938 1352 l 1,13,-1
 1176 1352 l 1,14,-1
 664 676 l 1,15,-1
 825 248 l 2,16,17
 849 185 849 185 887 131.5 c 128,-1,18
 925 78 925 78 965 68 c 1,19,20
 948 17 948 17 904 -12 c 128,-1,21
 860 -41 860 -41 801 -41 c 0,22,23
 766 -41 766 -41 736.5 -29 c 128,-1,24
 707 -17 707 -17 687.5 0 c 128,-1,25
 668 17 668 17 649 48 c 128,-1,26
 630 79 630 79 619 103.5 c 128,-1,27
 608 128 608 128 592 168 c 2,28,-1
 465 508 l 1,29,-1
 129 0 l 1,30,-1
 -106 0 l 1,31,-1
 393 698 l 1,32,-1
 244 1102 l 2,0,1
EndSplineSet
Validated: 8388609
Position2: "'cpsp' Capital Spacing lookup 3 subtable" dx=10 dy=0 dh=20 dv=0
EndChar

StartChar: Y
Encoding: 89 89 142
Width: 768
Flags: MW
HStem: 1323 41G<110 217 800 904>
VStem: -12 1010
LayerCount: 2
Fore
SplineSet
426 817 m 1,0,1
 555 1114 555 1114 658.5 1239 c 128,-1,2
 762 1364 762 1364 872 1364 c 0,3,4
 921 1364 921 1364 954 1341.5 c 128,-1,5
 987 1319 987 1319 997 1276 c 1,6,7
 862 1189 862 1189 732.5 1022 c 128,-1,8
 603 855 603 855 498 631 c 1,9,-1
 379 0 l 1,10,-1
 131 0 l 1,11,-1
 262 657 l 1,12,13
 197 925 197 925 126.5 1073.5 c 128,-1,14
 56 1222 56 1222 -12 1253 c 1,15,16
 3 1307 3 1307 45.5 1335.5 c 128,-1,17
 88 1364 88 1364 150 1364 c 0,18,19
 249 1364 249 1364 298.5 1278.5 c 128,-1,20
 348 1193 348 1193 399 946 c 2,21,-1
 426 817 l 1,0,1
EndSplineSet
Validated: 1
Position2: "'cpsp' Capital Spacing lookup 3 subtable" dx=10 dy=0 dh=20 dv=0
EndChar

StartChar: Yacute
Encoding: 221 221 143
Width: 768
Flags: MW
HStem: 1323 41G<110 217 800 904>
VStem: -12 1010
LayerCount: 2
Fore
SplineSet
426 817 m 1,0,1
 555 1114 555 1114 658.5 1239 c 128,-1,2
 762 1364 762 1364 872 1364 c 0,3,4
 921 1364 921 1364 954 1341.5 c 128,-1,5
 987 1319 987 1319 997 1276 c 1,6,7
 862 1189 862 1189 732.5 1022 c 128,-1,8
 603 855 603 855 498 631 c 1,9,-1
 379 0 l 1,10,-1
 131 0 l 1,11,-1
 262 657 l 1,12,13
 197 925 197 925 126.5 1073.5 c 128,-1,14
 56 1222 56 1222 -12 1253 c 1,15,16
 3 1307 3 1307 45.5 1335.5 c 128,-1,17
 88 1364 88 1364 150 1364 c 0,18,19
 249 1364 249 1364 298.5 1278.5 c 128,-1,20
 348 1193 348 1193 399 946 c 2,21,-1
 426 817 l 1,0,1
385 1548 m 1,22,-1
 864 1731 l 1,23,24
 909 1702 909 1702 909 1638 c 0,25,26
 909 1598 909 1598 892 1568 c 128,-1,27
 875 1538 875 1538 849.5 1521.5 c 128,-1,28
 824 1505 824 1505 785 1494 c 128,-1,29
 746 1483 746 1483 713.5 1479 c 128,-1,30
 681 1475 681 1475 637 1473 c 2,31,-1
 401 1460 l 1,32,-1
 385 1548 l 1,22,-1
EndSplineSet
Validated: 1
Position2: "'cpsp' Capital Spacing lookup 3 subtable" dx=10 dy=0 dh=20 dv=0
EndChar

StartChar: Ycircumflex
Encoding: 374 374 144
Width: 768
Flags: MW
HStem: 1323 41G<110 217 800 904>
VStem: -12 1010
LayerCount: 2
Fore
SplineSet
426 817 m 1,0,1
 555 1114 555 1114 658.5 1239 c 128,-1,2
 762 1364 762 1364 872 1364 c 0,3,4
 921 1364 921 1364 954 1341.5 c 128,-1,5
 987 1319 987 1319 997 1276 c 1,6,7
 862 1189 862 1189 732.5 1022 c 128,-1,8
 603 855 603 855 498 631 c 1,9,-1
 379 0 l 1,10,-1
 131 0 l 1,11,-1
 262 657 l 1,12,13
 197 925 197 925 126.5 1073.5 c 128,-1,14
 56 1222 56 1222 -12 1253 c 1,15,16
 3 1307 3 1307 45.5 1335.5 c 128,-1,17
 88 1364 88 1364 150 1364 c 0,18,19
 249 1364 249 1364 298.5 1278.5 c 128,-1,20
 348 1193 348 1193 399 946 c 2,21,-1
 426 817 l 1,0,1
758 1380 m 1,22,-1
 543 1528 l 1,23,-1
 276 1380 l 1,24,-1
 221 1481 l 1,25,-1
 555 1718 l 1,26,-1
 569 1718 l 1,27,-1
 840 1479 l 1,28,-1
 758 1380 l 1,22,-1
EndSplineSet
Validated: 1
Position2: "'cpsp' Capital Spacing lookup 3 subtable" dx=10 dy=0 dh=20 dv=0
EndChar

StartChar: Ydieresis
Encoding: 376 376 145
Width: 768
Flags: MW
HStem: 1323 41G<110 217 800 904> 1489 258<305 385 733 813>
VStem: 193 307<1576 1660> 621 307<1576 1660>
LayerCount: 2
Fore
SplineSet
426 817 m 1,0,1
 555 1114 555 1114 658.5 1239 c 128,-1,2
 762 1364 762 1364 872 1364 c 0,3,4
 921 1364 921 1364 954 1341.5 c 128,-1,5
 987 1319 987 1319 997 1276 c 1,6,7
 862 1189 862 1189 732.5 1022 c 128,-1,8
 603 855 603 855 498 631 c 1,9,-1
 379 0 l 1,10,-1
 131 0 l 1,11,-1
 262 657 l 1,12,13
 197 925 197 925 126.5 1073.5 c 128,-1,14
 56 1222 56 1222 -12 1253 c 1,15,16
 3 1307 3 1307 45.5 1335.5 c 128,-1,17
 88 1364 88 1364 150 1364 c 0,18,19
 249 1364 249 1364 298.5 1278.5 c 128,-1,20
 348 1193 348 1193 399 946 c 2,21,-1
 426 817 l 1,0,1
776 1747 m 0,22,23
 843 1747 843 1747 885.5 1714 c 128,-1,24
 928 1681 928 1681 928 1620 c 0,25,26
 928 1557 928 1557 883 1523 c 128,-1,27
 838 1489 838 1489 770 1489 c 0,28,29
 703 1489 703 1489 662 1522 c 128,-1,30
 621 1555 621 1555 621 1616 c 0,31,32
 621 1679 621 1679 664.5 1713 c 128,-1,33
 708 1747 708 1747 776 1747 c 0,22,23
348 1747 m 0,34,35
 415 1747 415 1747 457.5 1714 c 128,-1,36
 500 1681 500 1681 500 1620 c 0,37,38
 500 1557 500 1557 455 1523 c 128,-1,39
 410 1489 410 1489 342 1489 c 0,40,41
 275 1489 275 1489 234 1522 c 128,-1,42
 193 1555 193 1555 193 1616 c 0,43,44
 193 1679 193 1679 236.5 1713 c 128,-1,45
 280 1747 280 1747 348 1747 c 0,34,35
EndSplineSet
Validated: 1
Position2: "'cpsp' Capital Spacing lookup 3 subtable" dx=10 dy=0 dh=20 dv=0
EndChar

